%TF.GenerationSoftware,KiCad,Pcbnew,10.0.0*%
%TF.CreationDate,2026-04-09T19:37:58-07:00*%
%TF.ProjectId,BarometricPressureSensor,4261726f-6d65-4747-9269-635072657373,rev?*%
%TF.SameCoordinates,Original*%
%TF.FileFunction,Soldermask,Top*%
%TF.FilePolarity,Negative*%
%FSLAX46Y46*%
G04 Gerber Fmt 4.6, Leading zero omitted, Abs format (unit mm)*
G04 Created by KiCad (PCBNEW 10.0.0) date 2026-04-09 19:37:58*
%MOMM*%
%LPD*%
G01*
G04 APERTURE LIST*
G04 Aperture macros list*
%AMRoundRect*
0 Rectangle with rounded corners*
0 $1 Rounding radius*
0 $2 $3 $4 $5 $6 $7 $8 $9 X,Y pos of 4 corners*
0 Add a 4 corners polygon primitive as box body*
4,1,4,$2,$3,$4,$5,$6,$7,$8,$9,$2,$3,0*
0 Add four circle primitives for the rounded corners*
1,1,$1+$1,$2,$3*
1,1,$1+$1,$4,$5*
1,1,$1+$1,$6,$7*
1,1,$1+$1,$8,$9*
0 Add four rect primitives between the rounded corners*
20,1,$1+$1,$2,$3,$4,$5,0*
20,1,$1+$1,$4,$5,$6,$7,0*
20,1,$1+$1,$6,$7,$8,$9,0*
20,1,$1+$1,$8,$9,$2,$3,0*%
G04 Aperture macros list end*
%ADD10C,0.010000*%
%ADD11C,1.700000*%
%ADD12R,1.700000X1.700000*%
%ADD13RoundRect,0.160000X0.197500X0.160000X-0.197500X0.160000X-0.197500X-0.160000X0.197500X-0.160000X0*%
%ADD14RoundRect,0.155000X-0.212500X-0.155000X0.212500X-0.155000X0.212500X0.155000X-0.212500X0.155000X0*%
%ADD15RoundRect,0.250000X-0.250000X0.250000X-0.250000X-0.250000X0.250000X-0.250000X0.250000X0.250000X0*%
%ADD16C,1.210000*%
%ADD17RoundRect,0.150500X0.451500X-0.951500X0.451500X0.951500X-0.451500X0.951500X-0.451500X-0.951500X0*%
%ADD18RoundRect,0.102000X-0.654000X-0.654000X0.654000X-0.654000X0.654000X0.654000X-0.654000X0.654000X0*%
%ADD19C,1.512000*%
%ADD20RoundRect,0.160000X0.160000X-0.197500X0.160000X0.197500X-0.160000X0.197500X-0.160000X-0.197500X0*%
%ADD21RoundRect,0.160000X-0.160000X0.197500X-0.160000X-0.197500X0.160000X-0.197500X0.160000X0.197500X0*%
%ADD22RoundRect,0.160000X0.160000X-0.222500X0.160000X0.222500X-0.160000X0.222500X-0.160000X-0.222500X0*%
%ADD23C,3.200000*%
%ADD24RoundRect,0.155000X0.155000X-0.212500X0.155000X0.212500X-0.155000X0.212500X-0.155000X-0.212500X0*%
%ADD25RoundRect,0.102000X-0.400000X-0.750000X0.400000X-0.750000X0.400000X0.750000X-0.400000X0.750000X0*%
%ADD26RoundRect,0.102000X-0.900000X-0.700000X0.900000X-0.700000X0.900000X0.700000X-0.900000X0.700000X0*%
%ADD27RoundRect,0.102000X-0.700000X-0.950000X0.700000X-0.950000X0.700000X0.950000X-0.700000X0.950000X0*%
%ADD28C,1.300000*%
%ADD29O,2.420000X1.312000*%
%ADD30RoundRect,0.375000X-0.375000X0.625000X-0.375000X-0.625000X0.375000X-0.625000X0.375000X0.625000X0*%
%ADD31RoundRect,0.500000X-1.400000X0.500000X-1.400000X-0.500000X1.400000X-0.500000X1.400000X0.500000X0*%
%ADD32RoundRect,0.102000X-0.654000X0.654000X-0.654000X-0.654000X0.654000X-0.654000X0.654000X0.654000X0*%
%ADD33RoundRect,0.062500X-0.375000X-0.062500X0.375000X-0.062500X0.375000X0.062500X-0.375000X0.062500X0*%
%ADD34RoundRect,0.062500X-0.062500X-0.375000X0.062500X-0.375000X0.062500X0.375000X-0.062500X0.375000X0*%
%ADD35R,1.600000X1.600000*%
%ADD36RoundRect,0.102000X0.654000X0.654000X-0.654000X0.654000X-0.654000X-0.654000X0.654000X-0.654000X0*%
%ADD37RoundRect,0.046250X-0.383750X-0.138750X0.383750X-0.138750X0.383750X0.138750X-0.383750X0.138750X0*%
%ADD38R,0.900000X1.300000*%
%ADD39RoundRect,0.155000X0.212500X0.155000X-0.212500X0.155000X-0.212500X-0.155000X0.212500X-0.155000X0*%
%ADD40RoundRect,0.102000X-0.525000X0.500000X-0.525000X-0.500000X0.525000X-0.500000X0.525000X0.500000X0*%
%ADD41RoundRect,0.102000X-1.100000X0.525000X-1.100000X-0.525000X1.100000X-0.525000X1.100000X0.525000X0*%
%ADD42C,2.454000*%
%ADD43RoundRect,0.160000X0.222500X0.160000X-0.222500X0.160000X-0.222500X-0.160000X0.222500X-0.160000X0*%
%ADD44C,0.650000*%
%ADD45O,1.204000X2.304000*%
%ADD46O,1.204000X2.004000*%
%ADD47RoundRect,0.102000X0.765000X-0.765000X0.765000X0.765000X-0.765000X0.765000X-0.765000X-0.765000X0*%
%ADD48C,1.734000*%
G04 APERTURE END LIST*
D10*
%TO.C,J1*%
X93718000Y-162680000D02*
X93018000Y-162680000D01*
X93018000Y-161430000D01*
X93718000Y-161430000D01*
X93718000Y-162680000D01*
G36*
X93718000Y-162680000D02*
G01*
X93018000Y-162680000D01*
X93018000Y-161430000D01*
X93718000Y-161430000D01*
X93718000Y-162680000D01*
G37*
X94518000Y-162680000D02*
X93818000Y-162680000D01*
X93818000Y-161430000D01*
X94518000Y-161430000D01*
X94518000Y-162680000D01*
G36*
X94518000Y-162680000D02*
G01*
X93818000Y-162680000D01*
X93818000Y-161430000D01*
X94518000Y-161430000D01*
X94518000Y-162680000D01*
G37*
X95018000Y-162680000D02*
X94618000Y-162680000D01*
X94618000Y-161430000D01*
X95018000Y-161430000D01*
X95018000Y-162680000D01*
G36*
X95018000Y-162680000D02*
G01*
X94618000Y-162680000D01*
X94618000Y-161430000D01*
X95018000Y-161430000D01*
X95018000Y-162680000D01*
G37*
X95518000Y-162680000D02*
X95118000Y-162680000D01*
X95118000Y-161430000D01*
X95518000Y-161430000D01*
X95518000Y-162680000D01*
G36*
X95518000Y-162680000D02*
G01*
X95118000Y-162680000D01*
X95118000Y-161430000D01*
X95518000Y-161430000D01*
X95518000Y-162680000D01*
G37*
X96018000Y-162680000D02*
X95618000Y-162680000D01*
X95618000Y-161430000D01*
X96018000Y-161430000D01*
X96018000Y-162680000D01*
G36*
X96018000Y-162680000D02*
G01*
X95618000Y-162680000D01*
X95618000Y-161430000D01*
X96018000Y-161430000D01*
X96018000Y-162680000D01*
G37*
X96518000Y-162680000D02*
X96118000Y-162680000D01*
X96118000Y-161430000D01*
X96518000Y-161430000D01*
X96518000Y-162680000D01*
G36*
X96518000Y-162680000D02*
G01*
X96118000Y-162680000D01*
X96118000Y-161430000D01*
X96518000Y-161430000D01*
X96518000Y-162680000D01*
G37*
X97018000Y-162680000D02*
X96618000Y-162680000D01*
X96618000Y-161430000D01*
X97018000Y-161430000D01*
X97018000Y-162680000D01*
G36*
X97018000Y-162680000D02*
G01*
X96618000Y-162680000D01*
X96618000Y-161430000D01*
X97018000Y-161430000D01*
X97018000Y-162680000D01*
G37*
X97518000Y-162680000D02*
X97118000Y-162680000D01*
X97118000Y-161430000D01*
X97518000Y-161430000D01*
X97518000Y-162680000D01*
G36*
X97518000Y-162680000D02*
G01*
X97118000Y-162680000D01*
X97118000Y-161430000D01*
X97518000Y-161430000D01*
X97518000Y-162680000D01*
G37*
X98018000Y-162680000D02*
X97618000Y-162680000D01*
X97618000Y-161430000D01*
X98018000Y-161430000D01*
X98018000Y-162680000D01*
G36*
X98018000Y-162680000D02*
G01*
X97618000Y-162680000D01*
X97618000Y-161430000D01*
X98018000Y-161430000D01*
X98018000Y-162680000D01*
G37*
X98518000Y-162680000D02*
X98118000Y-162680000D01*
X98118000Y-161430000D01*
X98518000Y-161430000D01*
X98518000Y-162680000D01*
G36*
X98518000Y-162680000D02*
G01*
X98118000Y-162680000D01*
X98118000Y-161430000D01*
X98518000Y-161430000D01*
X98518000Y-162680000D01*
G37*
X99318000Y-162680000D02*
X98618000Y-162680000D01*
X98618000Y-161430000D01*
X99318000Y-161430000D01*
X99318000Y-162680000D01*
G36*
X99318000Y-162680000D02*
G01*
X98618000Y-162680000D01*
X98618000Y-161430000D01*
X99318000Y-161430000D01*
X99318000Y-162680000D01*
G37*
X100118000Y-162680000D02*
X99418000Y-162680000D01*
X99418000Y-161430000D01*
X100118000Y-161430000D01*
X100118000Y-162680000D01*
G36*
X100118000Y-162680000D02*
G01*
X99418000Y-162680000D01*
X99418000Y-161430000D01*
X100118000Y-161430000D01*
X100118000Y-162680000D01*
G37*
%TD*%
D11*
%TO.C,J6*%
X136652000Y-143764000D03*
X136652000Y-146304000D03*
X136652000Y-148844000D03*
D12*
X136652000Y-151384000D03*
%TD*%
%TO.C,J3*%
X146652000Y-151384000D03*
D11*
X146652000Y-148844000D03*
X146652000Y-146304000D03*
X146652000Y-143764000D03*
%TD*%
D13*
%TO.C,R6*%
X85941500Y-146304000D03*
X84746500Y-146304000D03*
%TD*%
D14*
%TO.C,C5*%
X79757500Y-133154000D03*
X80892500Y-133154000D03*
%TD*%
D15*
%TO.C,D2*%
X93980000Y-156504000D03*
X93980000Y-159004000D03*
%TD*%
D16*
%TO.C,U6*%
X85852000Y-119888000D03*
D17*
X79552000Y-127888000D03*
X81052000Y-127888000D03*
X82552000Y-127888000D03*
X84052000Y-127888000D03*
X85552000Y-127888000D03*
X87052000Y-127888000D03*
X88552000Y-127888000D03*
X90052000Y-127888000D03*
X91552000Y-127888000D03*
X93052000Y-127888000D03*
X93052000Y-111888000D03*
X91552000Y-111888000D03*
X90052000Y-111888000D03*
X88552000Y-111888000D03*
X87052000Y-111888000D03*
X85552000Y-111888000D03*
X84052000Y-111888000D03*
X82552000Y-111888000D03*
X81052000Y-111888000D03*
X79552000Y-111888000D03*
%TD*%
D18*
%TO.C,J9*%
X148812000Y-161586000D03*
D19*
X146812000Y-161586000D03*
X144812000Y-161586000D03*
%TD*%
D20*
%TO.C,R10*%
X107188000Y-164592000D03*
X107188000Y-163397000D03*
%TD*%
D14*
%TO.C,C8*%
X105037000Y-144780000D03*
X106172000Y-144780000D03*
%TD*%
D20*
%TO.C,R14*%
X93414000Y-132138000D03*
X93414000Y-130943000D03*
%TD*%
D21*
%TO.C,R7*%
X119380000Y-151205000D03*
X119380000Y-152400000D03*
%TD*%
%TO.C,R12*%
X85286000Y-130435000D03*
X85286000Y-131630000D03*
%TD*%
D22*
%TO.C,D3*%
X85286000Y-134678000D03*
X85286000Y-133533000D03*
%TD*%
D23*
%TO.C,REF\u002A\u002A*%
X72136000Y-108668000D03*
%TD*%
D24*
%TO.C,C1*%
X87884000Y-147379500D03*
X87884000Y-146244500D03*
%TD*%
D20*
%TO.C,R11*%
X112776000Y-152908000D03*
X112776000Y-151713000D03*
%TD*%
D23*
%TO.C,REF\u002A\u002A*%
X167136000Y-108712000D03*
%TD*%
D25*
%TO.C,J4*%
X117768000Y-165408000D03*
X116668000Y-165008000D03*
X115568000Y-165408000D03*
X114468000Y-165608000D03*
X113368000Y-165408000D03*
X112268000Y-165608000D03*
X111168000Y-165408000D03*
X110068000Y-165408000D03*
D26*
X110878000Y-155108000D03*
X116578000Y-155108000D03*
D27*
X109278000Y-168258000D03*
X122428000Y-169258000D03*
%TD*%
D28*
%TO.C,J2*%
X72724000Y-156528000D03*
D29*
X77724000Y-160528000D03*
X77724000Y-153028000D03*
X77724000Y-156528000D03*
%TD*%
D14*
%TO.C,C7*%
X82177000Y-151892000D03*
X83312000Y-151892000D03*
%TD*%
D13*
%TO.C,R4*%
X81788000Y-143764000D03*
X80593000Y-143764000D03*
%TD*%
D30*
%TO.C,U7*%
X95772000Y-147726000D03*
X93472000Y-147726000D03*
D31*
X93472000Y-154026000D03*
D30*
X91172000Y-147726000D03*
%TD*%
D23*
%TO.C,REF\u002A\u002A*%
X167132000Y-166668000D03*
%TD*%
D32*
%TO.C,J10*%
X72094000Y-144256000D03*
D19*
X72094000Y-142256000D03*
%TD*%
D33*
%TO.C,U3*%
X80458500Y-146678000D03*
X80458500Y-147178000D03*
X80458500Y-147678000D03*
X80458500Y-148178000D03*
D34*
X81146000Y-148865500D03*
X81646000Y-148865500D03*
X82146000Y-148865500D03*
X82646000Y-148865500D03*
D33*
X83333500Y-148178000D03*
X83333500Y-147678000D03*
X83333500Y-147178000D03*
X83333500Y-146678000D03*
D34*
X82646000Y-145990500D03*
X82146000Y-145990500D03*
X81646000Y-145990500D03*
X81146000Y-145990500D03*
D35*
X81896000Y-147428000D03*
%TD*%
D36*
%TO.C,J8*%
X129620000Y-160486000D03*
D19*
X131620000Y-160486000D03*
X133620000Y-160486000D03*
X135620000Y-160486000D03*
X137620000Y-160486000D03*
X139620000Y-160486000D03*
%TD*%
D13*
%TO.C,R5*%
X86957500Y-143256000D03*
X85762500Y-143256000D03*
%TD*%
D20*
%TO.C,R3*%
X79248000Y-144451000D03*
X79248000Y-143256000D03*
%TD*%
D23*
%TO.C,REF\u002A\u002A*%
X72136000Y-166668000D03*
%TD*%
D37*
%TO.C,U4*%
X80803000Y-139966000D03*
X80803000Y-140466000D03*
X80803000Y-140966000D03*
X80803000Y-141466000D03*
X82773000Y-141466000D03*
X82773000Y-140966000D03*
X82773000Y-140466000D03*
X82773000Y-139966000D03*
D38*
X81788000Y-140716000D03*
%TD*%
D39*
%TO.C,C2*%
X89975500Y-143764000D03*
X88840500Y-143764000D03*
%TD*%
D20*
%TO.C,R13*%
X91890000Y-132138000D03*
X91890000Y-130943000D03*
%TD*%
D40*
%TO.C,J5*%
X91381000Y-107246000D03*
D41*
X92906000Y-105771000D03*
X92906000Y-108721000D03*
%TD*%
D19*
%TO.C,S1*%
X80780000Y-167132000D03*
X82780000Y-167132000D03*
X84780000Y-167132000D03*
D42*
X77930000Y-167132000D03*
X87630000Y-167132000D03*
%TD*%
D20*
%TO.C,R1*%
X103124000Y-166713500D03*
X103124000Y-165518500D03*
%TD*%
D21*
%TO.C,R9*%
X124968000Y-160349000D03*
X124968000Y-161544000D03*
%TD*%
D43*
%TO.C,FB1*%
X80772000Y-135636000D03*
X79627000Y-135636000D03*
%TD*%
D20*
%TO.C,R8*%
X124968000Y-164592000D03*
X124968000Y-163397000D03*
%TD*%
D44*
%TO.C,J1*%
X93678000Y-163130000D03*
X99458000Y-163130000D03*
D45*
X92248000Y-162630000D03*
X100888000Y-162630000D03*
D46*
X92248000Y-166810000D03*
X100888000Y-166810000D03*
%TD*%
D24*
%TO.C,C6*%
X76708000Y-145915000D03*
X76708000Y-144780000D03*
%TD*%
D15*
%TO.C,D1*%
X86360000Y-156464000D03*
X86360000Y-158964000D03*
%TD*%
D14*
%TO.C,C4*%
X79698000Y-130614000D03*
X80833000Y-130614000D03*
%TD*%
D47*
%TO.C,U1*%
X106682000Y-137160000D03*
D48*
X109222000Y-137160000D03*
X111762000Y-137160000D03*
X114302000Y-137160000D03*
X116842000Y-137160000D03*
X119382000Y-137160000D03*
X121922000Y-137160000D03*
X124462000Y-137160000D03*
X127002000Y-137160000D03*
X129542000Y-137160000D03*
X132082000Y-137160000D03*
X134622000Y-137160000D03*
X137162000Y-137160000D03*
X139702000Y-137160000D03*
X142242000Y-137160000D03*
X144782000Y-137160000D03*
X147322000Y-137160000D03*
X149862000Y-137160000D03*
X152402000Y-137160000D03*
X154942000Y-137160000D03*
X157482000Y-137160000D03*
X160022000Y-137160000D03*
X106682000Y-112230000D03*
X109222000Y-112230000D03*
X111762000Y-112230000D03*
X114302000Y-112230000D03*
X116842000Y-112230000D03*
X119382000Y-112230000D03*
X121922000Y-112230000D03*
X124462000Y-112230000D03*
X127002000Y-112230000D03*
X129542000Y-112230000D03*
X132082000Y-112230000D03*
X134622000Y-112230000D03*
X137162000Y-112230000D03*
X139702000Y-112230000D03*
X142242000Y-112230000D03*
X144782000Y-112230000D03*
X147322000Y-112230000D03*
X149862000Y-112230000D03*
X152402000Y-112230000D03*
X154942000Y-112230000D03*
X157482000Y-112230000D03*
X160022000Y-112230000D03*
%TD*%
D20*
%TO.C,R2*%
X97076000Y-160385000D03*
X97076000Y-159190000D03*
%TD*%
M02*
