M48
; DRILL file KiCad 10.0.0 date 2026-04-09T19:38:00
; FORMAT={-:-/ absolute / metric / decimal}
; #@! TF.CreationDate,2026-04-09T19:38:00-07:00
; #@! TF.GenerationSoftware,Kicad,Pcbnew,10.0.0
; #@! TF.FileFunction,Plated,1,2,PTH
FMAT,2
METRIC
; #@! TA.AperFunction,Plated,PTH,ViaDrill
T1C0.300
; #@! TA.AperFunction,Plated,PTH,ComponentDrill
T2C0.600
; #@! TA.AperFunction,Plated,PTH,ComponentDrill
T3C0.800
; #@! TA.AperFunction,Plated,PTH,ComponentDrill
T4C1.000
; #@! TA.AperFunction,Plated,PTH,ComponentDrill
T5C1.020
; #@! TA.AperFunction,Plated,PTH,ComponentDrill
T6C1.500
%
G90
G05
T1
X77.216Y-139.192
X77.216Y-143.256
X78.74Y-149.86
X80.01Y-138.43
X82.296Y-150.368
X83.82Y-145.288
X84.328Y-139.192
X84.328Y-140.208
X84.328Y-142.24
X85.09Y-144.78
X85.09Y-149.86
X86.36Y-140.97
X90.17Y-109.982
X91.44Y-151.13
X95.044Y-159.698
X95.25Y-151.13
X99.616Y-158.428
X102.87Y-143.51
X102.87Y-146.05
X105.918Y-161.29
X110.236Y-163.576
X111.252Y-153.745
X111.76Y-152.908
X112.268Y-160.02
X113.792Y-163.576
X115.316Y-152.654
X120.396Y-152.4
X125.984Y-161.544
X126.278Y-162.854
X133.35Y-140.716
X136.652Y-140.462
T3
X72.094Y-142.256
X72.094Y-144.256
X80.78Y-167.132
X82.78Y-167.132
X84.78Y-167.132
X129.62Y-160.486
X131.62Y-160.486
X133.62Y-160.486
X135.62Y-160.486
X137.62Y-160.486
X139.62Y-160.486
X144.812Y-161.586
X146.812Y-161.586
X148.812Y-161.586
T4
X136.652Y-143.764
X136.652Y-146.304
X136.652Y-148.844
X136.652Y-151.384
X146.652Y-143.764
X146.652Y-146.304
X146.652Y-148.844
X146.652Y-151.384
T5
X106.682Y-112.23
X106.682Y-137.16
X109.222Y-112.23
X109.222Y-137.16
X111.762Y-112.23
X111.762Y-137.16
X114.302Y-112.23
X114.302Y-137.16
X116.842Y-112.23
X116.842Y-137.16
X119.382Y-112.23
X119.382Y-137.16
X121.922Y-112.23
X121.922Y-137.16
X124.462Y-112.23
X124.462Y-137.16
X127.002Y-112.23
X127.002Y-137.16
X129.542Y-112.23
X129.542Y-137.16
X132.082Y-112.23
X132.082Y-137.16
X134.622Y-112.23
X134.622Y-137.16
X137.162Y-112.23
X137.162Y-137.16
X139.702Y-112.23
X139.702Y-137.16
X142.242Y-112.23
X142.242Y-137.16
X144.782Y-112.23
X144.782Y-137.16
X147.322Y-112.23
X147.322Y-137.16
X149.862Y-112.23
X149.862Y-137.16
X152.402Y-112.23
X152.402Y-137.16
X154.942Y-112.23
X154.942Y-137.16
X157.482Y-112.23
X157.482Y-137.16
X160.022Y-112.23
X160.022Y-137.16
T6
X77.93Y-167.132
X87.63Y-167.132
T2
G00X78.324Y-153.028
M15
G01X77.124Y-153.028
M16
G05
G00X78.324Y-156.528
M15
G01X77.124Y-156.528
M16
G05
G00X78.324Y-160.528
M15
G01X77.124Y-160.528
M16
G05
G00X92.248Y-162.08
M15
G01X92.248Y-163.18
M16
G05
G00X92.248Y-166.41
M15
G01X92.248Y-167.21
M16
G05
G00X100.888Y-162.08
M15
G01X100.888Y-163.18
M16
G05
G00X100.888Y-166.41
M15
G01X100.888Y-167.21
M16
G05
M30
