%TF.GenerationSoftware,KiCad,Pcbnew,10.0.0*%
%TF.CreationDate,2026-04-09T19:37:58-07:00*%
%TF.ProjectId,BarometricPressureSensor,4261726f-6d65-4747-9269-635072657373,rev?*%
%TF.SameCoordinates,Original*%
%TF.FileFunction,Copper,L2,Bot*%
%TF.FilePolarity,Positive*%
%FSLAX46Y46*%
G04 Gerber Fmt 4.6, Leading zero omitted, Abs format (unit mm)*
G04 Created by KiCad (PCBNEW 10.0.0) date 2026-04-09 19:37:58*
%MOMM*%
%LPD*%
G01*
G04 APERTURE LIST*
%TA.AperFunction,ComponentPad*%
%ADD10C,1.700000*%
%TD*%
%TA.AperFunction,ComponentPad*%
%ADD11R,1.700000X1.700000*%
%TD*%
%TA.AperFunction,ComponentPad*%
%ADD12R,1.308000X1.308000*%
%TD*%
%TA.AperFunction,ComponentPad*%
%ADD13C,1.308000*%
%TD*%
%TA.AperFunction,ComponentPad*%
%ADD14O,2.216000X1.108000*%
%TD*%
%TA.AperFunction,ComponentPad*%
%ADD15C,2.250000*%
%TD*%
%TA.AperFunction,ComponentPad*%
%ADD16O,1.000000X2.100000*%
%TD*%
%TA.AperFunction,ComponentPad*%
%ADD17O,1.000000X1.800000*%
%TD*%
%TA.AperFunction,ComponentPad*%
%ADD18R,1.530000X1.530000*%
%TD*%
%TA.AperFunction,ComponentPad*%
%ADD19C,1.530000*%
%TD*%
%TA.AperFunction,ViaPad*%
%ADD20C,0.600000*%
%TD*%
%TA.AperFunction,Conductor*%
%ADD21C,0.200000*%
%TD*%
%TA.AperFunction,Conductor*%
%ADD22C,0.150000*%
%TD*%
%TA.AperFunction,Conductor*%
%ADD23C,0.685800*%
%TD*%
G04 APERTURE END LIST*
D10*
%TO.P,J6,4,Pin_4_4*%
%TO.N,GND*%
X136652000Y-143764000D03*
%TO.P,J6,3,Pin_3_3*%
%TO.N,/CS1*%
X136652000Y-146304000D03*
%TO.P,J6,2,Pin_2_2*%
%TO.N,+3V3*%
X136652000Y-148844000D03*
D11*
%TO.P,J6,1,Pin_1_1*%
X136652000Y-151384000D03*
%TD*%
%TO.P,J3,1,Pin_1_1*%
%TO.N,GND*%
X146652000Y-151384000D03*
D10*
%TO.P,J3,2,Pin_2_2*%
%TO.N,/DPSMISO*%
X146652000Y-148844000D03*
%TO.P,J3,3,Pin_3_3*%
%TO.N,/DPSCLK*%
X146652000Y-146304000D03*
%TO.P,J3,4,Pin_4_4*%
%TO.N,/DPSMOSI*%
X146652000Y-143764000D03*
%TD*%
D12*
%TO.P,J9,1,1_1*%
%TO.N,/OLEDSDA*%
X148812000Y-161586000D03*
D13*
%TO.P,J9,2,2_2*%
%TO.N,/OLEDSCL*%
X146812000Y-161586000D03*
%TO.P,J9,3,3_3*%
%TO.N,/OLEDBUT*%
X144812000Y-161586000D03*
%TD*%
D14*
%TO.P,J2,A*%
%TO.N,Net-(D1-A)*%
X77724000Y-160528000D03*
%TO.P,J2,B*%
%TO.N,GND*%
X77724000Y-153028000D03*
%TO.P,J2,C*%
X77724000Y-156528000D03*
%TD*%
D12*
%TO.P,J10,1,1_1*%
%TO.N,+BATT*%
X72094000Y-144256000D03*
D13*
%TO.P,J10,2,2_2*%
%TO.N,GND*%
X72094000Y-142256000D03*
%TD*%
D12*
%TO.P,J8,1,1_1*%
%TO.N,+3V3*%
X129620000Y-160486000D03*
D13*
%TO.P,J8,2,2_2*%
%TO.N,/CS2*%
X131620000Y-160486000D03*
%TO.P,J8,3,3_3*%
%TO.N,/DPSMOSI*%
X133620000Y-160486000D03*
%TO.P,J8,4,4_4*%
%TO.N,/DPSMISO*%
X135620000Y-160486000D03*
%TO.P,J8,5,5_5*%
%TO.N,/DPSCLK*%
X137620000Y-160486000D03*
%TO.P,J8,6,6_6*%
%TO.N,GND*%
X139620000Y-160486000D03*
%TD*%
%TO.P,S1,1*%
%TO.N,+BATT*%
X80780000Y-167132000D03*
%TO.P,S1,2*%
X82780000Y-167132000D03*
%TO.P,S1,3*%
%TO.N,unconnected-(S1-Pad3)*%
X84780000Y-167132000D03*
D15*
%TO.P,S1,P$4*%
%TO.N,N/C*%
X77930000Y-167132000D03*
%TO.P,S1,P$5*%
X87630000Y-167132000D03*
%TD*%
D16*
%TO.P,J1,SH1,SHELL_GND_SH1*%
%TO.N,GND*%
X92248000Y-162630000D03*
%TO.P,J1,SH2,SHELL_GND__1_SH2*%
X100888000Y-162630000D03*
D17*
%TO.P,J1,SH3,SHELL_GND__2_SH3*%
X92248000Y-166810000D03*
%TO.P,J1,SH4,SHELL_GND__3_SH4*%
X100888000Y-166810000D03*
%TD*%
D18*
%TO.P,U1,J1_1,3V3_J1_1*%
%TO.N,+3V3*%
X106682000Y-137160000D03*
D19*
%TO.P,U1,J1_2,3V3_J1_2*%
X109222000Y-137160000D03*
%TO.P,U1,J1_3,RST_J1_3*%
%TO.N,unconnected-(U1-RST-PadJ1_3)*%
X111762000Y-137160000D03*
%TO.P,U1,J1_4,GPIO4_J1_4*%
%TO.N,/D0*%
X114302000Y-137160000D03*
%TO.P,U1,J1_5,GPIO5_J1_5*%
%TO.N,/SDDET*%
X116842000Y-137160000D03*
%TO.P,U1,J1_6,GPIO6_J1_6*%
%TO.N,/D1*%
X119382000Y-137160000D03*
%TO.P,U1,J1_7,GPIO7_J1_7*%
%TO.N,/CMD*%
X121922000Y-137160000D03*
%TO.P,U1,J1_8,GPIO15_J1_8*%
%TO.N,/SDCLK*%
X124462000Y-137160000D03*
%TO.P,U1,J1_9,GPIO16_J1_9*%
%TO.N,/D3*%
X127002000Y-137160000D03*
%TO.P,U1,J1_10,GPIO17_J1_10*%
%TO.N,/D2*%
X129542000Y-137160000D03*
%TO.P,U1,J1_11,GPIO18_J1_11*%
%TO.N,/CS2*%
X132082000Y-137160000D03*
%TO.P,U1,J1_12,GPIO8_J1_12*%
%TO.N,/CS1*%
X134622000Y-137160000D03*
%TO.P,U1,J1_13,GPIO3_J1_13*%
%TO.N,/DPSMOSI*%
X137162000Y-137160000D03*
%TO.P,U1,J1_14,GPIO46_J1_14*%
%TO.N,/DPSMISO*%
X139702000Y-137160000D03*
%TO.P,U1,J1_15,GPIO9_J1_15*%
%TO.N,/DPSCLK*%
X142242000Y-137160000D03*
%TO.P,U1,J1_16,GPIO10_J1_16*%
%TO.N,/OLEDBUT*%
X144782000Y-137160000D03*
%TO.P,U1,J1_17,GPIO11_J1_17*%
%TO.N,/OLEDSCL*%
X147322000Y-137160000D03*
%TO.P,U1,J1_18,GPIO12_J1_18*%
%TO.N,/OLEDSDA*%
X149862000Y-137160000D03*
%TO.P,U1,J1_19,GPIO13_J1_19*%
%TO.N,unconnected-(U1-GPIO13-PadJ1_19)*%
X152402000Y-137160000D03*
%TO.P,U1,J1_20,GPIO14_J1_20*%
%TO.N,unconnected-(U1-GPIO14-PadJ1_20)*%
X154942000Y-137160000D03*
%TO.P,U1,J1_21,5V0_J1_21*%
%TO.N,unconnected-(U1-5V0-PadJ1_21)*%
X157482000Y-137160000D03*
%TO.P,U1,J1_22,GND_J1_22*%
%TO.N,GND*%
X160022000Y-137160000D03*
%TO.P,U1,J3_1,GND_J3_1*%
X106682000Y-112230000D03*
%TO.P,U1,J3_2,U0TXD/GPIO43_J3_2*%
%TO.N,unconnected-(U1-U0TXD{slash}GPIO43-PadJ3_2)*%
X109222000Y-112230000D03*
%TO.P,U1,J3_3,U0RXD/GPIO44_J3_3*%
%TO.N,unconnected-(U1-U0RXD{slash}GPIO44-PadJ3_3)*%
X111762000Y-112230000D03*
%TO.P,U1,J3_4,GPIO1_J3_4*%
%TO.N,/GPSTX*%
X114302000Y-112230000D03*
%TO.P,U1,J3_5,GPIO2_J3_5*%
%TO.N,/GPSRX*%
X116842000Y-112230000D03*
%TO.P,U1,J3_6,MTMS/GPIO42_J3_6*%
%TO.N,/MAXSDA*%
X119382000Y-112230000D03*
%TO.P,U1,J3_7,MTDI/GPIO41_J3_7*%
%TO.N,/MAXSCL*%
X121922000Y-112230000D03*
%TO.P,U1,J3_8,MTDO/GPIO40_J3_8*%
%TO.N,/MAXALRT*%
X124462000Y-112230000D03*
%TO.P,U1,J3_9,MTCK/GPIO39_J3_9*%
%TO.N,/PPS*%
X127002000Y-112230000D03*
%TO.P,U1,J3_10,GPIO38_J3_10*%
%TO.N,unconnected-(U1-GPIO38-PadJ3_10)*%
X129542000Y-112230000D03*
%TO.P,U1,J3_11,GPIO37_J3_11*%
%TO.N,unconnected-(U1-GPIO37-PadJ3_11)*%
X132082000Y-112230000D03*
%TO.P,U1,J3_12,GPIO36_J3_12*%
%TO.N,unconnected-(U1-GPIO36-PadJ3_12)*%
X134622000Y-112230000D03*
%TO.P,U1,J3_13,GPIO35_J3_13*%
%TO.N,unconnected-(U1-GPIO35-PadJ3_13)*%
X137162000Y-112230000D03*
%TO.P,U1,J3_14,GPIO0_J3_14*%
%TO.N,unconnected-(U1-GPIO0-PadJ3_14)*%
X139702000Y-112230000D03*
%TO.P,U1,J3_15,GPIO45_J3_15*%
%TO.N,unconnected-(U1-GPIO45-PadJ3_15)*%
X142242000Y-112230000D03*
%TO.P,U1,J3_16,GPIO48_J3_16*%
%TO.N,unconnected-(U1-GPIO48-PadJ3_16)*%
X144782000Y-112230000D03*
%TO.P,U1,J3_17,GPIO47_J3_17*%
%TO.N,unconnected-(U1-GPIO47-PadJ3_17)*%
X147322000Y-112230000D03*
%TO.P,U1,J3_18,GPIO21_J3_18*%
%TO.N,unconnected-(U1-GPIO21-PadJ3_18)*%
X149862000Y-112230000D03*
%TO.P,U1,J3_19,USB_D+/GPIO20_J3_19*%
%TO.N,unconnected-(U1-USB_D+{slash}GPIO20-PadJ3_19)*%
X152402000Y-112230000D03*
%TO.P,U1,J3_20,USB_D-/GPIO19_J3_20*%
%TO.N,unconnected-(U1-USB_D-{slash}GPIO19-PadJ3_20)*%
X154942000Y-112230000D03*
%TO.P,U1,J3_21,GND_J3_21*%
%TO.N,GND*%
X157482000Y-112230000D03*
%TO.P,U1,J3_22,GND_J3_22*%
X160022000Y-112230000D03*
%TD*%
D20*
%TO.N,GND*%
X115316000Y-152654000D03*
X133350000Y-140716000D03*
X136652000Y-140462000D03*
X91440000Y-151130000D03*
X78740000Y-149860000D03*
X112268000Y-160020000D03*
X102870000Y-143510000D03*
X102870000Y-146050000D03*
X105918000Y-161290000D03*
X86360000Y-140970000D03*
X77216000Y-143256000D03*
X77216000Y-139192000D03*
X85090000Y-144780000D03*
X85090000Y-149860000D03*
X95250000Y-151130000D03*
X80010000Y-138430000D03*
%TO.N,/IN*%
X82296000Y-150368000D03*
X83820000Y-145288000D03*
%TO.N,Net-(D2-A)*%
X95044000Y-159698000D03*
X99616000Y-158428000D03*
%TO.N,/D1*%
X110236000Y-163576000D03*
%TO.N,/CMD*%
X120396000Y-152400000D03*
%TO.N,/D0*%
X111760000Y-152908000D03*
%TO.N,/D2*%
X126277686Y-162853686D03*
%TO.N,/D3*%
X125984000Y-161544000D03*
%TO.N,/SDCLK*%
X113792000Y-163576000D03*
%TO.N,/SDDET*%
X111252000Y-153745000D03*
%TO.N,/MAXALRT*%
X84328000Y-142240000D03*
%TO.N,/MAXSCL*%
X84328000Y-140208000D03*
%TO.N,/MAXSDA*%
X84328000Y-139192000D03*
%TO.N,/PPS*%
X90170000Y-109982000D03*
%TD*%
%TO.N,/MAXALRT*%
D21*
X124460000Y-112232000D02*
X124462000Y-112230000D01*
X98552000Y-142240000D02*
X124460000Y-116332000D01*
X84328000Y-142240000D02*
X98552000Y-142240000D01*
X124460000Y-116332000D02*
X124460000Y-112232000D01*
%TO.N,/MAXSCL*%
X99822000Y-139700000D02*
X121920000Y-117602000D01*
X85344000Y-139700000D02*
X99822000Y-139700000D01*
X121920000Y-117602000D02*
X121920000Y-112232000D01*
X121920000Y-112232000D02*
X121922000Y-112230000D01*
X84836000Y-140208000D02*
X85344000Y-139700000D01*
X84328000Y-140208000D02*
X84836000Y-140208000D01*
%TO.N,GND*%
D22*
X133350000Y-140716000D02*
X136398000Y-140716000D01*
X136398000Y-140716000D02*
X136652000Y-140462000D01*
%TO.N,/DPSMISO*%
D21*
X135620000Y-159876000D02*
X146652000Y-148844000D01*
X135620000Y-160486000D02*
X135620000Y-159876000D01*
%TO.N,/DPSCLK*%
X142242000Y-141894000D02*
X142242000Y-137160000D01*
X146652000Y-146304000D02*
X142242000Y-141894000D01*
%TO.N,/DPSMISO*%
X139702000Y-141894000D02*
X139702000Y-137160000D01*
X146652000Y-148844000D02*
X139702000Y-141894000D01*
%TO.N,GND*%
D22*
X105918000Y-161290000D02*
X110998000Y-161290000D01*
X91440000Y-151130000D02*
X95250000Y-151130000D01*
X77216000Y-143256000D02*
X77216000Y-139192000D01*
X102870000Y-146050000D02*
X102870000Y-143510000D01*
X110998000Y-161290000D02*
X112268000Y-160020000D01*
%TO.N,/IN*%
D21*
X83820000Y-145288000D02*
X84328000Y-145796000D01*
X83820000Y-150368000D02*
X82296000Y-150368000D01*
X84328000Y-149860000D02*
X83820000Y-150368000D01*
X84328000Y-145796000D02*
X84328000Y-149860000D01*
%TO.N,Net-(D2-A)*%
X96314000Y-158428000D02*
X95044000Y-159698000D01*
X99616000Y-158428000D02*
X96314000Y-158428000D01*
%TO.N,/D1*%
X119382000Y-141222000D02*
X119382000Y-137160000D01*
X117856000Y-155956000D02*
X117856000Y-142748000D01*
X110236000Y-163576000D02*
X117856000Y-155956000D01*
X117856000Y-142748000D02*
X119382000Y-141222000D01*
%TO.N,/CMD*%
X120396000Y-152400000D02*
X121920000Y-150876000D01*
X121920000Y-137162000D02*
X121922000Y-137160000D01*
X121920000Y-150876000D02*
X121920000Y-137162000D01*
%TO.N,/D0*%
X111760000Y-152908000D02*
X111760000Y-143764000D01*
X114302000Y-141222000D02*
X114302000Y-137160000D01*
X111760000Y-143764000D02*
X114302000Y-141222000D01*
%TO.N,/D2*%
X126657979Y-144106021D02*
X126657979Y-162473393D01*
X126657979Y-162473393D02*
X126277686Y-162853686D01*
X129542000Y-141222000D02*
X126657979Y-144106021D01*
X129032000Y-137670000D02*
X129542000Y-137160000D01*
X129542000Y-137160000D02*
X129542000Y-141222000D01*
%TO.N,/D3*%
X125984000Y-161544000D02*
X125984000Y-142240000D01*
X125984000Y-142240000D02*
X127002000Y-141222000D01*
X127002000Y-141222000D02*
X127002000Y-137160000D01*
%TO.N,/SDCLK*%
X113792000Y-163576000D02*
X124460000Y-152908000D01*
X124460000Y-152908000D02*
X124460000Y-137162000D01*
X124460000Y-137162000D02*
X124462000Y-137160000D01*
%TO.N,/SDDET*%
X113792000Y-153416000D02*
X113792000Y-144272000D01*
X113463000Y-153745000D02*
X113792000Y-153416000D01*
X111252000Y-153745000D02*
X113463000Y-153745000D01*
X116842000Y-141222000D02*
X116842000Y-137160000D01*
X113792000Y-144272000D02*
X116842000Y-141222000D01*
%TO.N,+BATT*%
D23*
X82804000Y-163576000D02*
X82804000Y-167172000D01*
X71555100Y-144794900D02*
X71555100Y-159185100D01*
X71555100Y-159185100D02*
X75438000Y-163068000D01*
X72094000Y-144256000D02*
X71555100Y-144794900D01*
X82296000Y-163068000D02*
X82804000Y-163576000D01*
X75438000Y-163068000D02*
X82296000Y-163068000D01*
%TO.N,/CS2*%
D21*
X131620000Y-141684000D02*
X132082000Y-141222000D01*
X131620000Y-160486000D02*
X131620000Y-141684000D01*
X132082000Y-141222000D02*
X132082000Y-137160000D01*
%TO.N,/DPSMOSI*%
X137160000Y-137162000D02*
X137162000Y-137160000D01*
%TO.N,/DPSCLK*%
X142240000Y-137162000D02*
X142242000Y-137160000D01*
%TO.N,/MAXSDA*%
X119380000Y-112232000D02*
X119382000Y-112230000D01*
X84328000Y-139192000D02*
X98552000Y-139192000D01*
X119380000Y-118364000D02*
X119380000Y-112232000D01*
X98552000Y-139192000D02*
X119380000Y-118364000D01*
%TO.N,/PPS*%
X124754000Y-109982000D02*
X127002000Y-112230000D01*
X90170000Y-109982000D02*
X124754000Y-109982000D01*
%TD*%
%TA.AperFunction,Conductor*%
%TO.N,GND*%
G36*
X138503446Y-137626773D02*
G01*
X138542485Y-137671827D01*
X138619647Y-137823266D01*
X138736731Y-137984418D01*
X138877582Y-138125269D01*
X139038734Y-138242353D01*
X139038744Y-138242358D01*
X139042273Y-138244520D01*
X139089157Y-138296325D01*
X139101500Y-138350258D01*
X139101500Y-141807330D01*
X139101499Y-141807348D01*
X139101499Y-141973054D01*
X139101498Y-141973054D01*
X139135944Y-142101606D01*
X139142423Y-142125785D01*
X139162722Y-142160943D01*
X139187199Y-142203339D01*
X139221479Y-142262715D01*
X139340349Y-142381585D01*
X139340355Y-142381590D01*
X145318241Y-148359476D01*
X145351726Y-148420799D01*
X145348492Y-148485473D01*
X145334753Y-148527757D01*
X145301500Y-148737713D01*
X145301500Y-148950286D01*
X145334754Y-149160244D01*
X145334754Y-149160247D01*
X145348491Y-149202523D01*
X145350486Y-149272364D01*
X145318241Y-149328522D01*
X135277653Y-159369110D01*
X135228293Y-159399359D01*
X135176824Y-159416083D01*
X135014909Y-159498583D01*
X134931030Y-159559525D01*
X134867894Y-159605397D01*
X134867892Y-159605399D01*
X134867891Y-159605399D01*
X134739396Y-159733894D01*
X134720317Y-159760155D01*
X134664986Y-159802820D01*
X134595373Y-159808798D01*
X134533578Y-159776191D01*
X134519683Y-159760155D01*
X134500603Y-159733894D01*
X134372108Y-159605399D01*
X134372107Y-159605398D01*
X134372106Y-159605397D01*
X134225090Y-159498583D01*
X134063174Y-159416083D01*
X134063171Y-159416081D01*
X133890348Y-159359928D01*
X133751319Y-159337908D01*
X133710861Y-159331500D01*
X133529139Y-159331500D01*
X133488681Y-159337908D01*
X133349652Y-159359928D01*
X133349649Y-159359928D01*
X133176828Y-159416081D01*
X133176825Y-159416083D01*
X133014909Y-159498583D01*
X132931030Y-159559525D01*
X132867894Y-159605397D01*
X132867892Y-159605399D01*
X132867891Y-159605399D01*
X132739396Y-159733894D01*
X132720317Y-159760155D01*
X132664986Y-159802820D01*
X132595373Y-159808798D01*
X132533578Y-159776191D01*
X132519683Y-159760155D01*
X132500603Y-159733894D01*
X132372107Y-159605398D01*
X132355750Y-159593514D01*
X132271613Y-159532384D01*
X132228949Y-159477054D01*
X132220500Y-159432067D01*
X132220500Y-146197713D01*
X135301500Y-146197713D01*
X135301500Y-146410287D01*
X135334754Y-146620243D01*
X135362321Y-146705086D01*
X135400444Y-146822414D01*
X135496951Y-147011820D01*
X135621890Y-147183786D01*
X135772213Y-147334109D01*
X135944182Y-147459050D01*
X135952946Y-147463516D01*
X136003742Y-147511491D01*
X136020536Y-147579312D01*
X135997998Y-147645447D01*
X135952946Y-147684484D01*
X135944182Y-147688949D01*
X135772213Y-147813890D01*
X135621890Y-147964213D01*
X135496951Y-148136179D01*
X135400444Y-148325585D01*
X135334753Y-148527760D01*
X135301500Y-148737713D01*
X135301500Y-148950287D01*
X135334754Y-149160243D01*
X135389431Y-149328522D01*
X135400444Y-149362414D01*
X135496951Y-149551820D01*
X135621890Y-149723786D01*
X135735430Y-149837326D01*
X135768915Y-149898649D01*
X135763931Y-149968341D01*
X135722059Y-150024274D01*
X135691083Y-150041189D01*
X135559669Y-150090203D01*
X135559664Y-150090206D01*
X135444455Y-150176452D01*
X135444452Y-150176455D01*
X135358206Y-150291664D01*
X135358202Y-150291671D01*
X135307908Y-150426517D01*
X135305723Y-150446846D01*
X135301501Y-150486123D01*
X135301500Y-150486135D01*
X135301500Y-152281870D01*
X135301501Y-152281876D01*
X135307908Y-152341483D01*
X135358202Y-152476328D01*
X135358206Y-152476335D01*
X135444452Y-152591544D01*
X135444455Y-152591547D01*
X135559664Y-152677793D01*
X135559671Y-152677797D01*
X135694517Y-152728091D01*
X135694516Y-152728091D01*
X135701444Y-152728835D01*
X135754127Y-152734500D01*
X137549872Y-152734499D01*
X137609483Y-152728091D01*
X137744331Y-152677796D01*
X137859546Y-152591546D01*
X137945796Y-152476331D01*
X137996091Y-152341483D01*
X138002500Y-152281873D01*
X138002499Y-150486128D01*
X137996091Y-150426517D01*
X137964016Y-150340520D01*
X137945797Y-150291671D01*
X137945793Y-150291664D01*
X137859547Y-150176455D01*
X137859544Y-150176452D01*
X137744335Y-150090206D01*
X137744328Y-150090202D01*
X137612917Y-150041189D01*
X137556983Y-149999318D01*
X137532566Y-149933853D01*
X137547418Y-149865580D01*
X137568563Y-149837332D01*
X137682104Y-149723792D01*
X137807051Y-149551816D01*
X137903557Y-149362412D01*
X137969246Y-149160243D01*
X138002500Y-148950287D01*
X138002500Y-148737713D01*
X137969246Y-148527757D01*
X137903557Y-148325588D01*
X137807051Y-148136184D01*
X137807049Y-148136181D01*
X137807048Y-148136179D01*
X137682109Y-147964213D01*
X137531786Y-147813890D01*
X137359820Y-147688951D01*
X137359115Y-147688591D01*
X137351054Y-147684485D01*
X137300259Y-147636512D01*
X137283463Y-147568692D01*
X137305999Y-147502556D01*
X137351054Y-147463515D01*
X137359816Y-147459051D01*
X137381789Y-147443086D01*
X137531786Y-147334109D01*
X137531788Y-147334106D01*
X137531792Y-147334104D01*
X137682104Y-147183792D01*
X137682106Y-147183788D01*
X137682109Y-147183786D01*
X137807048Y-147011820D01*
X137807047Y-147011820D01*
X137807051Y-147011816D01*
X137903557Y-146822412D01*
X137969246Y-146620243D01*
X138002500Y-146410287D01*
X138002500Y-146197713D01*
X137969246Y-145987757D01*
X137903557Y-145785588D01*
X137807051Y-145596184D01*
X137807049Y-145596181D01*
X137807048Y-145596179D01*
X137682109Y-145424213D01*
X137531786Y-145273890D01*
X137359817Y-145148949D01*
X137350504Y-145144204D01*
X137299707Y-145096230D01*
X137282912Y-145028409D01*
X137305449Y-144962274D01*
X137350507Y-144923232D01*
X137359555Y-144918622D01*
X137413716Y-144879270D01*
X137413717Y-144879270D01*
X136781408Y-144246962D01*
X136844993Y-144229925D01*
X136959007Y-144164099D01*
X137052099Y-144071007D01*
X137117925Y-143956993D01*
X137134962Y-143893408D01*
X137767270Y-144525717D01*
X137767270Y-144525716D01*
X137806622Y-144471554D01*
X137903095Y-144282217D01*
X137968757Y-144080130D01*
X137968757Y-144080127D01*
X138002000Y-143870246D01*
X138002000Y-143657753D01*
X137968757Y-143447872D01*
X137968757Y-143447869D01*
X137903095Y-143245782D01*
X137806624Y-143056449D01*
X137767270Y-143002282D01*
X137767269Y-143002282D01*
X137134962Y-143634590D01*
X137117925Y-143571007D01*
X137052099Y-143456993D01*
X136959007Y-143363901D01*
X136844993Y-143298075D01*
X136781409Y-143281037D01*
X137413716Y-142648728D01*
X137359550Y-142609375D01*
X137170217Y-142512904D01*
X136968129Y-142447242D01*
X136758246Y-142414000D01*
X136545754Y-142414000D01*
X136335872Y-142447242D01*
X136335869Y-142447242D01*
X136133782Y-142512904D01*
X135944439Y-142609380D01*
X135890282Y-142648727D01*
X135890282Y-142648728D01*
X136522591Y-143281037D01*
X136459007Y-143298075D01*
X136344993Y-143363901D01*
X136251901Y-143456993D01*
X136186075Y-143571007D01*
X136169037Y-143634591D01*
X135536728Y-143002282D01*
X135536727Y-143002282D01*
X135497380Y-143056439D01*
X135400904Y-143245782D01*
X135335242Y-143447869D01*
X135335242Y-143447872D01*
X135302000Y-143657753D01*
X135302000Y-143870246D01*
X135335242Y-144080127D01*
X135335242Y-144080130D01*
X135400904Y-144282217D01*
X135497375Y-144471550D01*
X135536728Y-144525716D01*
X136169037Y-143893408D01*
X136186075Y-143956993D01*
X136251901Y-144071007D01*
X136344993Y-144164099D01*
X136459007Y-144229925D01*
X136522590Y-144246962D01*
X135890282Y-144879269D01*
X135890282Y-144879270D01*
X135944452Y-144918626D01*
X135944451Y-144918626D01*
X135953495Y-144923234D01*
X136004292Y-144971208D01*
X136021087Y-145039029D01*
X135998550Y-145105164D01*
X135953499Y-145144202D01*
X135944182Y-145148949D01*
X135772213Y-145273890D01*
X135621890Y-145424213D01*
X135496951Y-145596179D01*
X135400444Y-145785585D01*
X135334753Y-145987760D01*
X135319228Y-146085783D01*
X135301500Y-146197713D01*
X132220500Y-146197713D01*
X132220500Y-141984097D01*
X132240185Y-141917058D01*
X132256819Y-141896416D01*
X132390178Y-141763057D01*
X132562520Y-141590716D01*
X132641577Y-141453784D01*
X132682501Y-141301057D01*
X132682501Y-141142942D01*
X132682501Y-141135339D01*
X132682500Y-141135329D01*
X132682500Y-138350258D01*
X132702185Y-138283219D01*
X132741727Y-138244520D01*
X132745249Y-138242361D01*
X132745266Y-138242353D01*
X132906418Y-138125269D01*
X133047269Y-137984418D01*
X133164353Y-137823266D01*
X133241515Y-137671827D01*
X133289490Y-137621031D01*
X133357311Y-137604236D01*
X133423446Y-137626773D01*
X133462485Y-137671827D01*
X133539647Y-137823266D01*
X133656731Y-137984418D01*
X133797582Y-138125269D01*
X133958734Y-138242353D01*
X134135304Y-138332320D01*
X134136219Y-138332786D01*
X134325657Y-138394338D01*
X134325658Y-138394338D01*
X134325661Y-138394339D01*
X134522403Y-138425500D01*
X134522404Y-138425500D01*
X134721596Y-138425500D01*
X134721597Y-138425500D01*
X134918339Y-138394339D01*
X134918342Y-138394338D01*
X134918343Y-138394338D01*
X135107780Y-138332786D01*
X135107780Y-138332785D01*
X135107783Y-138332785D01*
X135285266Y-138242353D01*
X135446418Y-138125269D01*
X135587269Y-137984418D01*
X135704353Y-137823266D01*
X135781515Y-137671827D01*
X135829490Y-137621031D01*
X135897311Y-137604236D01*
X135963446Y-137626773D01*
X136002485Y-137671827D01*
X136079647Y-137823266D01*
X136196731Y-137984418D01*
X136337582Y-138125269D01*
X136498734Y-138242353D01*
X136675304Y-138332320D01*
X136676219Y-138332786D01*
X136865657Y-138394338D01*
X136865658Y-138394338D01*
X136865661Y-138394339D01*
X137062403Y-138425500D01*
X137062404Y-138425500D01*
X137261596Y-138425500D01*
X137261597Y-138425500D01*
X137458339Y-138394339D01*
X137458342Y-138394338D01*
X137458343Y-138394338D01*
X137647780Y-138332786D01*
X137647780Y-138332785D01*
X137647783Y-138332785D01*
X137825266Y-138242353D01*
X137986418Y-138125269D01*
X138127269Y-137984418D01*
X138244353Y-137823266D01*
X138321515Y-137671827D01*
X138369490Y-137621031D01*
X138437311Y-137604236D01*
X138503446Y-137626773D01*
G37*
%TD.AperFunction*%
%TA.AperFunction,Conductor*%
G36*
X170123039Y-105429685D02*
G01*
X170168794Y-105482489D01*
X170180000Y-105534000D01*
X170180000Y-170056000D01*
X170160315Y-170123039D01*
X170107511Y-170168794D01*
X170056000Y-170180000D01*
X68704000Y-170180000D01*
X68636961Y-170160315D01*
X68591206Y-170107511D01*
X68580000Y-170056000D01*
X68580000Y-166551634D01*
X70360500Y-166551634D01*
X70360500Y-166784365D01*
X70360501Y-166784382D01*
X70390878Y-167015122D01*
X70451120Y-167239947D01*
X70540180Y-167454960D01*
X70540188Y-167454976D01*
X70656553Y-167656524D01*
X70656564Y-167656540D01*
X70798242Y-167841179D01*
X70798248Y-167841186D01*
X70962813Y-168005751D01*
X70962820Y-168005757D01*
X71080678Y-168096192D01*
X71147468Y-168147442D01*
X71147475Y-168147446D01*
X71349023Y-168263811D01*
X71349039Y-168263819D01*
X71564052Y-168352879D01*
X71564054Y-168352879D01*
X71564060Y-168352882D01*
X71788874Y-168413121D01*
X72019628Y-168443500D01*
X72019635Y-168443500D01*
X72252365Y-168443500D01*
X72252372Y-168443500D01*
X72483126Y-168413121D01*
X72707940Y-168352882D01*
X72868202Y-168286500D01*
X72922960Y-168263819D01*
X72922963Y-168263817D01*
X72922969Y-168263815D01*
X73124532Y-168147442D01*
X73309181Y-168005756D01*
X73473756Y-167841181D01*
X73615442Y-167656532D01*
X73731815Y-167454969D01*
X73733849Y-167450060D01*
X73820879Y-167239947D01*
X73820878Y-167239947D01*
X73820882Y-167239940D01*
X73881121Y-167015126D01*
X73911500Y-166784372D01*
X73911500Y-166551628D01*
X73881121Y-166320874D01*
X73820882Y-166096060D01*
X73811355Y-166073059D01*
X73731819Y-165881039D01*
X73731811Y-165881023D01*
X73615446Y-165679475D01*
X73615442Y-165679468D01*
X73473756Y-165494819D01*
X73473751Y-165494813D01*
X73309186Y-165330248D01*
X73309179Y-165330242D01*
X73124540Y-165188564D01*
X73124538Y-165188562D01*
X73124532Y-165188558D01*
X73124527Y-165188555D01*
X73124524Y-165188553D01*
X72922976Y-165072188D01*
X72922960Y-165072180D01*
X72707947Y-164983120D01*
X72483122Y-164922878D01*
X72252382Y-164892501D01*
X72252377Y-164892500D01*
X72252372Y-164892500D01*
X72019628Y-164892500D01*
X72019622Y-164892500D01*
X72019617Y-164892501D01*
X71788877Y-164922878D01*
X71564052Y-164983120D01*
X71349039Y-165072180D01*
X71349023Y-165072188D01*
X71147475Y-165188553D01*
X71147459Y-165188564D01*
X70962820Y-165330242D01*
X70962813Y-165330248D01*
X70798248Y-165494813D01*
X70798242Y-165494820D01*
X70656564Y-165679459D01*
X70656553Y-165679475D01*
X70540188Y-165881023D01*
X70540180Y-165881039D01*
X70451120Y-166096052D01*
X70390878Y-166320877D01*
X70360501Y-166551617D01*
X70360500Y-166551634D01*
X68580000Y-166551634D01*
X68580000Y-144711827D01*
X70711700Y-144711827D01*
X70711700Y-159268172D01*
X70744109Y-159431103D01*
X70744112Y-159431115D01*
X70807684Y-159584593D01*
X70807691Y-159584606D01*
X70899987Y-159722735D01*
X70899990Y-159722739D01*
X74782888Y-163605636D01*
X74900364Y-163723112D01*
X74900365Y-163723113D01*
X75038493Y-163815408D01*
X75038506Y-163815415D01*
X75191984Y-163878987D01*
X75191989Y-163878989D01*
X75354927Y-163911399D01*
X75354931Y-163911400D01*
X75354932Y-163911400D01*
X81836600Y-163911400D01*
X81903639Y-163931085D01*
X81949394Y-163983889D01*
X81960600Y-164035400D01*
X81960600Y-166267329D01*
X81940915Y-166334368D01*
X81930691Y-166348094D01*
X81927624Y-166351666D01*
X81899397Y-166379894D01*
X81877362Y-166410221D01*
X81874091Y-166414033D01*
X81848829Y-166430434D01*
X81824986Y-166448820D01*
X81819830Y-166449262D01*
X81815490Y-166452081D01*
X81785375Y-166452221D01*
X81755373Y-166454798D01*
X81750795Y-166452382D01*
X81745621Y-166452407D01*
X81720213Y-166436245D01*
X81693578Y-166422191D01*
X81688002Y-166415756D01*
X81686667Y-166414907D01*
X81685981Y-166413423D01*
X81679683Y-166406155D01*
X81660603Y-166379894D01*
X81532108Y-166251399D01*
X81532106Y-166251397D01*
X81385090Y-166144583D01*
X81223174Y-166062083D01*
X81223171Y-166062081D01*
X81050348Y-166005928D01*
X80930689Y-165986976D01*
X80870861Y-165977500D01*
X80689139Y-165977500D01*
X80629310Y-165986976D01*
X80509652Y-166005928D01*
X80509649Y-166005928D01*
X80336828Y-166062081D01*
X80336825Y-166062083D01*
X80174909Y-166144583D01*
X80140009Y-166169940D01*
X80027894Y-166251397D01*
X80027892Y-166251399D01*
X80027891Y-166251399D01*
X79899399Y-166379891D01*
X79899399Y-166379892D01*
X79899397Y-166379894D01*
X79873342Y-166415756D01*
X79792579Y-166526914D01*
X79714751Y-166679660D01*
X79666777Y-166730456D01*
X79598956Y-166747251D01*
X79532821Y-166724713D01*
X79489370Y-166669998D01*
X79486336Y-166661683D01*
X79436411Y-166508027D01*
X79436410Y-166508024D01*
X79384504Y-166406155D01*
X79320252Y-166280053D01*
X79299432Y-166251397D01*
X79169867Y-166073064D01*
X79169863Y-166073059D01*
X78988940Y-165892136D01*
X78988935Y-165892132D01*
X78781950Y-165741750D01*
X78781949Y-165741749D01*
X78781947Y-165741748D01*
X78659730Y-165679475D01*
X78553975Y-165625589D01*
X78553972Y-165625588D01*
X78310640Y-165546526D01*
X78167200Y-165523807D01*
X78057930Y-165506500D01*
X77802070Y-165506500D01*
X77717833Y-165519842D01*
X77549359Y-165546526D01*
X77306027Y-165625588D01*
X77306024Y-165625589D01*
X77078049Y-165741750D01*
X76871064Y-165892132D01*
X76871059Y-165892136D01*
X76690136Y-166073059D01*
X76690132Y-166073064D01*
X76539750Y-166280049D01*
X76423589Y-166508024D01*
X76423588Y-166508027D01*
X76344526Y-166751359D01*
X76304500Y-167004070D01*
X76304500Y-167259929D01*
X76344526Y-167512640D01*
X76423588Y-167755972D01*
X76423589Y-167755975D01*
X76539750Y-167983950D01*
X76690132Y-168190935D01*
X76690136Y-168190940D01*
X76871059Y-168371863D01*
X76871064Y-168371867D01*
X77051607Y-168503038D01*
X77078053Y-168522252D01*
X77227080Y-168598185D01*
X77306024Y-168638410D01*
X77306027Y-168638411D01*
X77427693Y-168677942D01*
X77549361Y-168717474D01*
X77802070Y-168757500D01*
X77802071Y-168757500D01*
X78057929Y-168757500D01*
X78057930Y-168757500D01*
X78310639Y-168717474D01*
X78553975Y-168638410D01*
X78781947Y-168522252D01*
X78988942Y-168371862D01*
X79169862Y-168190942D01*
X79320252Y-167983947D01*
X79436410Y-167755975D01*
X79486336Y-167602316D01*
X79525773Y-167544641D01*
X79590131Y-167517442D01*
X79658978Y-167529356D01*
X79710454Y-167576600D01*
X79714752Y-167584339D01*
X79765371Y-167683684D01*
X79792583Y-167737090D01*
X79899397Y-167884106D01*
X80027894Y-168012603D01*
X80174910Y-168119417D01*
X80336826Y-168201917D01*
X80336828Y-168201918D01*
X80498029Y-168254294D01*
X80509654Y-168258072D01*
X80689139Y-168286500D01*
X80689140Y-168286500D01*
X80870860Y-168286500D01*
X80870861Y-168286500D01*
X81050346Y-168258072D01*
X81050349Y-168258071D01*
X81050350Y-168258071D01*
X81223171Y-168201918D01*
X81223171Y-168201917D01*
X81223174Y-168201917D01*
X81385090Y-168119417D01*
X81532106Y-168012603D01*
X81660603Y-167884106D01*
X81679682Y-167857845D01*
X81735012Y-167815180D01*
X81804625Y-167809201D01*
X81866420Y-167841807D01*
X81880317Y-167857845D01*
X81899397Y-167884106D01*
X82027894Y-168012603D01*
X82174910Y-168119417D01*
X82336826Y-168201917D01*
X82336828Y-168201918D01*
X82498029Y-168254294D01*
X82509654Y-168258072D01*
X82689139Y-168286500D01*
X82689140Y-168286500D01*
X82870860Y-168286500D01*
X82870861Y-168286500D01*
X83050346Y-168258072D01*
X83050349Y-168258071D01*
X83050350Y-168258071D01*
X83223171Y-168201918D01*
X83223171Y-168201917D01*
X83223174Y-168201917D01*
X83385090Y-168119417D01*
X83532106Y-168012603D01*
X83660603Y-167884106D01*
X83679682Y-167857845D01*
X83735012Y-167815180D01*
X83804625Y-167809201D01*
X83866420Y-167841807D01*
X83880317Y-167857845D01*
X83899397Y-167884106D01*
X84027894Y-168012603D01*
X84174910Y-168119417D01*
X84336826Y-168201917D01*
X84336828Y-168201918D01*
X84498029Y-168254294D01*
X84509654Y-168258072D01*
X84689139Y-168286500D01*
X84689140Y-168286500D01*
X84870860Y-168286500D01*
X84870861Y-168286500D01*
X85050346Y-168258072D01*
X85050349Y-168258071D01*
X85050350Y-168258071D01*
X85223171Y-168201918D01*
X85223171Y-168201917D01*
X85223174Y-168201917D01*
X85385090Y-168119417D01*
X85532106Y-168012603D01*
X85660603Y-167884106D01*
X85767417Y-167737090D01*
X85845247Y-167584338D01*
X85893221Y-167533543D01*
X85961042Y-167516748D01*
X86027177Y-167539285D01*
X86070629Y-167594000D01*
X86073663Y-167602316D01*
X86123588Y-167755972D01*
X86123589Y-167755975D01*
X86239750Y-167983950D01*
X86390132Y-168190935D01*
X86390136Y-168190940D01*
X86571059Y-168371863D01*
X86571064Y-168371867D01*
X86751607Y-168503038D01*
X86778053Y-168522252D01*
X86927080Y-168598185D01*
X87006024Y-168638410D01*
X87006027Y-168638411D01*
X87127693Y-168677942D01*
X87249361Y-168717474D01*
X87502070Y-168757500D01*
X87502071Y-168757500D01*
X87757929Y-168757500D01*
X87757930Y-168757500D01*
X88010639Y-168717474D01*
X88253975Y-168638410D01*
X88481947Y-168522252D01*
X88688942Y-168371862D01*
X88869862Y-168190942D01*
X89020252Y-167983947D01*
X89136410Y-167755975D01*
X89215474Y-167512639D01*
X89255500Y-167259930D01*
X89255500Y-167004070D01*
X89215474Y-166751361D01*
X89153298Y-166560000D01*
X89136411Y-166508027D01*
X89136410Y-166508024D01*
X89084504Y-166406155D01*
X89036277Y-166311504D01*
X91248000Y-166311504D01*
X91248000Y-166560000D01*
X91948000Y-166560000D01*
X91948000Y-167060000D01*
X91248000Y-167060000D01*
X91248000Y-167308495D01*
X91286427Y-167501681D01*
X91286430Y-167501693D01*
X91361807Y-167683671D01*
X91361814Y-167683684D01*
X91471248Y-167847462D01*
X91471251Y-167847466D01*
X91610533Y-167986748D01*
X91610537Y-167986751D01*
X91774315Y-168096185D01*
X91774328Y-168096192D01*
X91956308Y-168171569D01*
X91998000Y-168179862D01*
X91998000Y-167376988D01*
X92007940Y-167394205D01*
X92063795Y-167450060D01*
X92132204Y-167489556D01*
X92208504Y-167510000D01*
X92287496Y-167510000D01*
X92363796Y-167489556D01*
X92432205Y-167450060D01*
X92488060Y-167394205D01*
X92498000Y-167376988D01*
X92498000Y-168179862D01*
X92539690Y-168171569D01*
X92539692Y-168171569D01*
X92721671Y-168096192D01*
X92721684Y-168096185D01*
X92885462Y-167986751D01*
X92885466Y-167986748D01*
X93024748Y-167847466D01*
X93024751Y-167847462D01*
X93134185Y-167683684D01*
X93134192Y-167683671D01*
X93209569Y-167501693D01*
X93209572Y-167501681D01*
X93247999Y-167308495D01*
X93248000Y-167308492D01*
X93248000Y-167060000D01*
X92548000Y-167060000D01*
X92548000Y-166560000D01*
X93248000Y-166560000D01*
X93248000Y-166311508D01*
X93247999Y-166311504D01*
X99888000Y-166311504D01*
X99888000Y-166560000D01*
X100588000Y-166560000D01*
X100588000Y-167060000D01*
X99888000Y-167060000D01*
X99888000Y-167308495D01*
X99926427Y-167501681D01*
X99926430Y-167501693D01*
X100001807Y-167683671D01*
X100001814Y-167683684D01*
X100111248Y-167847462D01*
X100111251Y-167847466D01*
X100250533Y-167986748D01*
X100250537Y-167986751D01*
X100414315Y-168096185D01*
X100414328Y-168096192D01*
X100596308Y-168171569D01*
X100638000Y-168179862D01*
X100638000Y-167376988D01*
X100647940Y-167394205D01*
X100703795Y-167450060D01*
X100772204Y-167489556D01*
X100848504Y-167510000D01*
X100927496Y-167510000D01*
X101003796Y-167489556D01*
X101072205Y-167450060D01*
X101128060Y-167394205D01*
X101138000Y-167376988D01*
X101138000Y-168179862D01*
X101179690Y-168171569D01*
X101179692Y-168171569D01*
X101361671Y-168096192D01*
X101361684Y-168096185D01*
X101525462Y-167986751D01*
X101525466Y-167986748D01*
X101664748Y-167847466D01*
X101664751Y-167847462D01*
X101774185Y-167683684D01*
X101774192Y-167683671D01*
X101849569Y-167501693D01*
X101849572Y-167501681D01*
X101887999Y-167308495D01*
X101888000Y-167308492D01*
X101888000Y-167060000D01*
X101188000Y-167060000D01*
X101188000Y-166560000D01*
X101888000Y-166560000D01*
X101888000Y-166551634D01*
X165356500Y-166551634D01*
X165356500Y-166784365D01*
X165356501Y-166784382D01*
X165386878Y-167015122D01*
X165447120Y-167239947D01*
X165536180Y-167454960D01*
X165536188Y-167454976D01*
X165652553Y-167656524D01*
X165652564Y-167656540D01*
X165794242Y-167841179D01*
X165794248Y-167841186D01*
X165958813Y-168005751D01*
X165958820Y-168005757D01*
X166076678Y-168096192D01*
X166143468Y-168147442D01*
X166143475Y-168147446D01*
X166345023Y-168263811D01*
X166345039Y-168263819D01*
X166560052Y-168352879D01*
X166560054Y-168352879D01*
X166560060Y-168352882D01*
X166784874Y-168413121D01*
X167015628Y-168443500D01*
X167015635Y-168443500D01*
X167248365Y-168443500D01*
X167248372Y-168443500D01*
X167479126Y-168413121D01*
X167703940Y-168352882D01*
X167864202Y-168286500D01*
X167918960Y-168263819D01*
X167918963Y-168263817D01*
X167918969Y-168263815D01*
X168120532Y-168147442D01*
X168305181Y-168005756D01*
X168469756Y-167841181D01*
X168611442Y-167656532D01*
X168727815Y-167454969D01*
X168729849Y-167450060D01*
X168816879Y-167239947D01*
X168816878Y-167239947D01*
X168816882Y-167239940D01*
X168877121Y-167015126D01*
X168907500Y-166784372D01*
X168907500Y-166551628D01*
X168877121Y-166320874D01*
X168816882Y-166096060D01*
X168807355Y-166073059D01*
X168727819Y-165881039D01*
X168727811Y-165881023D01*
X168611446Y-165679475D01*
X168611442Y-165679468D01*
X168469756Y-165494819D01*
X168469751Y-165494813D01*
X168305186Y-165330248D01*
X168305179Y-165330242D01*
X168120540Y-165188564D01*
X168120538Y-165188562D01*
X168120532Y-165188558D01*
X168120527Y-165188555D01*
X168120524Y-165188553D01*
X167918976Y-165072188D01*
X167918960Y-165072180D01*
X167703947Y-164983120D01*
X167479122Y-164922878D01*
X167248382Y-164892501D01*
X167248377Y-164892500D01*
X167248372Y-164892500D01*
X167015628Y-164892500D01*
X167015622Y-164892500D01*
X167015617Y-164892501D01*
X166784877Y-164922878D01*
X166560052Y-164983120D01*
X166345039Y-165072180D01*
X166345023Y-165072188D01*
X166143475Y-165188553D01*
X166143459Y-165188564D01*
X165958820Y-165330242D01*
X165958813Y-165330248D01*
X165794248Y-165494813D01*
X165794242Y-165494820D01*
X165652564Y-165679459D01*
X165652553Y-165679475D01*
X165536188Y-165881023D01*
X165536180Y-165881039D01*
X165447120Y-166096052D01*
X165386878Y-166320877D01*
X165356501Y-166551617D01*
X165356500Y-166551634D01*
X101888000Y-166551634D01*
X101888000Y-166311508D01*
X101887999Y-166311504D01*
X101849572Y-166118318D01*
X101849569Y-166118306D01*
X101774192Y-165936328D01*
X101774185Y-165936315D01*
X101664751Y-165772537D01*
X101664748Y-165772533D01*
X101525466Y-165633251D01*
X101525462Y-165633248D01*
X101361684Y-165523814D01*
X101361671Y-165523807D01*
X101179691Y-165448429D01*
X101179683Y-165448427D01*
X101138000Y-165440135D01*
X101138000Y-166243011D01*
X101128060Y-166225795D01*
X101072205Y-166169940D01*
X101003796Y-166130444D01*
X100927496Y-166110000D01*
X100848504Y-166110000D01*
X100772204Y-166130444D01*
X100703795Y-166169940D01*
X100647940Y-166225795D01*
X100638000Y-166243011D01*
X100638000Y-165440136D01*
X100637999Y-165440135D01*
X100596316Y-165448427D01*
X100596308Y-165448429D01*
X100414328Y-165523807D01*
X100414315Y-165523814D01*
X100250537Y-165633248D01*
X100250533Y-165633251D01*
X100111251Y-165772533D01*
X100111248Y-165772537D01*
X100001814Y-165936315D01*
X100001807Y-165936328D01*
X99926430Y-166118306D01*
X99926427Y-166118318D01*
X99888000Y-166311504D01*
X93247999Y-166311504D01*
X93209572Y-166118318D01*
X93209569Y-166118306D01*
X93134192Y-165936328D01*
X93134185Y-165936315D01*
X93024751Y-165772537D01*
X93024748Y-165772533D01*
X92885466Y-165633251D01*
X92885462Y-165633248D01*
X92721684Y-165523814D01*
X92721671Y-165523807D01*
X92539691Y-165448429D01*
X92539683Y-165448427D01*
X92498000Y-165440135D01*
X92498000Y-166243011D01*
X92488060Y-166225795D01*
X92432205Y-166169940D01*
X92363796Y-166130444D01*
X92287496Y-166110000D01*
X92208504Y-166110000D01*
X92132204Y-166130444D01*
X92063795Y-166169940D01*
X92007940Y-166225795D01*
X91998000Y-166243011D01*
X91998000Y-165440136D01*
X91997999Y-165440135D01*
X91956316Y-165448427D01*
X91956308Y-165448429D01*
X91774328Y-165523807D01*
X91774315Y-165523814D01*
X91610537Y-165633248D01*
X91610533Y-165633251D01*
X91471251Y-165772533D01*
X91471248Y-165772537D01*
X91361814Y-165936315D01*
X91361807Y-165936328D01*
X91286430Y-166118306D01*
X91286427Y-166118318D01*
X91248000Y-166311504D01*
X89036277Y-166311504D01*
X89020252Y-166280053D01*
X89020250Y-166280050D01*
X89020249Y-166280048D01*
X88869867Y-166073064D01*
X88869863Y-166073059D01*
X88688940Y-165892136D01*
X88688935Y-165892132D01*
X88481950Y-165741750D01*
X88481949Y-165741749D01*
X88481947Y-165741748D01*
X88359730Y-165679475D01*
X88253975Y-165625589D01*
X88253972Y-165625588D01*
X88010640Y-165546526D01*
X87867200Y-165523807D01*
X87757930Y-165506500D01*
X87502070Y-165506500D01*
X87417833Y-165519842D01*
X87249359Y-165546526D01*
X87006027Y-165625588D01*
X87006024Y-165625589D01*
X86778049Y-165741750D01*
X86571064Y-165892132D01*
X86571059Y-165892136D01*
X86390136Y-166073059D01*
X86390132Y-166073064D01*
X86239750Y-166280049D01*
X86123589Y-166508024D01*
X86123588Y-166508027D01*
X86073663Y-166661683D01*
X86034225Y-166719359D01*
X85969867Y-166746557D01*
X85901020Y-166734642D01*
X85849545Y-166687398D01*
X85845247Y-166679660D01*
X85780011Y-166551628D01*
X85767417Y-166526910D01*
X85660603Y-166379894D01*
X85532106Y-166251397D01*
X85385090Y-166144583D01*
X85223174Y-166062083D01*
X85223171Y-166062081D01*
X85050348Y-166005928D01*
X84930689Y-165986976D01*
X84870861Y-165977500D01*
X84689139Y-165977500D01*
X84629310Y-165986976D01*
X84509652Y-166005928D01*
X84509649Y-166005928D01*
X84336828Y-166062081D01*
X84336825Y-166062083D01*
X84174909Y-166144583D01*
X84140009Y-166169940D01*
X84027894Y-166251397D01*
X84027892Y-166251399D01*
X84027891Y-166251399D01*
X83899396Y-166379894D01*
X83880317Y-166406155D01*
X83824986Y-166448820D01*
X83755373Y-166454798D01*
X83693578Y-166422191D01*
X83679684Y-166406157D01*
X83679683Y-166406155D01*
X83671083Y-166394318D01*
X83647602Y-166328515D01*
X83647400Y-166321432D01*
X83647400Y-163492931D01*
X83647399Y-163492927D01*
X83621795Y-163364205D01*
X83614989Y-163329989D01*
X83593660Y-163278495D01*
X83551415Y-163176506D01*
X83551408Y-163176493D01*
X83459112Y-163038364D01*
X83459109Y-163038360D01*
X83337316Y-162916567D01*
X83337295Y-162916547D01*
X83337067Y-162916319D01*
X82833639Y-162412890D01*
X82833635Y-162412887D01*
X82695506Y-162320591D01*
X82695493Y-162320584D01*
X82542015Y-162257012D01*
X82542003Y-162257009D01*
X82379072Y-162224600D01*
X82379068Y-162224600D01*
X75838710Y-162224600D01*
X75771671Y-162204915D01*
X75751029Y-162188281D01*
X75544252Y-161981504D01*
X91248000Y-161981504D01*
X91248000Y-162380000D01*
X91948000Y-162380000D01*
X91948000Y-162880000D01*
X91248000Y-162880000D01*
X91248000Y-163278495D01*
X91286427Y-163471681D01*
X91286430Y-163471693D01*
X91361807Y-163653671D01*
X91361814Y-163653684D01*
X91471248Y-163817462D01*
X91471251Y-163817466D01*
X91610533Y-163956748D01*
X91610537Y-163956751D01*
X91774315Y-164066185D01*
X91774328Y-164066192D01*
X91956308Y-164141569D01*
X91998000Y-164149862D01*
X91998000Y-163346988D01*
X92007940Y-163364205D01*
X92063795Y-163420060D01*
X92132204Y-163459556D01*
X92208504Y-163480000D01*
X92287496Y-163480000D01*
X92363796Y-163459556D01*
X92432205Y-163420060D01*
X92488060Y-163364205D01*
X92498000Y-163346988D01*
X92498000Y-164149862D01*
X92539690Y-164141569D01*
X92539692Y-164141569D01*
X92721671Y-164066192D01*
X92721684Y-164066185D01*
X92885462Y-163956751D01*
X92885466Y-163956748D01*
X93024748Y-163817466D01*
X93024751Y-163817462D01*
X93134185Y-163653684D01*
X93134187Y-163653680D01*
X93168516Y-163570802D01*
X93212357Y-163516398D01*
X93278651Y-163494333D01*
X93346350Y-163511612D01*
X93368893Y-163529123D01*
X93370681Y-163530495D01*
X93370686Y-163530500D01*
X93484814Y-163596392D01*
X93612108Y-163630500D01*
X93612110Y-163630500D01*
X93743890Y-163630500D01*
X93743892Y-163630500D01*
X93871186Y-163596392D01*
X93985314Y-163530500D01*
X94078500Y-163437314D01*
X94144392Y-163323186D01*
X94178500Y-163195892D01*
X94178500Y-163064108D01*
X98957500Y-163064108D01*
X98957500Y-163195892D01*
X98974554Y-163259539D01*
X98991608Y-163323187D01*
X99015159Y-163363978D01*
X99057500Y-163437314D01*
X99150686Y-163530500D01*
X99264814Y-163596392D01*
X99392108Y-163630500D01*
X99392110Y-163630500D01*
X99523890Y-163630500D01*
X99523892Y-163630500D01*
X99651186Y-163596392D01*
X99765314Y-163530500D01*
X99765321Y-163530492D01*
X99771760Y-163525553D01*
X99772550Y-163526583D01*
X99826552Y-163497090D01*
X99896244Y-163502068D01*
X99952182Y-163543935D01*
X99967482Y-163570801D01*
X100001809Y-163653675D01*
X100001814Y-163653684D01*
X100111248Y-163817462D01*
X100111251Y-163817466D01*
X100250533Y-163956748D01*
X100250537Y-163956751D01*
X100414315Y-164066185D01*
X100414328Y-164066192D01*
X100596308Y-164141569D01*
X100638000Y-164149862D01*
X100638000Y-163346988D01*
X100647940Y-163364205D01*
X100703795Y-163420060D01*
X100772204Y-163459556D01*
X100848504Y-163480000D01*
X100927496Y-163480000D01*
X101003796Y-163459556D01*
X101072205Y-163420060D01*
X101128060Y-163364205D01*
X101138000Y-163346988D01*
X101138000Y-164149862D01*
X101179690Y-164141569D01*
X101179692Y-164141569D01*
X101361671Y-164066192D01*
X101361684Y-164066185D01*
X101525462Y-163956751D01*
X101525466Y-163956748D01*
X101664748Y-163817466D01*
X101664751Y-163817462D01*
X101774185Y-163653684D01*
X101774192Y-163653671D01*
X101849569Y-163471693D01*
X101849572Y-163471681D01*
X101887999Y-163278495D01*
X101888000Y-163278492D01*
X101888000Y-162880000D01*
X101188000Y-162880000D01*
X101188000Y-162380000D01*
X101888000Y-162380000D01*
X101888000Y-161981508D01*
X101887999Y-161981504D01*
X101849572Y-161788318D01*
X101849569Y-161788306D01*
X101774192Y-161606328D01*
X101774185Y-161606315D01*
X101664751Y-161442537D01*
X101664748Y-161442533D01*
X101525466Y-161303251D01*
X101525462Y-161303248D01*
X101361684Y-161193814D01*
X101361671Y-161193807D01*
X101179691Y-161118429D01*
X101179683Y-161118427D01*
X101138000Y-161110135D01*
X101138000Y-161913011D01*
X101128060Y-161895795D01*
X101072205Y-161839940D01*
X101003796Y-161800444D01*
X100927496Y-161780000D01*
X100848504Y-161780000D01*
X100772204Y-161800444D01*
X100703795Y-161839940D01*
X100647940Y-161895795D01*
X100638000Y-161913011D01*
X100638000Y-161110136D01*
X100637999Y-161110135D01*
X100596316Y-161118427D01*
X100596308Y-161118429D01*
X100414328Y-161193807D01*
X100414315Y-161193814D01*
X100250537Y-161303248D01*
X100250533Y-161303251D01*
X100111251Y-161442533D01*
X100111248Y-161442537D01*
X100001814Y-161606315D01*
X100001807Y-161606328D01*
X99926430Y-161788306D01*
X99926427Y-161788318D01*
X99888000Y-161981504D01*
X99888000Y-162380000D01*
X100588000Y-162380000D01*
X100588000Y-162880000D01*
X99963182Y-162880000D01*
X99896143Y-162860315D01*
X99865161Y-162827823D01*
X99863450Y-162829137D01*
X99858498Y-162822684D01*
X99765316Y-162729502D01*
X99765314Y-162729500D01*
X99708250Y-162696554D01*
X99651187Y-162663608D01*
X99587539Y-162646554D01*
X99523892Y-162629500D01*
X99392108Y-162629500D01*
X99264812Y-162663608D01*
X99150686Y-162729500D01*
X99150683Y-162729502D01*
X99057502Y-162822683D01*
X99057500Y-162822686D01*
X98991608Y-162936812D01*
X98986946Y-162954213D01*
X98957500Y-163064108D01*
X94178500Y-163064108D01*
X94144392Y-162936814D01*
X94141917Y-162932528D01*
X94111590Y-162880000D01*
X94078500Y-162822686D01*
X93985314Y-162729500D01*
X93928250Y-162696554D01*
X93871187Y-162663608D01*
X93807539Y-162646554D01*
X93743892Y-162629500D01*
X93612108Y-162629500D01*
X93484812Y-162663608D01*
X93370686Y-162729500D01*
X93370683Y-162729502D01*
X93277501Y-162822684D01*
X93272550Y-162829137D01*
X93270320Y-162827425D01*
X93229636Y-162866217D01*
X93172818Y-162880000D01*
X92548000Y-162880000D01*
X92548000Y-162380000D01*
X93248000Y-162380000D01*
X93248000Y-161981508D01*
X93247999Y-161981504D01*
X93209572Y-161788318D01*
X93209569Y-161788306D01*
X93134192Y-161606328D01*
X93134185Y-161606315D01*
X93024751Y-161442537D01*
X93024748Y-161442533D01*
X92885466Y-161303251D01*
X92885462Y-161303248D01*
X92721684Y-161193814D01*
X92721671Y-161193807D01*
X92539691Y-161118429D01*
X92539683Y-161118427D01*
X92498000Y-161110135D01*
X92498000Y-161913011D01*
X92488060Y-161895795D01*
X92432205Y-161839940D01*
X92363796Y-161800444D01*
X92287496Y-161780000D01*
X92208504Y-161780000D01*
X92132204Y-161800444D01*
X92063795Y-161839940D01*
X92007940Y-161895795D01*
X91998000Y-161913011D01*
X91998000Y-161110136D01*
X91997999Y-161110135D01*
X91956316Y-161118427D01*
X91956308Y-161118429D01*
X91774328Y-161193807D01*
X91774315Y-161193814D01*
X91610537Y-161303248D01*
X91610533Y-161303251D01*
X91471251Y-161442533D01*
X91471248Y-161442537D01*
X91361814Y-161606315D01*
X91361807Y-161606328D01*
X91286430Y-161788306D01*
X91286427Y-161788318D01*
X91248000Y-161981504D01*
X75544252Y-161981504D01*
X73986884Y-160424136D01*
X76115500Y-160424136D01*
X76115500Y-160631863D01*
X76156022Y-160835578D01*
X76156025Y-160835590D01*
X76235511Y-161027488D01*
X76235512Y-161027490D01*
X76350916Y-161200203D01*
X76350919Y-161200207D01*
X76497792Y-161347080D01*
X76497796Y-161347083D01*
X76670507Y-161462486D01*
X76670508Y-161462486D01*
X76670509Y-161462487D01*
X76670511Y-161462488D01*
X76755152Y-161497547D01*
X76862414Y-161541976D01*
X77066136Y-161582499D01*
X77066139Y-161582500D01*
X77066141Y-161582500D01*
X78381861Y-161582500D01*
X78381862Y-161582499D01*
X78585586Y-161541976D01*
X78777493Y-161462486D01*
X78950204Y-161347083D01*
X79097083Y-161200204D01*
X79212486Y-161027493D01*
X79291976Y-160835586D01*
X79332500Y-160631859D01*
X79332500Y-160424141D01*
X79332500Y-160424138D01*
X79332499Y-160424136D01*
X79326731Y-160395139D01*
X79291976Y-160220414D01*
X79232649Y-160077185D01*
X79212488Y-160028511D01*
X79212487Y-160028509D01*
X79097083Y-159855796D01*
X79097080Y-159855792D01*
X78950208Y-159708920D01*
X78950203Y-159708916D01*
X78815864Y-159619153D01*
X94243500Y-159619153D01*
X94243500Y-159776846D01*
X94274261Y-159931489D01*
X94274264Y-159931501D01*
X94334602Y-160077172D01*
X94334609Y-160077185D01*
X94422210Y-160208288D01*
X94422213Y-160208292D01*
X94533707Y-160319786D01*
X94533711Y-160319789D01*
X94664814Y-160407390D01*
X94664827Y-160407397D01*
X94738491Y-160437909D01*
X94810503Y-160467737D01*
X94965153Y-160498499D01*
X94965156Y-160498500D01*
X94965158Y-160498500D01*
X95122844Y-160498500D01*
X95122845Y-160498499D01*
X95277497Y-160467737D01*
X95423179Y-160407394D01*
X95554289Y-160319789D01*
X95665789Y-160208289D01*
X95753394Y-160077179D01*
X95813737Y-159931497D01*
X95840285Y-159798032D01*
X95844638Y-159776150D01*
X95877023Y-159714239D01*
X95878518Y-159712716D01*
X96526416Y-159064819D01*
X96587739Y-159031334D01*
X96614097Y-159028500D01*
X99036234Y-159028500D01*
X99103273Y-159048185D01*
X99105125Y-159049398D01*
X99236814Y-159137390D01*
X99236827Y-159137397D01*
X99358288Y-159187707D01*
X99382503Y-159197737D01*
X99537153Y-159228499D01*
X99537156Y-159228500D01*
X99537158Y-159228500D01*
X99694844Y-159228500D01*
X99694845Y-159228499D01*
X99849497Y-159197737D01*
X99995179Y-159137394D01*
X100126289Y-159049789D01*
X100237789Y-158938289D01*
X100325394Y-158807179D01*
X100385737Y-158661497D01*
X100416500Y-158506842D01*
X100416500Y-158349158D01*
X100416500Y-158349155D01*
X100416499Y-158349153D01*
X100385738Y-158194510D01*
X100385737Y-158194503D01*
X100329728Y-158059284D01*
X100325397Y-158048827D01*
X100325390Y-158048814D01*
X100237789Y-157917711D01*
X100237786Y-157917707D01*
X100126292Y-157806213D01*
X100126288Y-157806210D01*
X99995185Y-157718609D01*
X99995172Y-157718602D01*
X99849501Y-157658264D01*
X99849489Y-157658261D01*
X99694845Y-157627500D01*
X99694842Y-157627500D01*
X99537158Y-157627500D01*
X99537155Y-157627500D01*
X99382510Y-157658261D01*
X99382498Y-157658264D01*
X99236827Y-157718602D01*
X99236814Y-157718609D01*
X99105125Y-157806602D01*
X99038447Y-157827480D01*
X99036234Y-157827500D01*
X96393057Y-157827500D01*
X96234942Y-157827500D01*
X96082215Y-157868423D01*
X96082214Y-157868423D01*
X96082212Y-157868424D01*
X96082209Y-157868425D01*
X96032096Y-157897359D01*
X96032095Y-157897360D01*
X95996853Y-157917707D01*
X95945285Y-157947479D01*
X95945282Y-157947481D01*
X95029339Y-158863425D01*
X94968016Y-158896910D01*
X94965850Y-158897361D01*
X94810508Y-158928261D01*
X94810498Y-158928264D01*
X94664827Y-158988602D01*
X94664814Y-158988609D01*
X94533711Y-159076210D01*
X94533707Y-159076213D01*
X94422213Y-159187707D01*
X94422210Y-159187711D01*
X94334609Y-159318814D01*
X94334602Y-159318827D01*
X94274264Y-159464498D01*
X94274261Y-159464510D01*
X94243500Y-159619153D01*
X78815864Y-159619153D01*
X78777490Y-159593512D01*
X78777488Y-159593511D01*
X78585590Y-159514025D01*
X78585578Y-159514022D01*
X78381862Y-159473500D01*
X78381859Y-159473500D01*
X77066141Y-159473500D01*
X77066138Y-159473500D01*
X76862421Y-159514022D01*
X76862409Y-159514025D01*
X76670511Y-159593511D01*
X76670509Y-159593512D01*
X76497796Y-159708916D01*
X76497792Y-159708919D01*
X76350919Y-159855792D01*
X76350916Y-159855796D01*
X76235512Y-160028509D01*
X76235511Y-160028511D01*
X76156025Y-160220409D01*
X76156022Y-160220421D01*
X76115500Y-160424136D01*
X73986884Y-160424136D01*
X72434819Y-158872071D01*
X72401334Y-158810748D01*
X72398500Y-158784390D01*
X72398500Y-157456020D01*
X72418185Y-157388981D01*
X72470989Y-157343226D01*
X72540147Y-157333282D01*
X72546670Y-157334399D01*
X72608470Y-157346692D01*
X72642694Y-157353500D01*
X72642695Y-157353500D01*
X72805307Y-157353500D01*
X72912598Y-157332157D01*
X72964789Y-157321776D01*
X73115021Y-157259548D01*
X73115023Y-157259547D01*
X73204313Y-157199885D01*
X73250225Y-157169208D01*
X73365208Y-157054225D01*
X73455548Y-156919021D01*
X73517776Y-156768789D01*
X73527386Y-156720479D01*
X73549500Y-156609307D01*
X73549500Y-156446692D01*
X73527386Y-156335521D01*
X73517777Y-156287216D01*
X73517776Y-156287215D01*
X73517776Y-156287211D01*
X73513960Y-156277999D01*
X76145077Y-156277999D01*
X76145078Y-156278000D01*
X76957012Y-156278000D01*
X76939795Y-156287940D01*
X76883940Y-156343795D01*
X76844444Y-156412204D01*
X76824000Y-156488504D01*
X76824000Y-156567496D01*
X76844444Y-156643796D01*
X76883940Y-156712205D01*
X76939795Y-156768060D01*
X76957012Y-156778000D01*
X76145078Y-156778000D01*
X76156502Y-156835435D01*
X76156504Y-156835441D01*
X76235955Y-157027252D01*
X76235960Y-157027262D01*
X76351304Y-157199885D01*
X76351307Y-157199889D01*
X76498110Y-157346692D01*
X76498114Y-157346695D01*
X76670737Y-157462039D01*
X76670747Y-157462044D01*
X76862558Y-157541495D01*
X76862566Y-157541497D01*
X77066185Y-157581999D01*
X77066189Y-157582000D01*
X77474000Y-157582000D01*
X77474000Y-156828000D01*
X77974000Y-156828000D01*
X77974000Y-157582000D01*
X78381811Y-157582000D01*
X78381814Y-157581999D01*
X78585433Y-157541497D01*
X78585441Y-157541495D01*
X78777252Y-157462044D01*
X78777262Y-157462039D01*
X78949885Y-157346695D01*
X78949889Y-157346692D01*
X79096692Y-157199889D01*
X79096695Y-157199885D01*
X79212039Y-157027262D01*
X79212044Y-157027252D01*
X79291495Y-156835441D01*
X79291497Y-156835435D01*
X79302922Y-156778000D01*
X78490988Y-156778000D01*
X78508205Y-156768060D01*
X78564060Y-156712205D01*
X78603556Y-156643796D01*
X78624000Y-156567496D01*
X78624000Y-156488504D01*
X78603556Y-156412204D01*
X78564060Y-156343795D01*
X78508205Y-156287940D01*
X78490988Y-156278000D01*
X79302922Y-156278000D01*
X79302922Y-156277999D01*
X79291497Y-156220564D01*
X79291495Y-156220558D01*
X79212044Y-156028747D01*
X79212039Y-156028737D01*
X79096695Y-155856114D01*
X79096692Y-155856110D01*
X78949889Y-155709307D01*
X78949885Y-155709304D01*
X78777262Y-155593960D01*
X78777252Y-155593955D01*
X78585441Y-155514504D01*
X78585433Y-155514502D01*
X78381814Y-155474000D01*
X77974000Y-155474000D01*
X77974000Y-156228000D01*
X77474000Y-156228000D01*
X77474000Y-155474000D01*
X77066185Y-155474000D01*
X76862566Y-155514502D01*
X76862558Y-155514504D01*
X76670747Y-155593955D01*
X76670737Y-155593960D01*
X76498114Y-155709304D01*
X76498110Y-155709307D01*
X76351307Y-155856110D01*
X76351304Y-155856114D01*
X76235960Y-156028737D01*
X76235955Y-156028747D01*
X76156504Y-156220558D01*
X76156502Y-156220564D01*
X76145077Y-156277999D01*
X73513960Y-156277999D01*
X73490170Y-156220564D01*
X73455549Y-156136980D01*
X73455547Y-156136976D01*
X73365211Y-156001779D01*
X73365205Y-156001771D01*
X73250228Y-155886794D01*
X73250220Y-155886788D01*
X73115023Y-155796452D01*
X73115019Y-155796450D01*
X72964793Y-155734225D01*
X72964783Y-155734222D01*
X72805307Y-155702500D01*
X72805305Y-155702500D01*
X72642695Y-155702500D01*
X72642693Y-155702500D01*
X72546692Y-155721596D01*
X72477100Y-155715369D01*
X72421923Y-155672506D01*
X72398678Y-155606616D01*
X72398500Y-155599979D01*
X72398500Y-152777999D01*
X76145077Y-152777999D01*
X76145078Y-152778000D01*
X76957012Y-152778000D01*
X76939795Y-152787940D01*
X76883940Y-152843795D01*
X76844444Y-152912204D01*
X76824000Y-152988504D01*
X76824000Y-153067496D01*
X76844444Y-153143796D01*
X76883940Y-153212205D01*
X76939795Y-153268060D01*
X76957012Y-153278000D01*
X76145078Y-153278000D01*
X76156502Y-153335435D01*
X76156504Y-153335441D01*
X76235955Y-153527252D01*
X76235960Y-153527262D01*
X76351304Y-153699885D01*
X76351307Y-153699889D01*
X76498110Y-153846692D01*
X76498114Y-153846695D01*
X76670737Y-153962039D01*
X76670747Y-153962044D01*
X76862558Y-154041495D01*
X76862566Y-154041497D01*
X77066185Y-154081999D01*
X77066189Y-154082000D01*
X77474000Y-154082000D01*
X77474000Y-153328000D01*
X77974000Y-153328000D01*
X77974000Y-154082000D01*
X78381811Y-154082000D01*
X78381814Y-154081999D01*
X78585433Y-154041497D01*
X78585441Y-154041495D01*
X78777252Y-153962044D01*
X78777262Y-153962039D01*
X78949885Y-153846695D01*
X78949889Y-153846692D01*
X79096692Y-153699889D01*
X79096695Y-153699885D01*
X79212039Y-153527262D01*
X79212044Y-153527252D01*
X79291495Y-153335441D01*
X79291497Y-153335435D01*
X79302922Y-153278000D01*
X78490988Y-153278000D01*
X78508205Y-153268060D01*
X78564060Y-153212205D01*
X78603556Y-153143796D01*
X78624000Y-153067496D01*
X78624000Y-152988504D01*
X78603556Y-152912204D01*
X78564060Y-152843795D01*
X78508205Y-152787940D01*
X78490988Y-152778000D01*
X79302922Y-152778000D01*
X79302922Y-152777999D01*
X79291497Y-152720564D01*
X79291495Y-152720558D01*
X79212044Y-152528747D01*
X79212039Y-152528737D01*
X79096695Y-152356114D01*
X79096692Y-152356110D01*
X78949889Y-152209307D01*
X78949885Y-152209304D01*
X78777262Y-152093960D01*
X78777252Y-152093955D01*
X78585441Y-152014504D01*
X78585433Y-152014502D01*
X78381814Y-151974000D01*
X77974000Y-151974000D01*
X77974000Y-152728000D01*
X77474000Y-152728000D01*
X77474000Y-151974000D01*
X77066185Y-151974000D01*
X76862566Y-152014502D01*
X76862558Y-152014504D01*
X76670747Y-152093955D01*
X76670737Y-152093960D01*
X76498114Y-152209304D01*
X76498110Y-152209307D01*
X76351307Y-152356110D01*
X76351304Y-152356114D01*
X76235960Y-152528737D01*
X76235955Y-152528747D01*
X76156504Y-152720558D01*
X76156502Y-152720564D01*
X76145077Y-152777999D01*
X72398500Y-152777999D01*
X72398500Y-150289153D01*
X81495500Y-150289153D01*
X81495500Y-150446846D01*
X81526261Y-150601489D01*
X81526264Y-150601501D01*
X81586602Y-150747172D01*
X81586609Y-150747185D01*
X81674210Y-150878288D01*
X81674213Y-150878292D01*
X81785707Y-150989786D01*
X81785711Y-150989789D01*
X81916814Y-151077390D01*
X81916827Y-151077397D01*
X82053481Y-151134000D01*
X82062503Y-151137737D01*
X82217153Y-151168499D01*
X82217156Y-151168500D01*
X82217158Y-151168500D01*
X82374844Y-151168500D01*
X82374845Y-151168499D01*
X82529497Y-151137737D01*
X82675179Y-151077394D01*
X82675779Y-151076993D01*
X82806875Y-150989398D01*
X82873553Y-150968520D01*
X82875766Y-150968500D01*
X83733331Y-150968500D01*
X83733347Y-150968501D01*
X83740943Y-150968501D01*
X83899054Y-150968501D01*
X83899057Y-150968501D01*
X84051785Y-150927577D01*
X84101904Y-150898639D01*
X84188716Y-150848520D01*
X84300520Y-150736716D01*
X84300520Y-150736714D01*
X84310728Y-150726507D01*
X84310730Y-150726504D01*
X84686506Y-150350728D01*
X84686511Y-150350724D01*
X84696714Y-150340520D01*
X84696716Y-150340520D01*
X84808520Y-150228716D01*
X84887577Y-150091784D01*
X84928500Y-149939057D01*
X84928500Y-145716943D01*
X84887577Y-145564216D01*
X84862916Y-145521501D01*
X84808524Y-145427290D01*
X84808521Y-145427286D01*
X84808520Y-145427284D01*
X84696716Y-145315480D01*
X84696715Y-145315479D01*
X84692385Y-145311149D01*
X84692374Y-145311139D01*
X84654574Y-145273339D01*
X84621089Y-145212016D01*
X84620638Y-145209849D01*
X84589738Y-145054510D01*
X84589737Y-145054503D01*
X84583328Y-145039029D01*
X84529397Y-144908827D01*
X84529390Y-144908814D01*
X84441789Y-144777711D01*
X84441786Y-144777707D01*
X84330292Y-144666213D01*
X84330288Y-144666210D01*
X84199185Y-144578609D01*
X84199172Y-144578602D01*
X84053501Y-144518264D01*
X84053489Y-144518261D01*
X83898845Y-144487500D01*
X83898842Y-144487500D01*
X83741158Y-144487500D01*
X83741155Y-144487500D01*
X83586510Y-144518261D01*
X83586498Y-144518264D01*
X83440827Y-144578602D01*
X83440814Y-144578609D01*
X83309711Y-144666210D01*
X83309707Y-144666213D01*
X83198213Y-144777707D01*
X83198210Y-144777711D01*
X83110609Y-144908814D01*
X83110602Y-144908827D01*
X83050264Y-145054498D01*
X83050261Y-145054510D01*
X83019500Y-145209153D01*
X83019500Y-145366846D01*
X83050261Y-145521489D01*
X83050264Y-145521501D01*
X83110602Y-145667172D01*
X83110609Y-145667185D01*
X83198210Y-145798288D01*
X83198213Y-145798292D01*
X83309707Y-145909786D01*
X83309711Y-145909789D01*
X83440814Y-145997390D01*
X83440827Y-145997397D01*
X83508961Y-146025618D01*
X83586503Y-146057737D01*
X83627691Y-146065929D01*
X83689602Y-146098314D01*
X83724176Y-146159030D01*
X83727500Y-146187547D01*
X83727500Y-149559903D01*
X83707815Y-149626942D01*
X83691181Y-149647584D01*
X83607584Y-149731181D01*
X83546261Y-149764666D01*
X83519903Y-149767500D01*
X82875766Y-149767500D01*
X82808727Y-149747815D01*
X82806875Y-149746602D01*
X82675185Y-149658609D01*
X82675172Y-149658602D01*
X82529501Y-149598264D01*
X82529489Y-149598261D01*
X82374845Y-149567500D01*
X82374842Y-149567500D01*
X82217158Y-149567500D01*
X82217155Y-149567500D01*
X82062510Y-149598261D01*
X82062498Y-149598264D01*
X81916827Y-149658602D01*
X81916814Y-149658609D01*
X81785711Y-149746210D01*
X81785707Y-149746213D01*
X81674213Y-149857707D01*
X81674210Y-149857711D01*
X81586609Y-149988814D01*
X81586602Y-149988827D01*
X81526264Y-150134498D01*
X81526261Y-150134510D01*
X81495500Y-150289153D01*
X72398500Y-150289153D01*
X72398500Y-145534499D01*
X72418185Y-145467460D01*
X72470989Y-145421705D01*
X72522500Y-145410499D01*
X72795871Y-145410499D01*
X72795872Y-145410499D01*
X72855483Y-145404091D01*
X72990331Y-145353796D01*
X73105546Y-145267546D01*
X73191796Y-145152331D01*
X73242091Y-145017483D01*
X73248500Y-144957873D01*
X73248499Y-143554128D01*
X73242091Y-143494517D01*
X73228095Y-143456993D01*
X73191797Y-143359671D01*
X73191793Y-143359664D01*
X73105547Y-143244455D01*
X73105544Y-143244452D01*
X72990335Y-143158206D01*
X72990328Y-143158202D01*
X72855482Y-143107908D01*
X72855483Y-143107908D01*
X72795883Y-143101501D01*
X72795881Y-143101500D01*
X72795873Y-143101500D01*
X72795865Y-143101500D01*
X72637308Y-143101500D01*
X72570269Y-143081815D01*
X72549627Y-143065181D01*
X72140447Y-142656000D01*
X72146661Y-142656000D01*
X72248394Y-142628741D01*
X72339606Y-142576080D01*
X72414080Y-142501606D01*
X72466741Y-142410394D01*
X72494000Y-142308661D01*
X72494000Y-142302446D01*
X73068949Y-142877395D01*
X73080986Y-142860831D01*
X73163451Y-142698984D01*
X73219584Y-142526225D01*
X73248000Y-142346821D01*
X73248000Y-142165178D01*
X73219584Y-141985774D01*
X73163450Y-141813012D01*
X73080993Y-141651179D01*
X73080985Y-141651165D01*
X73068950Y-141634603D01*
X73068949Y-141634602D01*
X72494000Y-142209552D01*
X72494000Y-142203339D01*
X72466741Y-142101606D01*
X72414080Y-142010394D01*
X72339606Y-141935920D01*
X72248394Y-141883259D01*
X72146661Y-141856000D01*
X72140447Y-141856000D01*
X72715396Y-141281049D01*
X72715395Y-141281048D01*
X72698834Y-141269014D01*
X72698830Y-141269012D01*
X72536984Y-141186548D01*
X72364225Y-141130415D01*
X72184821Y-141102000D01*
X72003179Y-141102000D01*
X71823774Y-141130415D01*
X71651015Y-141186548D01*
X71489170Y-141269012D01*
X71489161Y-141269018D01*
X71472603Y-141281048D01*
X71472602Y-141281049D01*
X72047554Y-141856000D01*
X72041339Y-141856000D01*
X71939606Y-141883259D01*
X71848394Y-141935920D01*
X71773920Y-142010394D01*
X71721259Y-142101606D01*
X71694000Y-142203339D01*
X71694000Y-142209553D01*
X71119049Y-141634602D01*
X71119048Y-141634603D01*
X71107018Y-141651161D01*
X71107012Y-141651170D01*
X71024548Y-141813015D01*
X70968415Y-141985774D01*
X70940000Y-142165178D01*
X70940000Y-142346821D01*
X70968415Y-142526225D01*
X71024548Y-142698984D01*
X71107012Y-142860830D01*
X71107014Y-142860834D01*
X71119048Y-142877395D01*
X71119049Y-142877396D01*
X71694000Y-142302445D01*
X71694000Y-142308661D01*
X71721259Y-142410394D01*
X71773920Y-142501606D01*
X71848394Y-142576080D01*
X71939606Y-142628741D01*
X72041339Y-142656000D01*
X72047554Y-142656000D01*
X71638371Y-143065181D01*
X71577048Y-143098666D01*
X71550691Y-143101500D01*
X71392130Y-143101500D01*
X71392123Y-143101501D01*
X71332516Y-143107908D01*
X71197671Y-143158202D01*
X71197664Y-143158206D01*
X71082455Y-143244452D01*
X71082452Y-143244455D01*
X70996206Y-143359664D01*
X70996202Y-143359671D01*
X70945908Y-143494517D01*
X70939501Y-143554116D01*
X70939501Y-143554123D01*
X70939500Y-143554135D01*
X70939500Y-144166389D01*
X70919815Y-144233428D01*
X70903187Y-144254064D01*
X70899991Y-144257259D01*
X70899985Y-144257267D01*
X70807691Y-144395393D01*
X70807684Y-144395406D01*
X70744112Y-144548884D01*
X70744109Y-144548896D01*
X70711700Y-144711827D01*
X68580000Y-144711827D01*
X68580000Y-139113153D01*
X83527500Y-139113153D01*
X83527500Y-139270846D01*
X83558261Y-139425489D01*
X83558264Y-139425501D01*
X83618602Y-139571171D01*
X83618609Y-139571184D01*
X83658650Y-139631109D01*
X83679528Y-139697787D01*
X83661043Y-139765167D01*
X83658650Y-139768891D01*
X83618609Y-139828815D01*
X83618602Y-139828828D01*
X83558264Y-139974498D01*
X83558261Y-139974510D01*
X83527500Y-140129153D01*
X83527500Y-140286846D01*
X83558261Y-140441489D01*
X83558264Y-140441501D01*
X83618602Y-140587172D01*
X83618609Y-140587185D01*
X83706210Y-140718288D01*
X83706213Y-140718292D01*
X83817707Y-140829786D01*
X83817711Y-140829789D01*
X83948814Y-140917390D01*
X83948827Y-140917397D01*
X84094498Y-140977735D01*
X84094503Y-140977737D01*
X84249153Y-141008499D01*
X84249156Y-141008500D01*
X84249158Y-141008500D01*
X84406844Y-141008500D01*
X84406845Y-141008499D01*
X84561497Y-140977737D01*
X84707179Y-140917394D01*
X84838289Y-140829789D01*
X84838288Y-140829789D01*
X84838873Y-140829399D01*
X84905550Y-140808521D01*
X84907764Y-140808501D01*
X84915054Y-140808501D01*
X84915057Y-140808501D01*
X85067785Y-140767577D01*
X85117904Y-140738639D01*
X85204716Y-140688520D01*
X85316520Y-140576716D01*
X85316521Y-140576713D01*
X85556417Y-140336816D01*
X85617739Y-140303334D01*
X85644097Y-140300500D01*
X99342903Y-140300500D01*
X99409942Y-140320185D01*
X99455697Y-140372989D01*
X99465641Y-140442147D01*
X99436616Y-140505703D01*
X99430584Y-140512181D01*
X98339584Y-141603181D01*
X98278261Y-141636666D01*
X98251903Y-141639500D01*
X84907766Y-141639500D01*
X84840727Y-141619815D01*
X84838875Y-141618602D01*
X84707185Y-141530609D01*
X84707172Y-141530602D01*
X84561501Y-141470264D01*
X84561489Y-141470261D01*
X84406845Y-141439500D01*
X84406842Y-141439500D01*
X84249158Y-141439500D01*
X84249155Y-141439500D01*
X84094510Y-141470261D01*
X84094498Y-141470264D01*
X83948827Y-141530602D01*
X83948814Y-141530609D01*
X83817711Y-141618210D01*
X83817707Y-141618213D01*
X83706213Y-141729707D01*
X83706210Y-141729711D01*
X83618609Y-141860814D01*
X83618602Y-141860827D01*
X83558264Y-142006498D01*
X83558261Y-142006510D01*
X83527500Y-142161153D01*
X83527500Y-142318846D01*
X83558261Y-142473489D01*
X83558264Y-142473501D01*
X83618602Y-142619172D01*
X83618609Y-142619185D01*
X83706210Y-142750288D01*
X83706213Y-142750292D01*
X83817707Y-142861786D01*
X83817711Y-142861789D01*
X83948814Y-142949390D01*
X83948827Y-142949397D01*
X84063113Y-142996735D01*
X84094503Y-143009737D01*
X84249153Y-143040499D01*
X84249156Y-143040500D01*
X84249158Y-143040500D01*
X84406844Y-143040500D01*
X84406845Y-143040499D01*
X84561497Y-143009737D01*
X84707179Y-142949394D01*
X84707185Y-142949390D01*
X84838875Y-142861398D01*
X84905553Y-142840520D01*
X84907766Y-142840500D01*
X98465331Y-142840500D01*
X98465347Y-142840501D01*
X98472943Y-142840501D01*
X98631054Y-142840501D01*
X98631057Y-142840501D01*
X98783785Y-142799577D01*
X98846272Y-142763500D01*
X98920716Y-142720520D01*
X99032520Y-142608716D01*
X99032520Y-142608714D01*
X99042724Y-142598511D01*
X99042728Y-142598506D01*
X105204821Y-136436412D01*
X105266142Y-136402929D01*
X105335834Y-136407913D01*
X105391767Y-136449785D01*
X105416184Y-136515249D01*
X105416500Y-136524095D01*
X105416500Y-137972870D01*
X105416501Y-137972876D01*
X105422908Y-138032483D01*
X105473202Y-138167328D01*
X105473206Y-138167335D01*
X105559452Y-138282544D01*
X105559455Y-138282547D01*
X105674664Y-138368793D01*
X105674671Y-138368797D01*
X105809517Y-138419091D01*
X105809516Y-138419091D01*
X105816444Y-138419835D01*
X105869127Y-138425500D01*
X107494872Y-138425499D01*
X107554483Y-138419091D01*
X107689331Y-138368796D01*
X107804546Y-138282546D01*
X107890796Y-138167331D01*
X107941091Y-138032483D01*
X107947500Y-137972873D01*
X107947499Y-137940430D01*
X107967182Y-137873394D01*
X108019984Y-137827638D01*
X108089143Y-137817693D01*
X108152699Y-137846716D01*
X108171817Y-137867545D01*
X108196694Y-137901785D01*
X108256731Y-137984418D01*
X108397582Y-138125269D01*
X108558734Y-138242353D01*
X108735304Y-138332320D01*
X108736219Y-138332786D01*
X108925657Y-138394338D01*
X108925658Y-138394338D01*
X108925661Y-138394339D01*
X109122403Y-138425500D01*
X109122404Y-138425500D01*
X109321596Y-138425500D01*
X109321597Y-138425500D01*
X109518339Y-138394339D01*
X109518342Y-138394338D01*
X109518343Y-138394338D01*
X109707780Y-138332786D01*
X109707780Y-138332785D01*
X109707783Y-138332785D01*
X109885266Y-138242353D01*
X110046418Y-138125269D01*
X110187269Y-137984418D01*
X110304353Y-137823266D01*
X110381515Y-137671827D01*
X110429490Y-137621031D01*
X110497311Y-137604236D01*
X110563446Y-137626773D01*
X110602485Y-137671827D01*
X110679647Y-137823266D01*
X110796731Y-137984418D01*
X110937582Y-138125269D01*
X111098734Y-138242353D01*
X111275304Y-138332320D01*
X111276219Y-138332786D01*
X111465657Y-138394338D01*
X111465658Y-138394338D01*
X111465661Y-138394339D01*
X111662403Y-138425500D01*
X111662404Y-138425500D01*
X111861596Y-138425500D01*
X111861597Y-138425500D01*
X112058339Y-138394339D01*
X112058342Y-138394338D01*
X112058343Y-138394338D01*
X112247780Y-138332786D01*
X112247780Y-138332785D01*
X112247783Y-138332785D01*
X112425266Y-138242353D01*
X112586418Y-138125269D01*
X112727269Y-137984418D01*
X112844353Y-137823266D01*
X112921515Y-137671827D01*
X112969490Y-137621031D01*
X113037311Y-137604236D01*
X113103446Y-137626773D01*
X113142485Y-137671827D01*
X113219647Y-137823266D01*
X113336731Y-137984418D01*
X113477582Y-138125269D01*
X113638734Y-138242353D01*
X113638744Y-138242358D01*
X113642273Y-138244520D01*
X113689157Y-138296325D01*
X113701500Y-138350258D01*
X113701500Y-140921902D01*
X113681815Y-140988941D01*
X113665181Y-141009583D01*
X111279481Y-143395282D01*
X111279479Y-143395284D01*
X111270726Y-143410446D01*
X111249185Y-143447757D01*
X111200423Y-143532215D01*
X111159499Y-143684943D01*
X111159499Y-143684945D01*
X111159499Y-143853046D01*
X111159500Y-143853059D01*
X111159500Y-152328234D01*
X111139815Y-152395273D01*
X111138602Y-152397125D01*
X111050609Y-152528814D01*
X111050602Y-152528827D01*
X110990264Y-152674498D01*
X110990261Y-152674510D01*
X110959500Y-152829153D01*
X110959500Y-152916847D01*
X110939815Y-152983886D01*
X110887011Y-153029641D01*
X110882959Y-153031406D01*
X110872821Y-153035605D01*
X110872818Y-153035607D01*
X110741715Y-153123207D01*
X110741707Y-153123213D01*
X110630213Y-153234707D01*
X110630210Y-153234711D01*
X110542609Y-153365814D01*
X110542602Y-153365827D01*
X110482264Y-153511498D01*
X110482261Y-153511510D01*
X110451500Y-153666153D01*
X110451500Y-153823846D01*
X110482261Y-153978489D01*
X110482264Y-153978501D01*
X110542602Y-154124172D01*
X110542609Y-154124185D01*
X110630210Y-154255288D01*
X110630213Y-154255292D01*
X110741707Y-154366786D01*
X110741711Y-154366789D01*
X110872814Y-154454390D01*
X110872827Y-154454397D01*
X111018498Y-154514735D01*
X111018503Y-154514737D01*
X111173153Y-154545499D01*
X111173156Y-154545500D01*
X111173158Y-154545500D01*
X111330844Y-154545500D01*
X111330845Y-154545499D01*
X111485497Y-154514737D01*
X111631179Y-154454394D01*
X111631185Y-154454390D01*
X111762875Y-154366398D01*
X111829553Y-154345520D01*
X111831766Y-154345500D01*
X113376331Y-154345500D01*
X113376347Y-154345501D01*
X113383943Y-154345501D01*
X113542054Y-154345501D01*
X113542057Y-154345501D01*
X113694785Y-154304577D01*
X113744904Y-154275639D01*
X113831716Y-154225520D01*
X113943520Y-154113716D01*
X113943520Y-154113714D01*
X113953728Y-154103507D01*
X113953730Y-154103504D01*
X114150506Y-153906728D01*
X114150511Y-153906724D01*
X114160714Y-153896520D01*
X114160716Y-153896520D01*
X114272520Y-153784716D01*
X114276195Y-153778349D01*
X114341092Y-153665946D01*
X114341093Y-153665943D01*
X114351577Y-153647785D01*
X114392500Y-153495058D01*
X114392500Y-153336943D01*
X114392500Y-144572096D01*
X114412185Y-144505057D01*
X114428814Y-144484420D01*
X117200506Y-141712727D01*
X117200511Y-141712724D01*
X117210714Y-141702520D01*
X117210716Y-141702520D01*
X117322520Y-141590716D01*
X117401577Y-141453784D01*
X117442500Y-141301057D01*
X117442500Y-138350258D01*
X117462185Y-138283219D01*
X117501727Y-138244520D01*
X117505249Y-138242361D01*
X117505266Y-138242353D01*
X117666418Y-138125269D01*
X117807269Y-137984418D01*
X117924353Y-137823266D01*
X118001515Y-137671827D01*
X118049490Y-137621031D01*
X118117311Y-137604236D01*
X118183446Y-137626773D01*
X118222485Y-137671827D01*
X118299647Y-137823266D01*
X118416731Y-137984418D01*
X118557582Y-138125269D01*
X118718734Y-138242353D01*
X118718744Y-138242358D01*
X118722273Y-138244520D01*
X118769157Y-138296325D01*
X118781500Y-138350258D01*
X118781500Y-140921902D01*
X118761815Y-140988941D01*
X118745181Y-141009583D01*
X117375481Y-142379282D01*
X117375479Y-142379285D01*
X117336528Y-142446752D01*
X117336527Y-142446753D01*
X117296423Y-142516214D01*
X117296423Y-142516215D01*
X117255499Y-142668943D01*
X117255499Y-142668945D01*
X117255499Y-142837046D01*
X117255500Y-142837059D01*
X117255500Y-155655903D01*
X117235815Y-155722942D01*
X117219181Y-155743584D01*
X110221339Y-162741425D01*
X110160016Y-162774910D01*
X110157850Y-162775361D01*
X110002508Y-162806261D01*
X110002498Y-162806264D01*
X109856827Y-162866602D01*
X109856814Y-162866609D01*
X109725711Y-162954210D01*
X109725707Y-162954213D01*
X109614213Y-163065707D01*
X109614210Y-163065711D01*
X109526609Y-163196814D01*
X109526602Y-163196827D01*
X109466264Y-163342498D01*
X109466261Y-163342510D01*
X109435500Y-163497153D01*
X109435500Y-163654846D01*
X109466261Y-163809489D01*
X109466264Y-163809501D01*
X109526602Y-163955172D01*
X109526609Y-163955185D01*
X109614210Y-164086288D01*
X109614213Y-164086292D01*
X109725707Y-164197786D01*
X109725711Y-164197789D01*
X109856814Y-164285390D01*
X109856827Y-164285397D01*
X110002498Y-164345735D01*
X110002503Y-164345737D01*
X110157153Y-164376499D01*
X110157156Y-164376500D01*
X110157158Y-164376500D01*
X110314844Y-164376500D01*
X110314845Y-164376499D01*
X110469497Y-164345737D01*
X110615179Y-164285394D01*
X110746289Y-164197789D01*
X110857789Y-164086289D01*
X110945394Y-163955179D01*
X111005737Y-163809497D01*
X111025113Y-163712085D01*
X111036638Y-163654150D01*
X111069023Y-163592239D01*
X111070518Y-163590716D01*
X118214506Y-156446727D01*
X118214511Y-156446724D01*
X118224714Y-156436520D01*
X118224716Y-156436520D01*
X118336520Y-156324716D01*
X118415577Y-156187784D01*
X118456500Y-156035057D01*
X118456500Y-143048096D01*
X118476185Y-142981057D01*
X118492814Y-142960420D01*
X119740506Y-141712727D01*
X119740511Y-141712724D01*
X119750714Y-141702520D01*
X119750716Y-141702520D01*
X119862520Y-141590716D01*
X119897223Y-141530609D01*
X119932062Y-141470266D01*
X119932063Y-141470263D01*
X119932064Y-141470261D01*
X119941577Y-141453785D01*
X119982501Y-141301057D01*
X119982501Y-141142943D01*
X119982501Y-141142942D01*
X119982501Y-141135348D01*
X119982500Y-141135330D01*
X119982500Y-138350258D01*
X120002185Y-138283219D01*
X120041727Y-138244520D01*
X120045249Y-138242361D01*
X120045266Y-138242353D01*
X120206418Y-138125269D01*
X120347269Y-137984418D01*
X120464353Y-137823266D01*
X120541515Y-137671827D01*
X120589490Y-137621031D01*
X120657311Y-137604236D01*
X120723446Y-137626773D01*
X120762485Y-137671827D01*
X120839647Y-137823266D01*
X120956731Y-137984418D01*
X121097582Y-138125269D01*
X121258144Y-138241924D01*
X121258734Y-138242353D01*
X121260275Y-138243297D01*
X121260738Y-138243809D01*
X121262676Y-138245217D01*
X121262380Y-138245623D01*
X121307158Y-138295102D01*
X121319500Y-138349033D01*
X121319500Y-150575903D01*
X121299815Y-150642942D01*
X121283181Y-150663584D01*
X120381339Y-151565425D01*
X120320016Y-151598910D01*
X120317850Y-151599361D01*
X120162508Y-151630261D01*
X120162498Y-151630264D01*
X120016827Y-151690602D01*
X120016814Y-151690609D01*
X119885711Y-151778210D01*
X119885707Y-151778213D01*
X119774213Y-151889707D01*
X119774210Y-151889711D01*
X119686609Y-152020814D01*
X119686602Y-152020827D01*
X119626264Y-152166498D01*
X119626261Y-152166510D01*
X119595500Y-152321153D01*
X119595500Y-152478846D01*
X119626261Y-152633489D01*
X119626264Y-152633501D01*
X119686602Y-152779172D01*
X119686609Y-152779185D01*
X119774210Y-152910288D01*
X119774213Y-152910292D01*
X119885707Y-153021786D01*
X119885711Y-153021789D01*
X120016814Y-153109390D01*
X120016827Y-153109397D01*
X120162498Y-153169735D01*
X120162503Y-153169737D01*
X120317153Y-153200499D01*
X120317156Y-153200500D01*
X120317158Y-153200500D01*
X120474844Y-153200500D01*
X120474845Y-153200499D01*
X120629497Y-153169737D01*
X120775179Y-153109394D01*
X120906289Y-153021789D01*
X121017789Y-152910289D01*
X121105394Y-152779179D01*
X121165737Y-152633497D01*
X121186557Y-152528827D01*
X121196638Y-152478150D01*
X121229023Y-152416239D01*
X121230520Y-152414714D01*
X122278506Y-151366727D01*
X122278511Y-151366724D01*
X122288714Y-151356520D01*
X122288716Y-151356520D01*
X122400520Y-151244716D01*
X122479577Y-151107784D01*
X122520500Y-150955057D01*
X122520500Y-138351339D01*
X122540185Y-138284300D01*
X122582060Y-138246431D01*
X122581118Y-138244894D01*
X122585251Y-138242360D01*
X122585266Y-138242353D01*
X122746418Y-138125269D01*
X122887269Y-137984418D01*
X123004353Y-137823266D01*
X123081515Y-137671827D01*
X123129490Y-137621031D01*
X123197311Y-137604236D01*
X123263446Y-137626773D01*
X123302485Y-137671827D01*
X123379647Y-137823266D01*
X123496731Y-137984418D01*
X123637582Y-138125269D01*
X123798144Y-138241924D01*
X123798734Y-138242353D01*
X123800275Y-138243297D01*
X123800738Y-138243809D01*
X123802676Y-138245217D01*
X123802380Y-138245623D01*
X123847158Y-138295102D01*
X123859500Y-138349033D01*
X123859500Y-152607903D01*
X123839815Y-152674942D01*
X123823181Y-152695584D01*
X113777339Y-162741425D01*
X113716016Y-162774910D01*
X113713850Y-162775361D01*
X113558508Y-162806261D01*
X113558498Y-162806264D01*
X113412827Y-162866602D01*
X113412814Y-162866609D01*
X113281711Y-162954210D01*
X113281707Y-162954213D01*
X113170213Y-163065707D01*
X113170210Y-163065711D01*
X113082609Y-163196814D01*
X113082602Y-163196827D01*
X113022264Y-163342498D01*
X113022261Y-163342510D01*
X112991500Y-163497153D01*
X112991500Y-163654846D01*
X113022261Y-163809489D01*
X113022264Y-163809501D01*
X113082602Y-163955172D01*
X113082609Y-163955185D01*
X113170210Y-164086288D01*
X113170213Y-164086292D01*
X113281707Y-164197786D01*
X113281711Y-164197789D01*
X113412814Y-164285390D01*
X113412827Y-164285397D01*
X113558498Y-164345735D01*
X113558503Y-164345737D01*
X113713153Y-164376499D01*
X113713156Y-164376500D01*
X113713158Y-164376500D01*
X113870844Y-164376500D01*
X113870845Y-164376499D01*
X114025497Y-164345737D01*
X114171179Y-164285394D01*
X114302289Y-164197789D01*
X114413789Y-164086289D01*
X114501394Y-163955179D01*
X114561737Y-163809497D01*
X114581113Y-163712085D01*
X114592638Y-163654150D01*
X114625023Y-163592239D01*
X114626518Y-163590716D01*
X124818506Y-153398727D01*
X124818511Y-153398724D01*
X124828714Y-153388520D01*
X124828716Y-153388520D01*
X124940520Y-153276716D01*
X125002978Y-153168535D01*
X125019577Y-153139785D01*
X125060500Y-152987058D01*
X125060500Y-152828943D01*
X125060500Y-138351339D01*
X125080185Y-138284300D01*
X125122060Y-138246431D01*
X125121118Y-138244894D01*
X125125251Y-138242360D01*
X125125266Y-138242353D01*
X125286418Y-138125269D01*
X125427269Y-137984418D01*
X125544353Y-137823266D01*
X125621515Y-137671827D01*
X125669490Y-137621031D01*
X125737311Y-137604236D01*
X125803446Y-137626773D01*
X125842485Y-137671827D01*
X125919647Y-137823266D01*
X126036731Y-137984418D01*
X126177582Y-138125269D01*
X126338734Y-138242353D01*
X126338744Y-138242358D01*
X126342273Y-138244520D01*
X126389157Y-138296325D01*
X126401500Y-138350258D01*
X126401500Y-140921902D01*
X126381815Y-140988941D01*
X126365181Y-141009583D01*
X125503481Y-141871282D01*
X125503480Y-141871284D01*
X125468002Y-141932735D01*
X125453361Y-141958094D01*
X125453359Y-141958096D01*
X125424425Y-142008209D01*
X125424424Y-142008210D01*
X125424423Y-142008215D01*
X125383499Y-142160943D01*
X125383499Y-142160945D01*
X125383499Y-142329046D01*
X125383500Y-142329059D01*
X125383500Y-160964234D01*
X125363815Y-161031273D01*
X125362602Y-161033125D01*
X125274609Y-161164814D01*
X125274602Y-161164827D01*
X125214264Y-161310498D01*
X125214261Y-161310510D01*
X125183500Y-161465153D01*
X125183500Y-161622846D01*
X125214261Y-161777489D01*
X125214264Y-161777501D01*
X125274602Y-161923172D01*
X125274609Y-161923185D01*
X125362210Y-162054288D01*
X125362213Y-162054292D01*
X125473710Y-162165789D01*
X125578605Y-162235877D01*
X125623410Y-162289489D01*
X125632117Y-162358814D01*
X125612817Y-162407869D01*
X125568294Y-162474502D01*
X125568288Y-162474513D01*
X125507950Y-162620184D01*
X125507947Y-162620196D01*
X125477186Y-162774839D01*
X125477186Y-162932532D01*
X125507947Y-163087175D01*
X125507950Y-163087187D01*
X125568288Y-163232858D01*
X125568295Y-163232871D01*
X125655896Y-163363974D01*
X125655899Y-163363978D01*
X125767393Y-163475472D01*
X125767397Y-163475475D01*
X125898500Y-163563076D01*
X125898513Y-163563083D01*
X126001247Y-163605636D01*
X126044189Y-163623423D01*
X126196255Y-163653671D01*
X126198839Y-163654185D01*
X126198842Y-163654186D01*
X126198844Y-163654186D01*
X126356530Y-163654186D01*
X126356531Y-163654185D01*
X126511183Y-163623423D01*
X126656865Y-163563080D01*
X126787975Y-163475475D01*
X126899475Y-163363975D01*
X126987080Y-163232865D01*
X127047423Y-163087183D01*
X127078186Y-162932528D01*
X127078186Y-162932526D01*
X127078323Y-162931838D01*
X127110707Y-162869927D01*
X127112229Y-162868378D01*
X127138499Y-162842109D01*
X127217556Y-162705177D01*
X127258480Y-162552450D01*
X127258480Y-162394335D01*
X127258480Y-162386740D01*
X127258479Y-162386722D01*
X127258479Y-144406118D01*
X127278164Y-144339079D01*
X127294798Y-144318437D01*
X128632178Y-142981057D01*
X130022520Y-141590716D01*
X130101577Y-141453784D01*
X130142501Y-141301057D01*
X130142501Y-141142942D01*
X130142501Y-141135339D01*
X130142500Y-141135329D01*
X130142500Y-138350258D01*
X130162185Y-138283219D01*
X130201727Y-138244520D01*
X130205249Y-138242361D01*
X130205266Y-138242353D01*
X130366418Y-138125269D01*
X130507269Y-137984418D01*
X130624353Y-137823266D01*
X130701515Y-137671827D01*
X130749490Y-137621031D01*
X130817311Y-137604236D01*
X130883446Y-137626773D01*
X130922485Y-137671827D01*
X130999647Y-137823266D01*
X131116731Y-137984418D01*
X131257582Y-138125269D01*
X131418734Y-138242353D01*
X131418744Y-138242358D01*
X131422273Y-138244520D01*
X131469157Y-138296325D01*
X131481500Y-138350258D01*
X131481500Y-140921901D01*
X131461815Y-140988940D01*
X131445181Y-141009582D01*
X131244214Y-141210548D01*
X131244215Y-141210549D01*
X131139478Y-141315286D01*
X131089361Y-141402094D01*
X131089359Y-141402096D01*
X131060425Y-141452209D01*
X131060424Y-141452210D01*
X131055586Y-141470266D01*
X131019499Y-141604943D01*
X131019499Y-141604945D01*
X131019499Y-141773046D01*
X131019500Y-141773059D01*
X131019500Y-159432067D01*
X130999815Y-159499106D01*
X130968385Y-159532385D01*
X130877194Y-159598639D01*
X130811388Y-159622119D01*
X130743334Y-159606293D01*
X130705043Y-159572632D01*
X130631547Y-159474455D01*
X130631544Y-159474452D01*
X130516335Y-159388206D01*
X130516328Y-159388202D01*
X130381482Y-159337908D01*
X130381483Y-159337908D01*
X130321883Y-159331501D01*
X130321881Y-159331500D01*
X130321873Y-159331500D01*
X130321864Y-159331500D01*
X128918129Y-159331500D01*
X128918123Y-159331501D01*
X128858516Y-159337908D01*
X128723671Y-159388202D01*
X128723664Y-159388206D01*
X128608455Y-159474452D01*
X128608452Y-159474455D01*
X128522206Y-159589664D01*
X128522202Y-159589671D01*
X128471908Y-159724517D01*
X128465501Y-159784116D01*
X128465500Y-159784135D01*
X128465500Y-161187870D01*
X128465501Y-161187876D01*
X128471908Y-161247483D01*
X128522202Y-161382328D01*
X128522206Y-161382335D01*
X128608452Y-161497544D01*
X128608455Y-161497547D01*
X128723664Y-161583793D01*
X128723671Y-161583797D01*
X128858517Y-161634091D01*
X128858516Y-161634091D01*
X128865444Y-161634835D01*
X128918127Y-161640500D01*
X130321872Y-161640499D01*
X130381483Y-161634091D01*
X130516331Y-161583796D01*
X130631546Y-161497546D01*
X130705043Y-161399365D01*
X130760976Y-161357496D01*
X130830668Y-161352512D01*
X130877192Y-161373359D01*
X131014910Y-161473417D01*
X131176826Y-161555917D01*
X131176828Y-161555918D01*
X131262629Y-161583796D01*
X131349654Y-161612072D01*
X131529139Y-161640500D01*
X131529140Y-161640500D01*
X131710860Y-161640500D01*
X131710861Y-161640500D01*
X131890346Y-161612072D01*
X131890349Y-161612071D01*
X131890350Y-161612071D01*
X132063171Y-161555918D01*
X132063171Y-161555917D01*
X132063174Y-161555917D01*
X132225090Y-161473417D01*
X132372106Y-161366603D01*
X132500603Y-161238106D01*
X132519682Y-161211845D01*
X132575012Y-161169180D01*
X132644625Y-161163201D01*
X132706420Y-161195807D01*
X132720317Y-161211845D01*
X132739397Y-161238106D01*
X132867894Y-161366603D01*
X133014910Y-161473417D01*
X133176826Y-161555917D01*
X133176828Y-161555918D01*
X133262629Y-161583796D01*
X133349654Y-161612072D01*
X133529139Y-161640500D01*
X133529140Y-161640500D01*
X133710860Y-161640500D01*
X133710861Y-161640500D01*
X133890346Y-161612072D01*
X133890349Y-161612071D01*
X133890350Y-161612071D01*
X134063171Y-161555918D01*
X134063171Y-161555917D01*
X134063174Y-161555917D01*
X134225090Y-161473417D01*
X134372106Y-161366603D01*
X134500603Y-161238106D01*
X134519682Y-161211845D01*
X134575012Y-161169180D01*
X134644625Y-161163201D01*
X134706420Y-161195807D01*
X134720317Y-161211845D01*
X134739397Y-161238106D01*
X134867894Y-161366603D01*
X135014910Y-161473417D01*
X135176826Y-161555917D01*
X135176828Y-161555918D01*
X135262629Y-161583796D01*
X135349654Y-161612072D01*
X135529139Y-161640500D01*
X135529140Y-161640500D01*
X135710860Y-161640500D01*
X135710861Y-161640500D01*
X135890346Y-161612072D01*
X135890349Y-161612071D01*
X135890350Y-161612071D01*
X136063171Y-161555918D01*
X136063171Y-161555917D01*
X136063174Y-161555917D01*
X136225090Y-161473417D01*
X136372106Y-161366603D01*
X136500603Y-161238106D01*
X136519682Y-161211845D01*
X136575012Y-161169180D01*
X136644625Y-161163201D01*
X136706420Y-161195807D01*
X136720317Y-161211845D01*
X136739397Y-161238106D01*
X136867894Y-161366603D01*
X137014910Y-161473417D01*
X137176826Y-161555917D01*
X137176828Y-161555918D01*
X137262629Y-161583796D01*
X137349654Y-161612072D01*
X137529139Y-161640500D01*
X137529140Y-161640500D01*
X137710860Y-161640500D01*
X137710861Y-161640500D01*
X137890346Y-161612072D01*
X137890349Y-161612071D01*
X137890350Y-161612071D01*
X138063171Y-161555918D01*
X138063171Y-161555917D01*
X138063174Y-161555917D01*
X138225090Y-161473417D01*
X138372106Y-161366603D01*
X138500603Y-161238106D01*
X138560625Y-161155492D01*
X138564188Y-161151397D01*
X138589221Y-161135376D01*
X138612758Y-161117227D01*
X138619025Y-161116302D01*
X138623038Y-161113735D01*
X138636272Y-161113760D01*
X138639102Y-161113342D01*
X139220000Y-160532445D01*
X139220000Y-160538661D01*
X139247259Y-160640394D01*
X139299920Y-160731606D01*
X139374394Y-160806080D01*
X139465606Y-160858741D01*
X139567339Y-160886000D01*
X139573554Y-160886000D01*
X138998602Y-161460949D01*
X138998603Y-161460950D01*
X139015165Y-161472985D01*
X139015179Y-161472993D01*
X139177012Y-161555450D01*
X139349774Y-161611584D01*
X139529179Y-161640000D01*
X139710821Y-161640000D01*
X139890225Y-161611584D01*
X140062984Y-161555451D01*
X140181353Y-161495139D01*
X143657500Y-161495139D01*
X143657500Y-161676860D01*
X143685928Y-161856347D01*
X143685928Y-161856350D01*
X143742081Y-162029171D01*
X143742083Y-162029174D01*
X143824583Y-162191090D01*
X143931397Y-162338106D01*
X144059894Y-162466603D01*
X144206910Y-162573417D01*
X144368826Y-162655917D01*
X144368828Y-162655918D01*
X144454629Y-162683796D01*
X144541654Y-162712072D01*
X144721139Y-162740500D01*
X144721140Y-162740500D01*
X144902860Y-162740500D01*
X144902861Y-162740500D01*
X145082346Y-162712072D01*
X145082349Y-162712071D01*
X145082350Y-162712071D01*
X145255171Y-162655918D01*
X145255171Y-162655917D01*
X145255174Y-162655917D01*
X145417090Y-162573417D01*
X145564106Y-162466603D01*
X145692603Y-162338106D01*
X145711682Y-162311845D01*
X145767012Y-162269180D01*
X145836625Y-162263201D01*
X145898420Y-162295807D01*
X145912317Y-162311845D01*
X145931397Y-162338106D01*
X146059894Y-162466603D01*
X146206910Y-162573417D01*
X146368826Y-162655917D01*
X146368828Y-162655918D01*
X146454629Y-162683796D01*
X146541654Y-162712072D01*
X146721139Y-162740500D01*
X146721140Y-162740500D01*
X146902860Y-162740500D01*
X146902861Y-162740500D01*
X147082346Y-162712072D01*
X147082349Y-162712071D01*
X147082350Y-162712071D01*
X147255171Y-162655918D01*
X147255171Y-162655917D01*
X147255174Y-162655917D01*
X147417090Y-162573417D01*
X147554804Y-162473360D01*
X147620610Y-162449880D01*
X147688664Y-162465705D01*
X147726956Y-162499366D01*
X147800455Y-162597547D01*
X147915664Y-162683793D01*
X147915671Y-162683797D01*
X148050517Y-162734091D01*
X148050516Y-162734091D01*
X148057444Y-162734835D01*
X148110127Y-162740500D01*
X149513872Y-162740499D01*
X149573483Y-162734091D01*
X149708331Y-162683796D01*
X149823546Y-162597546D01*
X149909796Y-162482331D01*
X149960091Y-162347483D01*
X149966500Y-162287873D01*
X149966499Y-160884128D01*
X149960091Y-160824517D01*
X149954843Y-160810447D01*
X149909797Y-160689671D01*
X149909793Y-160689664D01*
X149823547Y-160574455D01*
X149823544Y-160574452D01*
X149708335Y-160488206D01*
X149708328Y-160488202D01*
X149573482Y-160437908D01*
X149573483Y-160437908D01*
X149513883Y-160431501D01*
X149513881Y-160431500D01*
X149513873Y-160431500D01*
X149513864Y-160431500D01*
X148110129Y-160431500D01*
X148110123Y-160431501D01*
X148050516Y-160437908D01*
X147915671Y-160488202D01*
X147915664Y-160488206D01*
X147800455Y-160574452D01*
X147726956Y-160672633D01*
X147671022Y-160714503D01*
X147601330Y-160719487D01*
X147554804Y-160698639D01*
X147542451Y-160689664D01*
X147417090Y-160598583D01*
X147255174Y-160516083D01*
X147255171Y-160516081D01*
X147082348Y-160459928D01*
X146943319Y-160437908D01*
X146902861Y-160431500D01*
X146721139Y-160431500D01*
X146680681Y-160437908D01*
X146541652Y-160459928D01*
X146541649Y-160459928D01*
X146368828Y-160516081D01*
X146368825Y-160516083D01*
X146206909Y-160598583D01*
X146161107Y-160631861D01*
X146059894Y-160705397D01*
X146059892Y-160705399D01*
X146059891Y-160705399D01*
X145931396Y-160833894D01*
X145912317Y-160860155D01*
X145856986Y-160902820D01*
X145787373Y-160908798D01*
X145725578Y-160876191D01*
X145711683Y-160860155D01*
X145692603Y-160833894D01*
X145564108Y-160705399D01*
X145564106Y-160705397D01*
X145417090Y-160598583D01*
X145255174Y-160516083D01*
X145255171Y-160516081D01*
X145082348Y-160459928D01*
X144943319Y-160437908D01*
X144902861Y-160431500D01*
X144721139Y-160431500D01*
X144680681Y-160437908D01*
X144541652Y-160459928D01*
X144541649Y-160459928D01*
X144368828Y-160516081D01*
X144368825Y-160516083D01*
X144206909Y-160598583D01*
X144161107Y-160631861D01*
X144059894Y-160705397D01*
X144059892Y-160705399D01*
X144059891Y-160705399D01*
X143931399Y-160833891D01*
X143931399Y-160833892D01*
X143931397Y-160833894D01*
X143912317Y-160860155D01*
X143824583Y-160980909D01*
X143742083Y-161142825D01*
X143742081Y-161142828D01*
X143685928Y-161315649D01*
X143685928Y-161315652D01*
X143657500Y-161495139D01*
X140181353Y-161495139D01*
X140224831Y-161472986D01*
X140241395Y-161460949D01*
X139666447Y-160886000D01*
X139672661Y-160886000D01*
X139774394Y-160858741D01*
X139865606Y-160806080D01*
X139940080Y-160731606D01*
X139992741Y-160640394D01*
X140020000Y-160538661D01*
X140020000Y-160532446D01*
X140594949Y-161107395D01*
X140606986Y-161090831D01*
X140689451Y-160928984D01*
X140745584Y-160756225D01*
X140774000Y-160576821D01*
X140774000Y-160395178D01*
X140745584Y-160215774D01*
X140689450Y-160043012D01*
X140606993Y-159881179D01*
X140606985Y-159881165D01*
X140594950Y-159864603D01*
X140594949Y-159864602D01*
X140020000Y-160439552D01*
X140020000Y-160433339D01*
X139992741Y-160331606D01*
X139940080Y-160240394D01*
X139865606Y-160165920D01*
X139774394Y-160113259D01*
X139672661Y-160086000D01*
X139666447Y-160086000D01*
X140241396Y-159511049D01*
X140241395Y-159511048D01*
X140224834Y-159499014D01*
X140224830Y-159499012D01*
X140062984Y-159416548D01*
X139890225Y-159360415D01*
X139710821Y-159332000D01*
X139529179Y-159332000D01*
X139349774Y-159360415D01*
X139177015Y-159416548D01*
X139015170Y-159499012D01*
X139015161Y-159499018D01*
X138998603Y-159511048D01*
X138998602Y-159511049D01*
X139573554Y-160086000D01*
X139567339Y-160086000D01*
X139465606Y-160113259D01*
X139374394Y-160165920D01*
X139299920Y-160240394D01*
X139247259Y-160331606D01*
X139220000Y-160433339D01*
X139220000Y-160439553D01*
X138636851Y-159856404D01*
X138599096Y-159848473D01*
X138564187Y-159820601D01*
X138560621Y-159816502D01*
X138500603Y-159733894D01*
X138372106Y-159605397D01*
X138225090Y-159498583D01*
X138063174Y-159416083D01*
X138063171Y-159416081D01*
X137890348Y-159359928D01*
X137751319Y-159337908D01*
X137710861Y-159331500D01*
X137529139Y-159331500D01*
X137488681Y-159337908D01*
X137349652Y-159359928D01*
X137349645Y-159359929D01*
X137301160Y-159375683D01*
X137231319Y-159377678D01*
X137171486Y-159341597D01*
X137140659Y-159278895D01*
X137148624Y-159209481D01*
X137175159Y-159170074D01*
X145174915Y-151170319D01*
X145236238Y-151136834D01*
X145262596Y-151134000D01*
X146218988Y-151134000D01*
X146186075Y-151191007D01*
X146152000Y-151318174D01*
X146152000Y-151449826D01*
X146186075Y-151576993D01*
X146218988Y-151634000D01*
X145302000Y-151634000D01*
X145302000Y-152281844D01*
X145308401Y-152341372D01*
X145308403Y-152341379D01*
X145358645Y-152476086D01*
X145358649Y-152476093D01*
X145444809Y-152591187D01*
X145444812Y-152591190D01*
X145559906Y-152677350D01*
X145559913Y-152677354D01*
X145694620Y-152727596D01*
X145694627Y-152727598D01*
X145754155Y-152733999D01*
X145754172Y-152734000D01*
X146402000Y-152734000D01*
X146402000Y-151817012D01*
X146459007Y-151849925D01*
X146586174Y-151884000D01*
X146717826Y-151884000D01*
X146844993Y-151849925D01*
X146902000Y-151817012D01*
X146902000Y-152734000D01*
X147549828Y-152734000D01*
X147549844Y-152733999D01*
X147609372Y-152727598D01*
X147609379Y-152727596D01*
X147744086Y-152677354D01*
X147744093Y-152677350D01*
X147859187Y-152591190D01*
X147859190Y-152591187D01*
X147945350Y-152476093D01*
X147945354Y-152476086D01*
X147995596Y-152341379D01*
X147995598Y-152341372D01*
X148001999Y-152281844D01*
X148002000Y-152281827D01*
X148002000Y-151634000D01*
X147085012Y-151634000D01*
X147117925Y-151576993D01*
X147152000Y-151449826D01*
X147152000Y-151318174D01*
X147117925Y-151191007D01*
X147085012Y-151134000D01*
X148002000Y-151134000D01*
X148002000Y-150486172D01*
X148001999Y-150486155D01*
X147995598Y-150426627D01*
X147995596Y-150426620D01*
X147945354Y-150291913D01*
X147945350Y-150291906D01*
X147859190Y-150176812D01*
X147859187Y-150176809D01*
X147744093Y-150090649D01*
X147744088Y-150090646D01*
X147612528Y-150041577D01*
X147556595Y-149999705D01*
X147532178Y-149934241D01*
X147547030Y-149865968D01*
X147568175Y-149837720D01*
X147682104Y-149723792D01*
X147807051Y-149551816D01*
X147903557Y-149362412D01*
X147969246Y-149160243D01*
X148002500Y-148950287D01*
X148002500Y-148737713D01*
X147969246Y-148527757D01*
X147903557Y-148325588D01*
X147807051Y-148136184D01*
X147807049Y-148136181D01*
X147807048Y-148136179D01*
X147682109Y-147964213D01*
X147531786Y-147813890D01*
X147359820Y-147688951D01*
X147359115Y-147688591D01*
X147351054Y-147684485D01*
X147300259Y-147636512D01*
X147283463Y-147568692D01*
X147305999Y-147502556D01*
X147351054Y-147463515D01*
X147359816Y-147459051D01*
X147381789Y-147443086D01*
X147531786Y-147334109D01*
X147531788Y-147334106D01*
X147531792Y-147334104D01*
X147682104Y-147183792D01*
X147682106Y-147183788D01*
X147682109Y-147183786D01*
X147807048Y-147011820D01*
X147807047Y-147011820D01*
X147807051Y-147011816D01*
X147903557Y-146822412D01*
X147969246Y-146620243D01*
X148002500Y-146410287D01*
X148002500Y-146197713D01*
X147969246Y-145987757D01*
X147903557Y-145785588D01*
X147807051Y-145596184D01*
X147807049Y-145596181D01*
X147807048Y-145596179D01*
X147682109Y-145424213D01*
X147531786Y-145273890D01*
X147359820Y-145148951D01*
X147359115Y-145148591D01*
X147351054Y-145144485D01*
X147300259Y-145096512D01*
X147283463Y-145028692D01*
X147305999Y-144962556D01*
X147351054Y-144923515D01*
X147359816Y-144919051D01*
X147414572Y-144879269D01*
X147531786Y-144794109D01*
X147531788Y-144794106D01*
X147531792Y-144794104D01*
X147682104Y-144643792D01*
X147682106Y-144643788D01*
X147682109Y-144643786D01*
X147807048Y-144471820D01*
X147807047Y-144471820D01*
X147807051Y-144471816D01*
X147903557Y-144282412D01*
X147969246Y-144080243D01*
X148002500Y-143870287D01*
X148002500Y-143657713D01*
X147969246Y-143447757D01*
X147903557Y-143245588D01*
X147807051Y-143056184D01*
X147807049Y-143056181D01*
X147807048Y-143056179D01*
X147682109Y-142884213D01*
X147531786Y-142733890D01*
X147359820Y-142608951D01*
X147170414Y-142512444D01*
X147170413Y-142512443D01*
X147170412Y-142512443D01*
X146968243Y-142446754D01*
X146968241Y-142446753D01*
X146968240Y-142446753D01*
X146806957Y-142421208D01*
X146758287Y-142413500D01*
X146545713Y-142413500D01*
X146506202Y-142419757D01*
X146335759Y-142446753D01*
X146335760Y-142446753D01*
X146133585Y-142512444D01*
X145944179Y-142608951D01*
X145772213Y-142733890D01*
X145621890Y-142884213D01*
X145496951Y-143056179D01*
X145400444Y-143245585D01*
X145400443Y-143245587D01*
X145400443Y-143245588D01*
X145334755Y-143447756D01*
X145334754Y-143447758D01*
X145301500Y-143657713D01*
X145301500Y-143804903D01*
X145281815Y-143871942D01*
X145229011Y-143917697D01*
X145159853Y-143927641D01*
X145096297Y-143898616D01*
X145089819Y-143892584D01*
X142878819Y-141681584D01*
X142845334Y-141620261D01*
X142842500Y-141593903D01*
X142842500Y-138350258D01*
X142862185Y-138283219D01*
X142901727Y-138244520D01*
X142905249Y-138242361D01*
X142905266Y-138242353D01*
X143066418Y-138125269D01*
X143207269Y-137984418D01*
X143324353Y-137823266D01*
X143401515Y-137671827D01*
X143449490Y-137621031D01*
X143517311Y-137604236D01*
X143583446Y-137626773D01*
X143622485Y-137671827D01*
X143699647Y-137823266D01*
X143816731Y-137984418D01*
X143957582Y-138125269D01*
X144118734Y-138242353D01*
X144295304Y-138332320D01*
X144296219Y-138332786D01*
X144485657Y-138394338D01*
X144485658Y-138394338D01*
X144485661Y-138394339D01*
X144682403Y-138425500D01*
X144682404Y-138425500D01*
X144881596Y-138425500D01*
X144881597Y-138425500D01*
X145078339Y-138394339D01*
X145078342Y-138394338D01*
X145078343Y-138394338D01*
X145267780Y-138332786D01*
X145267780Y-138332785D01*
X145267783Y-138332785D01*
X145445266Y-138242353D01*
X145606418Y-138125269D01*
X145747269Y-137984418D01*
X145864353Y-137823266D01*
X145941515Y-137671827D01*
X145989490Y-137621031D01*
X146057311Y-137604236D01*
X146123446Y-137626773D01*
X146162485Y-137671827D01*
X146239647Y-137823266D01*
X146356731Y-137984418D01*
X146497582Y-138125269D01*
X146658734Y-138242353D01*
X146835304Y-138332320D01*
X146836219Y-138332786D01*
X147025657Y-138394338D01*
X147025658Y-138394338D01*
X147025661Y-138394339D01*
X147222403Y-138425500D01*
X147222404Y-138425500D01*
X147421596Y-138425500D01*
X147421597Y-138425500D01*
X147618339Y-138394339D01*
X147618342Y-138394338D01*
X147618343Y-138394338D01*
X147807780Y-138332786D01*
X147807780Y-138332785D01*
X147807783Y-138332785D01*
X147985266Y-138242353D01*
X148146418Y-138125269D01*
X148287269Y-137984418D01*
X148404353Y-137823266D01*
X148481515Y-137671827D01*
X148529490Y-137621031D01*
X148597311Y-137604236D01*
X148663446Y-137626773D01*
X148702485Y-137671827D01*
X148779647Y-137823266D01*
X148896731Y-137984418D01*
X149037582Y-138125269D01*
X149198734Y-138242353D01*
X149375304Y-138332320D01*
X149376219Y-138332786D01*
X149565657Y-138394338D01*
X149565658Y-138394338D01*
X149565661Y-138394339D01*
X149762403Y-138425500D01*
X149762404Y-138425500D01*
X149961596Y-138425500D01*
X149961597Y-138425500D01*
X150158339Y-138394339D01*
X150158342Y-138394338D01*
X150158343Y-138394338D01*
X150347780Y-138332786D01*
X150347780Y-138332785D01*
X150347783Y-138332785D01*
X150525266Y-138242353D01*
X150686418Y-138125269D01*
X150827269Y-137984418D01*
X150944353Y-137823266D01*
X151021515Y-137671827D01*
X151069490Y-137621031D01*
X151137311Y-137604236D01*
X151203446Y-137626773D01*
X151242485Y-137671827D01*
X151319647Y-137823266D01*
X151436731Y-137984418D01*
X151577582Y-138125269D01*
X151738734Y-138242353D01*
X151915304Y-138332320D01*
X151916219Y-138332786D01*
X152105657Y-138394338D01*
X152105658Y-138394338D01*
X152105661Y-138394339D01*
X152302403Y-138425500D01*
X152302404Y-138425500D01*
X152501596Y-138425500D01*
X152501597Y-138425500D01*
X152698339Y-138394339D01*
X152698342Y-138394338D01*
X152698343Y-138394338D01*
X152887780Y-138332786D01*
X152887780Y-138332785D01*
X152887783Y-138332785D01*
X153065266Y-138242353D01*
X153226418Y-138125269D01*
X153367269Y-137984418D01*
X153484353Y-137823266D01*
X153561515Y-137671827D01*
X153609490Y-137621031D01*
X153677311Y-137604236D01*
X153743446Y-137626773D01*
X153782485Y-137671827D01*
X153859647Y-137823266D01*
X153976731Y-137984418D01*
X154117582Y-138125269D01*
X154278734Y-138242353D01*
X154455304Y-138332320D01*
X154456219Y-138332786D01*
X154645657Y-138394338D01*
X154645658Y-138394338D01*
X154645661Y-138394339D01*
X154842403Y-138425500D01*
X154842404Y-138425500D01*
X155041596Y-138425500D01*
X155041597Y-138425500D01*
X155238339Y-138394339D01*
X155238342Y-138394338D01*
X155238343Y-138394338D01*
X155427780Y-138332786D01*
X155427780Y-138332785D01*
X155427783Y-138332785D01*
X155605266Y-138242353D01*
X155766418Y-138125269D01*
X155907269Y-137984418D01*
X156024353Y-137823266D01*
X156101515Y-137671827D01*
X156149490Y-137621031D01*
X156217311Y-137604236D01*
X156283446Y-137626773D01*
X156322485Y-137671827D01*
X156399647Y-137823266D01*
X156516731Y-137984418D01*
X156657582Y-138125269D01*
X156818734Y-138242353D01*
X156995304Y-138332320D01*
X156996219Y-138332786D01*
X157185657Y-138394338D01*
X157185658Y-138394338D01*
X157185661Y-138394339D01*
X157382403Y-138425500D01*
X157382404Y-138425500D01*
X157581596Y-138425500D01*
X157581597Y-138425500D01*
X157778339Y-138394339D01*
X157778342Y-138394338D01*
X157778343Y-138394338D01*
X157967780Y-138332786D01*
X157967780Y-138332785D01*
X157967783Y-138332785D01*
X158145266Y-138242353D01*
X158306418Y-138125269D01*
X158447269Y-137984418D01*
X158564353Y-137823266D01*
X158641795Y-137671276D01*
X158689769Y-137620481D01*
X158757590Y-137603686D01*
X158823725Y-137626223D01*
X158862765Y-137671277D01*
X158940077Y-137823008D01*
X158967580Y-137860863D01*
X158967581Y-137860864D01*
X159530871Y-137297574D01*
X159546755Y-137356853D01*
X159613898Y-137473147D01*
X159708853Y-137568102D01*
X159825147Y-137635245D01*
X159884425Y-137651128D01*
X159321134Y-138214417D01*
X159358994Y-138241924D01*
X159536405Y-138332320D01*
X159725777Y-138393852D01*
X159922437Y-138425000D01*
X160121563Y-138425000D01*
X160318222Y-138393852D01*
X160507594Y-138332320D01*
X160685005Y-138241924D01*
X160722863Y-138214418D01*
X160722863Y-138214417D01*
X160159574Y-137651128D01*
X160218853Y-137635245D01*
X160335147Y-137568102D01*
X160430102Y-137473147D01*
X160497245Y-137356853D01*
X160513128Y-137297574D01*
X161076417Y-137860863D01*
X161076418Y-137860863D01*
X161103924Y-137823005D01*
X161194320Y-137645594D01*
X161255852Y-137456222D01*
X161287000Y-137259563D01*
X161287000Y-137060436D01*
X161255852Y-136863777D01*
X161194320Y-136674405D01*
X161103924Y-136496994D01*
X161076417Y-136459135D01*
X161076417Y-136459134D01*
X160513128Y-137022424D01*
X160497245Y-136963147D01*
X160430102Y-136846853D01*
X160335147Y-136751898D01*
X160218853Y-136684755D01*
X160159574Y-136668871D01*
X160722864Y-136105581D01*
X160722863Y-136105580D01*
X160685008Y-136078077D01*
X160507594Y-135987679D01*
X160318222Y-135926147D01*
X160121563Y-135895000D01*
X159922437Y-135895000D01*
X159725777Y-135926147D01*
X159536405Y-135987679D01*
X159358990Y-136078077D01*
X159321135Y-136105580D01*
X159321135Y-136105581D01*
X159884425Y-136668871D01*
X159825147Y-136684755D01*
X159708853Y-136751898D01*
X159613898Y-136846853D01*
X159546755Y-136963147D01*
X159530871Y-137022425D01*
X158967581Y-136459135D01*
X158967580Y-136459135D01*
X158940075Y-136496993D01*
X158862764Y-136648723D01*
X158814790Y-136699518D01*
X158746969Y-136716313D01*
X158680834Y-136693775D01*
X158641795Y-136648722D01*
X158578294Y-136524095D01*
X158564353Y-136496734D01*
X158447269Y-136335582D01*
X158306418Y-136194731D01*
X158145266Y-136077647D01*
X158066379Y-136037452D01*
X157967780Y-135987213D01*
X157778342Y-135925661D01*
X157630782Y-135902290D01*
X157581597Y-135894500D01*
X157382403Y-135894500D01*
X157316822Y-135904887D01*
X157185659Y-135925661D01*
X157185656Y-135925661D01*
X156996219Y-135987213D01*
X156818733Y-136077647D01*
X156780286Y-136105581D01*
X156657582Y-136194731D01*
X156657580Y-136194733D01*
X156657579Y-136194733D01*
X156516733Y-136335579D01*
X156516733Y-136335580D01*
X156516731Y-136335582D01*
X156508342Y-136347129D01*
X156399647Y-136496733D01*
X156322485Y-136648172D01*
X156274510Y-136698968D01*
X156206689Y-136715763D01*
X156140554Y-136693225D01*
X156101515Y-136648172D01*
X156038294Y-136524095D01*
X156024353Y-136496734D01*
X155907269Y-136335582D01*
X155766418Y-136194731D01*
X155605266Y-136077647D01*
X155526379Y-136037452D01*
X155427780Y-135987213D01*
X155238342Y-135925661D01*
X155090782Y-135902290D01*
X155041597Y-135894500D01*
X154842403Y-135894500D01*
X154776822Y-135904887D01*
X154645659Y-135925661D01*
X154645656Y-135925661D01*
X154456219Y-135987213D01*
X154278733Y-136077647D01*
X154240286Y-136105581D01*
X154117582Y-136194731D01*
X154117580Y-136194733D01*
X154117579Y-136194733D01*
X153976733Y-136335579D01*
X153976733Y-136335580D01*
X153976731Y-136335582D01*
X153968342Y-136347129D01*
X153859647Y-136496733D01*
X153782485Y-136648172D01*
X153734510Y-136698968D01*
X153666689Y-136715763D01*
X153600554Y-136693225D01*
X153561515Y-136648172D01*
X153498294Y-136524095D01*
X153484353Y-136496734D01*
X153367269Y-136335582D01*
X153226418Y-136194731D01*
X153065266Y-136077647D01*
X152986379Y-136037452D01*
X152887780Y-135987213D01*
X152698342Y-135925661D01*
X152550782Y-135902290D01*
X152501597Y-135894500D01*
X152302403Y-135894500D01*
X152236822Y-135904887D01*
X152105659Y-135925661D01*
X152105656Y-135925661D01*
X151916219Y-135987213D01*
X151738733Y-136077647D01*
X151700286Y-136105581D01*
X151577582Y-136194731D01*
X151577580Y-136194733D01*
X151577579Y-136194733D01*
X151436733Y-136335579D01*
X151436733Y-136335580D01*
X151436731Y-136335582D01*
X151428342Y-136347129D01*
X151319647Y-136496733D01*
X151242485Y-136648172D01*
X151194510Y-136698968D01*
X151126689Y-136715763D01*
X151060554Y-136693225D01*
X151021515Y-136648172D01*
X150958294Y-136524095D01*
X150944353Y-136496734D01*
X150827269Y-136335582D01*
X150686418Y-136194731D01*
X150525266Y-136077647D01*
X150446379Y-136037452D01*
X150347780Y-135987213D01*
X150158342Y-135925661D01*
X150010782Y-135902290D01*
X149961597Y-135894500D01*
X149762403Y-135894500D01*
X149696822Y-135904887D01*
X149565659Y-135925661D01*
X149565656Y-135925661D01*
X149376219Y-135987213D01*
X149198733Y-136077647D01*
X149160286Y-136105581D01*
X149037582Y-136194731D01*
X149037580Y-136194733D01*
X149037579Y-136194733D01*
X148896733Y-136335579D01*
X148896733Y-136335580D01*
X148896731Y-136335582D01*
X148888342Y-136347129D01*
X148779647Y-136496733D01*
X148702485Y-136648172D01*
X148654510Y-136698968D01*
X148586689Y-136715763D01*
X148520554Y-136693225D01*
X148481515Y-136648172D01*
X148418294Y-136524095D01*
X148404353Y-136496734D01*
X148287269Y-136335582D01*
X148146418Y-136194731D01*
X147985266Y-136077647D01*
X147906379Y-136037452D01*
X147807780Y-135987213D01*
X147618342Y-135925661D01*
X147470782Y-135902290D01*
X147421597Y-135894500D01*
X147222403Y-135894500D01*
X147156822Y-135904887D01*
X147025659Y-135925661D01*
X147025656Y-135925661D01*
X146836219Y-135987213D01*
X146658733Y-136077647D01*
X146620286Y-136105581D01*
X146497582Y-136194731D01*
X146497580Y-136194733D01*
X146497579Y-136194733D01*
X146356733Y-136335579D01*
X146356733Y-136335580D01*
X146356731Y-136335582D01*
X146348342Y-136347129D01*
X146239647Y-136496733D01*
X146162485Y-136648172D01*
X146114510Y-136698968D01*
X146046689Y-136715763D01*
X145980554Y-136693225D01*
X145941515Y-136648172D01*
X145878294Y-136524095D01*
X145864353Y-136496734D01*
X145747269Y-136335582D01*
X145606418Y-136194731D01*
X145445266Y-136077647D01*
X145366379Y-136037452D01*
X145267780Y-135987213D01*
X145078342Y-135925661D01*
X144930782Y-135902290D01*
X144881597Y-135894500D01*
X144682403Y-135894500D01*
X144616822Y-135904887D01*
X144485659Y-135925661D01*
X144485656Y-135925661D01*
X144296219Y-135987213D01*
X144118733Y-136077647D01*
X144080286Y-136105581D01*
X143957582Y-136194731D01*
X143957580Y-136194733D01*
X143957579Y-136194733D01*
X143816733Y-136335579D01*
X143816733Y-136335580D01*
X143816731Y-136335582D01*
X143808342Y-136347129D01*
X143699647Y-136496733D01*
X143622485Y-136648172D01*
X143574510Y-136698968D01*
X143506689Y-136715763D01*
X143440554Y-136693225D01*
X143401515Y-136648172D01*
X143338294Y-136524095D01*
X143324353Y-136496734D01*
X143207269Y-136335582D01*
X143066418Y-136194731D01*
X142905266Y-136077647D01*
X142826379Y-136037452D01*
X142727780Y-135987213D01*
X142538342Y-135925661D01*
X142390782Y-135902290D01*
X142341597Y-135894500D01*
X142142403Y-135894500D01*
X142076822Y-135904887D01*
X141945659Y-135925661D01*
X141945656Y-135925661D01*
X141756219Y-135987213D01*
X141578733Y-136077647D01*
X141540286Y-136105581D01*
X141417582Y-136194731D01*
X141417580Y-136194733D01*
X141417579Y-136194733D01*
X141276733Y-136335579D01*
X141276733Y-136335580D01*
X141276731Y-136335582D01*
X141268342Y-136347129D01*
X141159647Y-136496733D01*
X141082485Y-136648172D01*
X141034510Y-136698968D01*
X140966689Y-136715763D01*
X140900554Y-136693225D01*
X140861515Y-136648172D01*
X140798294Y-136524095D01*
X140784353Y-136496734D01*
X140667269Y-136335582D01*
X140526418Y-136194731D01*
X140365266Y-136077647D01*
X140286379Y-136037452D01*
X140187780Y-135987213D01*
X139998342Y-135925661D01*
X139850782Y-135902290D01*
X139801597Y-135894500D01*
X139602403Y-135894500D01*
X139536822Y-135904887D01*
X139405659Y-135925661D01*
X139405656Y-135925661D01*
X139216219Y-135987213D01*
X139038733Y-136077647D01*
X139000286Y-136105581D01*
X138877582Y-136194731D01*
X138877580Y-136194733D01*
X138877579Y-136194733D01*
X138736733Y-136335579D01*
X138736733Y-136335580D01*
X138736731Y-136335582D01*
X138728342Y-136347129D01*
X138619647Y-136496733D01*
X138542485Y-136648172D01*
X138494510Y-136698968D01*
X138426689Y-136715763D01*
X138360554Y-136693225D01*
X138321515Y-136648172D01*
X138258294Y-136524095D01*
X138244353Y-136496734D01*
X138127269Y-136335582D01*
X137986418Y-136194731D01*
X137825266Y-136077647D01*
X137746379Y-136037452D01*
X137647780Y-135987213D01*
X137458342Y-135925661D01*
X137310782Y-135902290D01*
X137261597Y-135894500D01*
X137062403Y-135894500D01*
X136996822Y-135904887D01*
X136865659Y-135925661D01*
X136865656Y-135925661D01*
X136676219Y-135987213D01*
X136498733Y-136077647D01*
X136460286Y-136105581D01*
X136337582Y-136194731D01*
X136337580Y-136194733D01*
X136337579Y-136194733D01*
X136196733Y-136335579D01*
X136196733Y-136335580D01*
X136196731Y-136335582D01*
X136188342Y-136347129D01*
X136079647Y-136496733D01*
X136002485Y-136648172D01*
X135954510Y-136698968D01*
X135886689Y-136715763D01*
X135820554Y-136693225D01*
X135781515Y-136648172D01*
X135718294Y-136524095D01*
X135704353Y-136496734D01*
X135587269Y-136335582D01*
X135446418Y-136194731D01*
X135285266Y-136077647D01*
X135206379Y-136037452D01*
X135107780Y-135987213D01*
X134918342Y-135925661D01*
X134770782Y-135902290D01*
X134721597Y-135894500D01*
X134522403Y-135894500D01*
X134456822Y-135904887D01*
X134325659Y-135925661D01*
X134325656Y-135925661D01*
X134136219Y-135987213D01*
X133958733Y-136077647D01*
X133920286Y-136105581D01*
X133797582Y-136194731D01*
X133797580Y-136194733D01*
X133797579Y-136194733D01*
X133656733Y-136335579D01*
X133656733Y-136335580D01*
X133656731Y-136335582D01*
X133648342Y-136347129D01*
X133539647Y-136496733D01*
X133462485Y-136648172D01*
X133414510Y-136698968D01*
X133346689Y-136715763D01*
X133280554Y-136693225D01*
X133241515Y-136648172D01*
X133178294Y-136524095D01*
X133164353Y-136496734D01*
X133047269Y-136335582D01*
X132906418Y-136194731D01*
X132745266Y-136077647D01*
X132666379Y-136037452D01*
X132567780Y-135987213D01*
X132378342Y-135925661D01*
X132230782Y-135902290D01*
X132181597Y-135894500D01*
X131982403Y-135894500D01*
X131916822Y-135904887D01*
X131785659Y-135925661D01*
X131785656Y-135925661D01*
X131596219Y-135987213D01*
X131418733Y-136077647D01*
X131380286Y-136105581D01*
X131257582Y-136194731D01*
X131257580Y-136194733D01*
X131257579Y-136194733D01*
X131116733Y-136335579D01*
X131116733Y-136335580D01*
X131116731Y-136335582D01*
X131108342Y-136347129D01*
X130999647Y-136496733D01*
X130922485Y-136648172D01*
X130874510Y-136698968D01*
X130806689Y-136715763D01*
X130740554Y-136693225D01*
X130701515Y-136648172D01*
X130638294Y-136524095D01*
X130624353Y-136496734D01*
X130507269Y-136335582D01*
X130366418Y-136194731D01*
X130205266Y-136077647D01*
X130126379Y-136037452D01*
X130027780Y-135987213D01*
X129838342Y-135925661D01*
X129690782Y-135902290D01*
X129641597Y-135894500D01*
X129442403Y-135894500D01*
X129376822Y-135904887D01*
X129245659Y-135925661D01*
X129245656Y-135925661D01*
X129056219Y-135987213D01*
X128878733Y-136077647D01*
X128840286Y-136105581D01*
X128717582Y-136194731D01*
X128717580Y-136194733D01*
X128717579Y-136194733D01*
X128576733Y-136335579D01*
X128576733Y-136335580D01*
X128576731Y-136335582D01*
X128568342Y-136347129D01*
X128459647Y-136496733D01*
X128382485Y-136648172D01*
X128334510Y-136698968D01*
X128266689Y-136715763D01*
X128200554Y-136693225D01*
X128161515Y-136648172D01*
X128098294Y-136524095D01*
X128084353Y-136496734D01*
X127967269Y-136335582D01*
X127826418Y-136194731D01*
X127665266Y-136077647D01*
X127586379Y-136037452D01*
X127487780Y-135987213D01*
X127298342Y-135925661D01*
X127150782Y-135902290D01*
X127101597Y-135894500D01*
X126902403Y-135894500D01*
X126836822Y-135904887D01*
X126705659Y-135925661D01*
X126705656Y-135925661D01*
X126516219Y-135987213D01*
X126338733Y-136077647D01*
X126300286Y-136105581D01*
X126177582Y-136194731D01*
X126177580Y-136194733D01*
X126177579Y-136194733D01*
X126036733Y-136335579D01*
X126036733Y-136335580D01*
X126036731Y-136335582D01*
X126028342Y-136347129D01*
X125919647Y-136496733D01*
X125842485Y-136648172D01*
X125794510Y-136698968D01*
X125726689Y-136715763D01*
X125660554Y-136693225D01*
X125621515Y-136648172D01*
X125558294Y-136524095D01*
X125544353Y-136496734D01*
X125427269Y-136335582D01*
X125286418Y-136194731D01*
X125125266Y-136077647D01*
X125046379Y-136037452D01*
X124947780Y-135987213D01*
X124758342Y-135925661D01*
X124610782Y-135902290D01*
X124561597Y-135894500D01*
X124362403Y-135894500D01*
X124296822Y-135904887D01*
X124165659Y-135925661D01*
X124165656Y-135925661D01*
X123976219Y-135987213D01*
X123798733Y-136077647D01*
X123760286Y-136105581D01*
X123637582Y-136194731D01*
X123637580Y-136194733D01*
X123637579Y-136194733D01*
X123496733Y-136335579D01*
X123496733Y-136335580D01*
X123496731Y-136335582D01*
X123488342Y-136347129D01*
X123379647Y-136496733D01*
X123302485Y-136648172D01*
X123254510Y-136698968D01*
X123186689Y-136715763D01*
X123120554Y-136693225D01*
X123081515Y-136648172D01*
X123018294Y-136524095D01*
X123004353Y-136496734D01*
X122887269Y-136335582D01*
X122746418Y-136194731D01*
X122585266Y-136077647D01*
X122506379Y-136037452D01*
X122407780Y-135987213D01*
X122218342Y-135925661D01*
X122070782Y-135902290D01*
X122021597Y-135894500D01*
X121822403Y-135894500D01*
X121756822Y-135904887D01*
X121625659Y-135925661D01*
X121625656Y-135925661D01*
X121436219Y-135987213D01*
X121258733Y-136077647D01*
X121220286Y-136105581D01*
X121097582Y-136194731D01*
X121097580Y-136194733D01*
X121097579Y-136194733D01*
X120956733Y-136335579D01*
X120956733Y-136335580D01*
X120956731Y-136335582D01*
X120948342Y-136347129D01*
X120839647Y-136496733D01*
X120762485Y-136648172D01*
X120714510Y-136698968D01*
X120646689Y-136715763D01*
X120580554Y-136693225D01*
X120541515Y-136648172D01*
X120478294Y-136524095D01*
X120464353Y-136496734D01*
X120347269Y-136335582D01*
X120206418Y-136194731D01*
X120045266Y-136077647D01*
X119966379Y-136037452D01*
X119867780Y-135987213D01*
X119678342Y-135925661D01*
X119530782Y-135902290D01*
X119481597Y-135894500D01*
X119282403Y-135894500D01*
X119216822Y-135904887D01*
X119085659Y-135925661D01*
X119085656Y-135925661D01*
X118896219Y-135987213D01*
X118718733Y-136077647D01*
X118680286Y-136105581D01*
X118557582Y-136194731D01*
X118557580Y-136194733D01*
X118557579Y-136194733D01*
X118416733Y-136335579D01*
X118416733Y-136335580D01*
X118416731Y-136335582D01*
X118408342Y-136347129D01*
X118299647Y-136496733D01*
X118222485Y-136648172D01*
X118174510Y-136698968D01*
X118106689Y-136715763D01*
X118040554Y-136693225D01*
X118001515Y-136648172D01*
X117938294Y-136524095D01*
X117924353Y-136496734D01*
X117807269Y-136335582D01*
X117666418Y-136194731D01*
X117505266Y-136077647D01*
X117426379Y-136037452D01*
X117327780Y-135987213D01*
X117138342Y-135925661D01*
X116990782Y-135902290D01*
X116941597Y-135894500D01*
X116742403Y-135894500D01*
X116676822Y-135904887D01*
X116545659Y-135925661D01*
X116545656Y-135925661D01*
X116356219Y-135987213D01*
X116178733Y-136077647D01*
X116140286Y-136105581D01*
X116017582Y-136194731D01*
X116017580Y-136194733D01*
X116017579Y-136194733D01*
X115876733Y-136335579D01*
X115876733Y-136335580D01*
X115876731Y-136335582D01*
X115868342Y-136347129D01*
X115759647Y-136496733D01*
X115682485Y-136648172D01*
X115634510Y-136698968D01*
X115566689Y-136715763D01*
X115500554Y-136693225D01*
X115461515Y-136648172D01*
X115398294Y-136524095D01*
X115384353Y-136496734D01*
X115267269Y-136335582D01*
X115126418Y-136194731D01*
X114965266Y-136077647D01*
X114886379Y-136037452D01*
X114787780Y-135987213D01*
X114598342Y-135925661D01*
X114450782Y-135902290D01*
X114401597Y-135894500D01*
X114202403Y-135894500D01*
X114136822Y-135904887D01*
X114005659Y-135925661D01*
X114005656Y-135925661D01*
X113816219Y-135987213D01*
X113638733Y-136077647D01*
X113600286Y-136105581D01*
X113477582Y-136194731D01*
X113477580Y-136194733D01*
X113477579Y-136194733D01*
X113336733Y-136335579D01*
X113336733Y-136335580D01*
X113336731Y-136335582D01*
X113328342Y-136347129D01*
X113219647Y-136496733D01*
X113142485Y-136648172D01*
X113094510Y-136698968D01*
X113026689Y-136715763D01*
X112960554Y-136693225D01*
X112921515Y-136648172D01*
X112858294Y-136524095D01*
X112844353Y-136496734D01*
X112727269Y-136335582D01*
X112586418Y-136194731D01*
X112425266Y-136077647D01*
X112346379Y-136037452D01*
X112247780Y-135987213D01*
X112058342Y-135925661D01*
X111910782Y-135902290D01*
X111861597Y-135894500D01*
X111662403Y-135894500D01*
X111596822Y-135904887D01*
X111465659Y-135925661D01*
X111465656Y-135925661D01*
X111276219Y-135987213D01*
X111098733Y-136077647D01*
X111060286Y-136105581D01*
X110937582Y-136194731D01*
X110937580Y-136194733D01*
X110937579Y-136194733D01*
X110796733Y-136335579D01*
X110796733Y-136335580D01*
X110796731Y-136335582D01*
X110788342Y-136347129D01*
X110679647Y-136496733D01*
X110602485Y-136648172D01*
X110554510Y-136698968D01*
X110486689Y-136715763D01*
X110420554Y-136693225D01*
X110381515Y-136648172D01*
X110318294Y-136524095D01*
X110304353Y-136496734D01*
X110187269Y-136335582D01*
X110046418Y-136194731D01*
X109885266Y-136077647D01*
X109806379Y-136037452D01*
X109707780Y-135987213D01*
X109518342Y-135925661D01*
X109370782Y-135902290D01*
X109321597Y-135894500D01*
X109122403Y-135894500D01*
X109056822Y-135904887D01*
X108925659Y-135925661D01*
X108925656Y-135925661D01*
X108736219Y-135987213D01*
X108558733Y-136077647D01*
X108520286Y-136105581D01*
X108397582Y-136194731D01*
X108397580Y-136194733D01*
X108397579Y-136194733D01*
X108256733Y-136335579D01*
X108256733Y-136335580D01*
X108256731Y-136335582D01*
X108183472Y-136436414D01*
X108171817Y-136452456D01*
X108116487Y-136495121D01*
X108046873Y-136501100D01*
X107985078Y-136468494D01*
X107950721Y-136407655D01*
X107947499Y-136379570D01*
X107947499Y-136347129D01*
X107947498Y-136347123D01*
X107946257Y-136335582D01*
X107941091Y-136287517D01*
X107890796Y-136152669D01*
X107890795Y-136152668D01*
X107890793Y-136152664D01*
X107804547Y-136037455D01*
X107804544Y-136037452D01*
X107689335Y-135951206D01*
X107689328Y-135951202D01*
X107554482Y-135900908D01*
X107554483Y-135900908D01*
X107494883Y-135894501D01*
X107494881Y-135894500D01*
X107494873Y-135894500D01*
X107494865Y-135894500D01*
X106046095Y-135894500D01*
X105979056Y-135874815D01*
X105933301Y-135822011D01*
X105923357Y-135752853D01*
X105952382Y-135689297D01*
X105958400Y-135682833D01*
X124828713Y-116812521D01*
X124828716Y-116812520D01*
X124940520Y-116700716D01*
X124990639Y-116613904D01*
X125019577Y-116563785D01*
X125060501Y-116411057D01*
X125060501Y-116252943D01*
X125060501Y-116245348D01*
X125060500Y-116245330D01*
X125060500Y-113421339D01*
X125080185Y-113354300D01*
X125122060Y-113316431D01*
X125121118Y-113314894D01*
X125125251Y-113312360D01*
X125125266Y-113312353D01*
X125286418Y-113195269D01*
X125427269Y-113054418D01*
X125544353Y-112893266D01*
X125621515Y-112741827D01*
X125669490Y-112691031D01*
X125737311Y-112674236D01*
X125803446Y-112696773D01*
X125842485Y-112741827D01*
X125919647Y-112893266D01*
X126036731Y-113054418D01*
X126177582Y-113195269D01*
X126338734Y-113312353D01*
X126421060Y-113354300D01*
X126516219Y-113402786D01*
X126705657Y-113464338D01*
X126705658Y-113464338D01*
X126705661Y-113464339D01*
X126902403Y-113495500D01*
X126902404Y-113495500D01*
X127101596Y-113495500D01*
X127101597Y-113495500D01*
X127298339Y-113464339D01*
X127298342Y-113464338D01*
X127298343Y-113464338D01*
X127487780Y-113402786D01*
X127487780Y-113402785D01*
X127487783Y-113402785D01*
X127665266Y-113312353D01*
X127826418Y-113195269D01*
X127967269Y-113054418D01*
X128084353Y-112893266D01*
X128161515Y-112741827D01*
X128209490Y-112691031D01*
X128277311Y-112674236D01*
X128343446Y-112696773D01*
X128382485Y-112741827D01*
X128459647Y-112893266D01*
X128576731Y-113054418D01*
X128717582Y-113195269D01*
X128878734Y-113312353D01*
X128961060Y-113354300D01*
X129056219Y-113402786D01*
X129245657Y-113464338D01*
X129245658Y-113464338D01*
X129245661Y-113464339D01*
X129442403Y-113495500D01*
X129442404Y-113495500D01*
X129641596Y-113495500D01*
X129641597Y-113495500D01*
X129838339Y-113464339D01*
X129838342Y-113464338D01*
X129838343Y-113464338D01*
X130027780Y-113402786D01*
X130027780Y-113402785D01*
X130027783Y-113402785D01*
X130205266Y-113312353D01*
X130366418Y-113195269D01*
X130507269Y-113054418D01*
X130624353Y-112893266D01*
X130701515Y-112741827D01*
X130749490Y-112691031D01*
X130817311Y-112674236D01*
X130883446Y-112696773D01*
X130922485Y-112741827D01*
X130999647Y-112893266D01*
X131116731Y-113054418D01*
X131257582Y-113195269D01*
X131418734Y-113312353D01*
X131501060Y-113354300D01*
X131596219Y-113402786D01*
X131785657Y-113464338D01*
X131785658Y-113464338D01*
X131785661Y-113464339D01*
X131982403Y-113495500D01*
X131982404Y-113495500D01*
X132181596Y-113495500D01*
X132181597Y-113495500D01*
X132378339Y-113464339D01*
X132378342Y-113464338D01*
X132378343Y-113464338D01*
X132567780Y-113402786D01*
X132567780Y-113402785D01*
X132567783Y-113402785D01*
X132745266Y-113312353D01*
X132906418Y-113195269D01*
X133047269Y-113054418D01*
X133164353Y-112893266D01*
X133241515Y-112741827D01*
X133289490Y-112691031D01*
X133357311Y-112674236D01*
X133423446Y-112696773D01*
X133462485Y-112741827D01*
X133539647Y-112893266D01*
X133656731Y-113054418D01*
X133797582Y-113195269D01*
X133958734Y-113312353D01*
X134041060Y-113354300D01*
X134136219Y-113402786D01*
X134325657Y-113464338D01*
X134325658Y-113464338D01*
X134325661Y-113464339D01*
X134522403Y-113495500D01*
X134522404Y-113495500D01*
X134721596Y-113495500D01*
X134721597Y-113495500D01*
X134918339Y-113464339D01*
X134918342Y-113464338D01*
X134918343Y-113464338D01*
X135107780Y-113402786D01*
X135107780Y-113402785D01*
X135107783Y-113402785D01*
X135285266Y-113312353D01*
X135446418Y-113195269D01*
X135587269Y-113054418D01*
X135704353Y-112893266D01*
X135781515Y-112741827D01*
X135829490Y-112691031D01*
X135897311Y-112674236D01*
X135963446Y-112696773D01*
X136002485Y-112741827D01*
X136079647Y-112893266D01*
X136196731Y-113054418D01*
X136337582Y-113195269D01*
X136498734Y-113312353D01*
X136581060Y-113354300D01*
X136676219Y-113402786D01*
X136865657Y-113464338D01*
X136865658Y-113464338D01*
X136865661Y-113464339D01*
X137062403Y-113495500D01*
X137062404Y-113495500D01*
X137261596Y-113495500D01*
X137261597Y-113495500D01*
X137458339Y-113464339D01*
X137458342Y-113464338D01*
X137458343Y-113464338D01*
X137647780Y-113402786D01*
X137647780Y-113402785D01*
X137647783Y-113402785D01*
X137825266Y-113312353D01*
X137986418Y-113195269D01*
X138127269Y-113054418D01*
X138244353Y-112893266D01*
X138321515Y-112741827D01*
X138369490Y-112691031D01*
X138437311Y-112674236D01*
X138503446Y-112696773D01*
X138542485Y-112741827D01*
X138619647Y-112893266D01*
X138736731Y-113054418D01*
X138877582Y-113195269D01*
X139038734Y-113312353D01*
X139121060Y-113354300D01*
X139216219Y-113402786D01*
X139405657Y-113464338D01*
X139405658Y-113464338D01*
X139405661Y-113464339D01*
X139602403Y-113495500D01*
X139602404Y-113495500D01*
X139801596Y-113495500D01*
X139801597Y-113495500D01*
X139998339Y-113464339D01*
X139998342Y-113464338D01*
X139998343Y-113464338D01*
X140187780Y-113402786D01*
X140187780Y-113402785D01*
X140187783Y-113402785D01*
X140365266Y-113312353D01*
X140526418Y-113195269D01*
X140667269Y-113054418D01*
X140784353Y-112893266D01*
X140861515Y-112741827D01*
X140909490Y-112691031D01*
X140977311Y-112674236D01*
X141043446Y-112696773D01*
X141082485Y-112741827D01*
X141159647Y-112893266D01*
X141276731Y-113054418D01*
X141417582Y-113195269D01*
X141578734Y-113312353D01*
X141661060Y-113354300D01*
X141756219Y-113402786D01*
X141945657Y-113464338D01*
X141945658Y-113464338D01*
X141945661Y-113464339D01*
X142142403Y-113495500D01*
X142142404Y-113495500D01*
X142341596Y-113495500D01*
X142341597Y-113495500D01*
X142538339Y-113464339D01*
X142538342Y-113464338D01*
X142538343Y-113464338D01*
X142727780Y-113402786D01*
X142727780Y-113402785D01*
X142727783Y-113402785D01*
X142905266Y-113312353D01*
X143066418Y-113195269D01*
X143207269Y-113054418D01*
X143324353Y-112893266D01*
X143401515Y-112741827D01*
X143449490Y-112691031D01*
X143517311Y-112674236D01*
X143583446Y-112696773D01*
X143622485Y-112741827D01*
X143699647Y-112893266D01*
X143816731Y-113054418D01*
X143957582Y-113195269D01*
X144118734Y-113312353D01*
X144201060Y-113354300D01*
X144296219Y-113402786D01*
X144485657Y-113464338D01*
X144485658Y-113464338D01*
X144485661Y-113464339D01*
X144682403Y-113495500D01*
X144682404Y-113495500D01*
X144881596Y-113495500D01*
X144881597Y-113495500D01*
X145078339Y-113464339D01*
X145078342Y-113464338D01*
X145078343Y-113464338D01*
X145267780Y-113402786D01*
X145267780Y-113402785D01*
X145267783Y-113402785D01*
X145445266Y-113312353D01*
X145606418Y-113195269D01*
X145747269Y-113054418D01*
X145864353Y-112893266D01*
X145941515Y-112741827D01*
X145989490Y-112691031D01*
X146057311Y-112674236D01*
X146123446Y-112696773D01*
X146162485Y-112741827D01*
X146239647Y-112893266D01*
X146356731Y-113054418D01*
X146497582Y-113195269D01*
X146658734Y-113312353D01*
X146741060Y-113354300D01*
X146836219Y-113402786D01*
X147025657Y-113464338D01*
X147025658Y-113464338D01*
X147025661Y-113464339D01*
X147222403Y-113495500D01*
X147222404Y-113495500D01*
X147421596Y-113495500D01*
X147421597Y-113495500D01*
X147618339Y-113464339D01*
X147618342Y-113464338D01*
X147618343Y-113464338D01*
X147807780Y-113402786D01*
X147807780Y-113402785D01*
X147807783Y-113402785D01*
X147985266Y-113312353D01*
X148146418Y-113195269D01*
X148287269Y-113054418D01*
X148404353Y-112893266D01*
X148481515Y-112741827D01*
X148529490Y-112691031D01*
X148597311Y-112674236D01*
X148663446Y-112696773D01*
X148702485Y-112741827D01*
X148779647Y-112893266D01*
X148896731Y-113054418D01*
X149037582Y-113195269D01*
X149198734Y-113312353D01*
X149281060Y-113354300D01*
X149376219Y-113402786D01*
X149565657Y-113464338D01*
X149565658Y-113464338D01*
X149565661Y-113464339D01*
X149762403Y-113495500D01*
X149762404Y-113495500D01*
X149961596Y-113495500D01*
X149961597Y-113495500D01*
X150158339Y-113464339D01*
X150158342Y-113464338D01*
X150158343Y-113464338D01*
X150347780Y-113402786D01*
X150347780Y-113402785D01*
X150347783Y-113402785D01*
X150525266Y-113312353D01*
X150686418Y-113195269D01*
X150827269Y-113054418D01*
X150944353Y-112893266D01*
X151021515Y-112741827D01*
X151069490Y-112691031D01*
X151137311Y-112674236D01*
X151203446Y-112696773D01*
X151242485Y-112741827D01*
X151319647Y-112893266D01*
X151436731Y-113054418D01*
X151577582Y-113195269D01*
X151738734Y-113312353D01*
X151821060Y-113354300D01*
X151916219Y-113402786D01*
X152105657Y-113464338D01*
X152105658Y-113464338D01*
X152105661Y-113464339D01*
X152302403Y-113495500D01*
X152302404Y-113495500D01*
X152501596Y-113495500D01*
X152501597Y-113495500D01*
X152698339Y-113464339D01*
X152698342Y-113464338D01*
X152698343Y-113464338D01*
X152887780Y-113402786D01*
X152887780Y-113402785D01*
X152887783Y-113402785D01*
X153065266Y-113312353D01*
X153226418Y-113195269D01*
X153367269Y-113054418D01*
X153484353Y-112893266D01*
X153561515Y-112741827D01*
X153609490Y-112691031D01*
X153677311Y-112674236D01*
X153743446Y-112696773D01*
X153782485Y-112741827D01*
X153859647Y-112893266D01*
X153976731Y-113054418D01*
X154117582Y-113195269D01*
X154278734Y-113312353D01*
X154361060Y-113354300D01*
X154456219Y-113402786D01*
X154645657Y-113464338D01*
X154645658Y-113464338D01*
X154645661Y-113464339D01*
X154842403Y-113495500D01*
X154842404Y-113495500D01*
X155041596Y-113495500D01*
X155041597Y-113495500D01*
X155238339Y-113464339D01*
X155238342Y-113464338D01*
X155238343Y-113464338D01*
X155427780Y-113402786D01*
X155427780Y-113402785D01*
X155427783Y-113402785D01*
X155605266Y-113312353D01*
X155766418Y-113195269D01*
X155907269Y-113054418D01*
X156024353Y-112893266D01*
X156101795Y-112741276D01*
X156149769Y-112690481D01*
X156217590Y-112673686D01*
X156283725Y-112696223D01*
X156322765Y-112741277D01*
X156400077Y-112893008D01*
X156427580Y-112930863D01*
X156427581Y-112930864D01*
X156990871Y-112367574D01*
X157006755Y-112426853D01*
X157073898Y-112543147D01*
X157168853Y-112638102D01*
X157285147Y-112705245D01*
X157344425Y-112721128D01*
X156781134Y-113284417D01*
X156818994Y-113311924D01*
X156996405Y-113402320D01*
X157185777Y-113463852D01*
X157382437Y-113495000D01*
X157581563Y-113495000D01*
X157778222Y-113463852D01*
X157967594Y-113402320D01*
X158145005Y-113311924D01*
X158182863Y-113284418D01*
X158182863Y-113284417D01*
X157619574Y-112721128D01*
X157678853Y-112705245D01*
X157795147Y-112638102D01*
X157890102Y-112543147D01*
X157957245Y-112426853D01*
X157973128Y-112367574D01*
X158536417Y-112930863D01*
X158536418Y-112930863D01*
X158563924Y-112893005D01*
X158641515Y-112740727D01*
X158689490Y-112689931D01*
X158757311Y-112673136D01*
X158823446Y-112695674D01*
X158862485Y-112740727D01*
X158940077Y-112893008D01*
X158967580Y-112930863D01*
X158967581Y-112930864D01*
X159530871Y-112367574D01*
X159546755Y-112426853D01*
X159613898Y-112543147D01*
X159708853Y-112638102D01*
X159825147Y-112705245D01*
X159884425Y-112721128D01*
X159321134Y-113284417D01*
X159358994Y-113311924D01*
X159536405Y-113402320D01*
X159725777Y-113463852D01*
X159922437Y-113495000D01*
X160121563Y-113495000D01*
X160318222Y-113463852D01*
X160507594Y-113402320D01*
X160685005Y-113311924D01*
X160722863Y-113284418D01*
X160722863Y-113284417D01*
X160159574Y-112721128D01*
X160218853Y-112705245D01*
X160335147Y-112638102D01*
X160430102Y-112543147D01*
X160497245Y-112426853D01*
X160513128Y-112367574D01*
X161076417Y-112930863D01*
X161076418Y-112930863D01*
X161103924Y-112893005D01*
X161194320Y-112715594D01*
X161255852Y-112526222D01*
X161287000Y-112329563D01*
X161287000Y-112130436D01*
X161255852Y-111933777D01*
X161194320Y-111744405D01*
X161103924Y-111566994D01*
X161076417Y-111529135D01*
X161076417Y-111529134D01*
X160513128Y-112092424D01*
X160497245Y-112033147D01*
X160430102Y-111916853D01*
X160335147Y-111821898D01*
X160218853Y-111754755D01*
X160159574Y-111738871D01*
X160722864Y-111175581D01*
X160722863Y-111175580D01*
X160685008Y-111148077D01*
X160507594Y-111057679D01*
X160318222Y-110996147D01*
X160121563Y-110965000D01*
X159922437Y-110965000D01*
X159725777Y-110996147D01*
X159536405Y-111057679D01*
X159358990Y-111148077D01*
X159321135Y-111175580D01*
X159321135Y-111175581D01*
X159884425Y-111738871D01*
X159825147Y-111754755D01*
X159708853Y-111821898D01*
X159613898Y-111916853D01*
X159546755Y-112033147D01*
X159530871Y-112092425D01*
X158967581Y-111529135D01*
X158967580Y-111529135D01*
X158940074Y-111566995D01*
X158940073Y-111566996D01*
X158862484Y-111719272D01*
X158814510Y-111770068D01*
X158746689Y-111786863D01*
X158680554Y-111764325D01*
X158641516Y-111719272D01*
X158563928Y-111566999D01*
X158536417Y-111529135D01*
X158536417Y-111529134D01*
X157973128Y-112092424D01*
X157957245Y-112033147D01*
X157890102Y-111916853D01*
X157795147Y-111821898D01*
X157678853Y-111754755D01*
X157619574Y-111738871D01*
X158182864Y-111175581D01*
X158182863Y-111175580D01*
X158145008Y-111148077D01*
X157967594Y-111057679D01*
X157778222Y-110996147D01*
X157581563Y-110965000D01*
X157382437Y-110965000D01*
X157185777Y-110996147D01*
X156996405Y-111057679D01*
X156818990Y-111148077D01*
X156781135Y-111175580D01*
X156781135Y-111175581D01*
X157344425Y-111738871D01*
X157285147Y-111754755D01*
X157168853Y-111821898D01*
X157073898Y-111916853D01*
X157006755Y-112033147D01*
X156990871Y-112092425D01*
X156427581Y-111529135D01*
X156427580Y-111529135D01*
X156400075Y-111566993D01*
X156322764Y-111718723D01*
X156274790Y-111769518D01*
X156206969Y-111786313D01*
X156140834Y-111763775D01*
X156101795Y-111718722D01*
X156024486Y-111566996D01*
X156024353Y-111566734D01*
X155907269Y-111405582D01*
X155766418Y-111264731D01*
X155605266Y-111147647D01*
X155493427Y-111090662D01*
X155427780Y-111057213D01*
X155238342Y-110995661D01*
X155090782Y-110972290D01*
X155041597Y-110964500D01*
X154842403Y-110964500D01*
X154776822Y-110974887D01*
X154645659Y-110995661D01*
X154645656Y-110995661D01*
X154456219Y-111057213D01*
X154278733Y-111147647D01*
X154240286Y-111175581D01*
X154117582Y-111264731D01*
X154117580Y-111264733D01*
X154117579Y-111264733D01*
X153976733Y-111405579D01*
X153976733Y-111405580D01*
X153976731Y-111405582D01*
X153926447Y-111474790D01*
X153859647Y-111566733D01*
X153782485Y-111718172D01*
X153734510Y-111768968D01*
X153666689Y-111785763D01*
X153600554Y-111763225D01*
X153561515Y-111718172D01*
X153484486Y-111566996D01*
X153484353Y-111566734D01*
X153367269Y-111405582D01*
X153226418Y-111264731D01*
X153065266Y-111147647D01*
X152953427Y-111090662D01*
X152887780Y-111057213D01*
X152698342Y-110995661D01*
X152550782Y-110972290D01*
X152501597Y-110964500D01*
X152302403Y-110964500D01*
X152236822Y-110974887D01*
X152105659Y-110995661D01*
X152105656Y-110995661D01*
X151916219Y-111057213D01*
X151738733Y-111147647D01*
X151700286Y-111175581D01*
X151577582Y-111264731D01*
X151577580Y-111264733D01*
X151577579Y-111264733D01*
X151436733Y-111405579D01*
X151436733Y-111405580D01*
X151436731Y-111405582D01*
X151386447Y-111474790D01*
X151319647Y-111566733D01*
X151242485Y-111718172D01*
X151194510Y-111768968D01*
X151126689Y-111785763D01*
X151060554Y-111763225D01*
X151021515Y-111718172D01*
X150944486Y-111566996D01*
X150944353Y-111566734D01*
X150827269Y-111405582D01*
X150686418Y-111264731D01*
X150525266Y-111147647D01*
X150413427Y-111090662D01*
X150347780Y-111057213D01*
X150158342Y-110995661D01*
X150010782Y-110972290D01*
X149961597Y-110964500D01*
X149762403Y-110964500D01*
X149696822Y-110974887D01*
X149565659Y-110995661D01*
X149565656Y-110995661D01*
X149376219Y-111057213D01*
X149198733Y-111147647D01*
X149160286Y-111175581D01*
X149037582Y-111264731D01*
X149037580Y-111264733D01*
X149037579Y-111264733D01*
X148896733Y-111405579D01*
X148896733Y-111405580D01*
X148896731Y-111405582D01*
X148846447Y-111474790D01*
X148779647Y-111566733D01*
X148702485Y-111718172D01*
X148654510Y-111768968D01*
X148586689Y-111785763D01*
X148520554Y-111763225D01*
X148481515Y-111718172D01*
X148404486Y-111566996D01*
X148404353Y-111566734D01*
X148287269Y-111405582D01*
X148146418Y-111264731D01*
X147985266Y-111147647D01*
X147873427Y-111090662D01*
X147807780Y-111057213D01*
X147618342Y-110995661D01*
X147470782Y-110972290D01*
X147421597Y-110964500D01*
X147222403Y-110964500D01*
X147156822Y-110974887D01*
X147025659Y-110995661D01*
X147025656Y-110995661D01*
X146836219Y-111057213D01*
X146658733Y-111147647D01*
X146620286Y-111175581D01*
X146497582Y-111264731D01*
X146497580Y-111264733D01*
X146497579Y-111264733D01*
X146356733Y-111405579D01*
X146356733Y-111405580D01*
X146356731Y-111405582D01*
X146306447Y-111474790D01*
X146239647Y-111566733D01*
X146162485Y-111718172D01*
X146114510Y-111768968D01*
X146046689Y-111785763D01*
X145980554Y-111763225D01*
X145941515Y-111718172D01*
X145864486Y-111566996D01*
X145864353Y-111566734D01*
X145747269Y-111405582D01*
X145606418Y-111264731D01*
X145445266Y-111147647D01*
X145333427Y-111090662D01*
X145267780Y-111057213D01*
X145078342Y-110995661D01*
X144930782Y-110972290D01*
X144881597Y-110964500D01*
X144682403Y-110964500D01*
X144616822Y-110974887D01*
X144485659Y-110995661D01*
X144485656Y-110995661D01*
X144296219Y-111057213D01*
X144118733Y-111147647D01*
X144080286Y-111175581D01*
X143957582Y-111264731D01*
X143957580Y-111264733D01*
X143957579Y-111264733D01*
X143816733Y-111405579D01*
X143816733Y-111405580D01*
X143816731Y-111405582D01*
X143766447Y-111474790D01*
X143699647Y-111566733D01*
X143622485Y-111718172D01*
X143574510Y-111768968D01*
X143506689Y-111785763D01*
X143440554Y-111763225D01*
X143401515Y-111718172D01*
X143324486Y-111566996D01*
X143324353Y-111566734D01*
X143207269Y-111405582D01*
X143066418Y-111264731D01*
X142905266Y-111147647D01*
X142793427Y-111090662D01*
X142727780Y-111057213D01*
X142538342Y-110995661D01*
X142390782Y-110972290D01*
X142341597Y-110964500D01*
X142142403Y-110964500D01*
X142076822Y-110974887D01*
X141945659Y-110995661D01*
X141945656Y-110995661D01*
X141756219Y-111057213D01*
X141578733Y-111147647D01*
X141540286Y-111175581D01*
X141417582Y-111264731D01*
X141417580Y-111264733D01*
X141417579Y-111264733D01*
X141276733Y-111405579D01*
X141276733Y-111405580D01*
X141276731Y-111405582D01*
X141226447Y-111474790D01*
X141159647Y-111566733D01*
X141082485Y-111718172D01*
X141034510Y-111768968D01*
X140966689Y-111785763D01*
X140900554Y-111763225D01*
X140861515Y-111718172D01*
X140784486Y-111566996D01*
X140784353Y-111566734D01*
X140667269Y-111405582D01*
X140526418Y-111264731D01*
X140365266Y-111147647D01*
X140253427Y-111090662D01*
X140187780Y-111057213D01*
X139998342Y-110995661D01*
X139850782Y-110972290D01*
X139801597Y-110964500D01*
X139602403Y-110964500D01*
X139536822Y-110974887D01*
X139405659Y-110995661D01*
X139405656Y-110995661D01*
X139216219Y-111057213D01*
X139038733Y-111147647D01*
X139000286Y-111175581D01*
X138877582Y-111264731D01*
X138877580Y-111264733D01*
X138877579Y-111264733D01*
X138736733Y-111405579D01*
X138736733Y-111405580D01*
X138736731Y-111405582D01*
X138686447Y-111474790D01*
X138619647Y-111566733D01*
X138542485Y-111718172D01*
X138494510Y-111768968D01*
X138426689Y-111785763D01*
X138360554Y-111763225D01*
X138321515Y-111718172D01*
X138244486Y-111566996D01*
X138244353Y-111566734D01*
X138127269Y-111405582D01*
X137986418Y-111264731D01*
X137825266Y-111147647D01*
X137713427Y-111090662D01*
X137647780Y-111057213D01*
X137458342Y-110995661D01*
X137310782Y-110972290D01*
X137261597Y-110964500D01*
X137062403Y-110964500D01*
X136996822Y-110974887D01*
X136865659Y-110995661D01*
X136865656Y-110995661D01*
X136676219Y-111057213D01*
X136498733Y-111147647D01*
X136460286Y-111175581D01*
X136337582Y-111264731D01*
X136337580Y-111264733D01*
X136337579Y-111264733D01*
X136196733Y-111405579D01*
X136196733Y-111405580D01*
X136196731Y-111405582D01*
X136146447Y-111474790D01*
X136079647Y-111566733D01*
X136002485Y-111718172D01*
X135954510Y-111768968D01*
X135886689Y-111785763D01*
X135820554Y-111763225D01*
X135781515Y-111718172D01*
X135704486Y-111566996D01*
X135704353Y-111566734D01*
X135587269Y-111405582D01*
X135446418Y-111264731D01*
X135285266Y-111147647D01*
X135173427Y-111090662D01*
X135107780Y-111057213D01*
X134918342Y-110995661D01*
X134770782Y-110972290D01*
X134721597Y-110964500D01*
X134522403Y-110964500D01*
X134456822Y-110974887D01*
X134325659Y-110995661D01*
X134325656Y-110995661D01*
X134136219Y-111057213D01*
X133958733Y-111147647D01*
X133920286Y-111175581D01*
X133797582Y-111264731D01*
X133797580Y-111264733D01*
X133797579Y-111264733D01*
X133656733Y-111405579D01*
X133656733Y-111405580D01*
X133656731Y-111405582D01*
X133606447Y-111474790D01*
X133539647Y-111566733D01*
X133462485Y-111718172D01*
X133414510Y-111768968D01*
X133346689Y-111785763D01*
X133280554Y-111763225D01*
X133241515Y-111718172D01*
X133164486Y-111566996D01*
X133164353Y-111566734D01*
X133047269Y-111405582D01*
X132906418Y-111264731D01*
X132745266Y-111147647D01*
X132633427Y-111090662D01*
X132567780Y-111057213D01*
X132378342Y-110995661D01*
X132230782Y-110972290D01*
X132181597Y-110964500D01*
X131982403Y-110964500D01*
X131916822Y-110974887D01*
X131785659Y-110995661D01*
X131785656Y-110995661D01*
X131596219Y-111057213D01*
X131418733Y-111147647D01*
X131380286Y-111175581D01*
X131257582Y-111264731D01*
X131257580Y-111264733D01*
X131257579Y-111264733D01*
X131116733Y-111405579D01*
X131116733Y-111405580D01*
X131116731Y-111405582D01*
X131066447Y-111474790D01*
X130999647Y-111566733D01*
X130922485Y-111718172D01*
X130874510Y-111768968D01*
X130806689Y-111785763D01*
X130740554Y-111763225D01*
X130701515Y-111718172D01*
X130624486Y-111566996D01*
X130624353Y-111566734D01*
X130507269Y-111405582D01*
X130366418Y-111264731D01*
X130205266Y-111147647D01*
X130093427Y-111090662D01*
X130027780Y-111057213D01*
X129838342Y-110995661D01*
X129690782Y-110972290D01*
X129641597Y-110964500D01*
X129442403Y-110964500D01*
X129376822Y-110974887D01*
X129245659Y-110995661D01*
X129245656Y-110995661D01*
X129056219Y-111057213D01*
X128878733Y-111147647D01*
X128840286Y-111175581D01*
X128717582Y-111264731D01*
X128717580Y-111264733D01*
X128717579Y-111264733D01*
X128576733Y-111405579D01*
X128576733Y-111405580D01*
X128576731Y-111405582D01*
X128526447Y-111474790D01*
X128459647Y-111566733D01*
X128382485Y-111718172D01*
X128334510Y-111768968D01*
X128266689Y-111785763D01*
X128200554Y-111763225D01*
X128161515Y-111718172D01*
X128084486Y-111566996D01*
X128084353Y-111566734D01*
X127967269Y-111405582D01*
X127826418Y-111264731D01*
X127665266Y-111147647D01*
X127553427Y-111090662D01*
X127487780Y-111057213D01*
X127298342Y-110995661D01*
X127150782Y-110972290D01*
X127101597Y-110964500D01*
X126902403Y-110964500D01*
X126836822Y-110974887D01*
X126705659Y-110995661D01*
X126701588Y-110996638D01*
X126631806Y-110993138D01*
X126584976Y-110963741D01*
X125241590Y-109620355D01*
X125241588Y-109620352D01*
X125122717Y-109501481D01*
X125122716Y-109501480D01*
X125035904Y-109451360D01*
X125035904Y-109451359D01*
X125035900Y-109451358D01*
X124985785Y-109422423D01*
X124833057Y-109381499D01*
X124674943Y-109381499D01*
X124667347Y-109381499D01*
X124667331Y-109381500D01*
X90749766Y-109381500D01*
X90682727Y-109361815D01*
X90680875Y-109360602D01*
X90549185Y-109272609D01*
X90549172Y-109272602D01*
X90403501Y-109212264D01*
X90403489Y-109212261D01*
X90248845Y-109181500D01*
X90248842Y-109181500D01*
X90091158Y-109181500D01*
X90091155Y-109181500D01*
X89936510Y-109212261D01*
X89936498Y-109212264D01*
X89790827Y-109272602D01*
X89790814Y-109272609D01*
X89659711Y-109360210D01*
X89659707Y-109360213D01*
X89548213Y-109471707D01*
X89548210Y-109471711D01*
X89460609Y-109602814D01*
X89460602Y-109602827D01*
X89400264Y-109748498D01*
X89400261Y-109748510D01*
X89369500Y-109903153D01*
X89369500Y-110060846D01*
X89400261Y-110215489D01*
X89400264Y-110215501D01*
X89460602Y-110361172D01*
X89460609Y-110361185D01*
X89548210Y-110492288D01*
X89548213Y-110492292D01*
X89659707Y-110603786D01*
X89659711Y-110603789D01*
X89790814Y-110691390D01*
X89790827Y-110691397D01*
X89936498Y-110751735D01*
X89936503Y-110751737D01*
X90091153Y-110782499D01*
X90091156Y-110782500D01*
X90091158Y-110782500D01*
X90248844Y-110782500D01*
X90248845Y-110782499D01*
X90403497Y-110751737D01*
X90549179Y-110691394D01*
X90549185Y-110691390D01*
X90680875Y-110603398D01*
X90747553Y-110582520D01*
X90749766Y-110582500D01*
X124453903Y-110582500D01*
X124520942Y-110602185D01*
X124541584Y-110618819D01*
X124678698Y-110755933D01*
X124712183Y-110817256D01*
X124707199Y-110886948D01*
X124665327Y-110942881D01*
X124599863Y-110967298D01*
X124571623Y-110966088D01*
X124561597Y-110964500D01*
X124362403Y-110964500D01*
X124296822Y-110974887D01*
X124165659Y-110995661D01*
X124165656Y-110995661D01*
X123976219Y-111057213D01*
X123798733Y-111147647D01*
X123760286Y-111175581D01*
X123637582Y-111264731D01*
X123637580Y-111264733D01*
X123637579Y-111264733D01*
X123496733Y-111405579D01*
X123496733Y-111405580D01*
X123496731Y-111405582D01*
X123446447Y-111474790D01*
X123379647Y-111566733D01*
X123302485Y-111718172D01*
X123254510Y-111768968D01*
X123186689Y-111785763D01*
X123120554Y-111763225D01*
X123081515Y-111718172D01*
X123004486Y-111566996D01*
X123004353Y-111566734D01*
X122887269Y-111405582D01*
X122746418Y-111264731D01*
X122585266Y-111147647D01*
X122473427Y-111090662D01*
X122407780Y-111057213D01*
X122218342Y-110995661D01*
X122070782Y-110972290D01*
X122021597Y-110964500D01*
X121822403Y-110964500D01*
X121756822Y-110974887D01*
X121625659Y-110995661D01*
X121625656Y-110995661D01*
X121436219Y-111057213D01*
X121258733Y-111147647D01*
X121220286Y-111175581D01*
X121097582Y-111264731D01*
X121097580Y-111264733D01*
X121097579Y-111264733D01*
X120956733Y-111405579D01*
X120956733Y-111405580D01*
X120956731Y-111405582D01*
X120906447Y-111474790D01*
X120839647Y-111566733D01*
X120762485Y-111718172D01*
X120714510Y-111768968D01*
X120646689Y-111785763D01*
X120580554Y-111763225D01*
X120541515Y-111718172D01*
X120464486Y-111566996D01*
X120464353Y-111566734D01*
X120347269Y-111405582D01*
X120206418Y-111264731D01*
X120045266Y-111147647D01*
X119933427Y-111090662D01*
X119867780Y-111057213D01*
X119678342Y-110995661D01*
X119530782Y-110972290D01*
X119481597Y-110964500D01*
X119282403Y-110964500D01*
X119216822Y-110974887D01*
X119085659Y-110995661D01*
X119085656Y-110995661D01*
X118896219Y-111057213D01*
X118718733Y-111147647D01*
X118680286Y-111175581D01*
X118557582Y-111264731D01*
X118557580Y-111264733D01*
X118557579Y-111264733D01*
X118416733Y-111405579D01*
X118416733Y-111405580D01*
X118416731Y-111405582D01*
X118366447Y-111474790D01*
X118299647Y-111566733D01*
X118222485Y-111718172D01*
X118174510Y-111768968D01*
X118106689Y-111785763D01*
X118040554Y-111763225D01*
X118001515Y-111718172D01*
X117924486Y-111566996D01*
X117924353Y-111566734D01*
X117807269Y-111405582D01*
X117666418Y-111264731D01*
X117505266Y-111147647D01*
X117393427Y-111090662D01*
X117327780Y-111057213D01*
X117138342Y-110995661D01*
X116990782Y-110972290D01*
X116941597Y-110964500D01*
X116742403Y-110964500D01*
X116676822Y-110974887D01*
X116545659Y-110995661D01*
X116545656Y-110995661D01*
X116356219Y-111057213D01*
X116178733Y-111147647D01*
X116140286Y-111175581D01*
X116017582Y-111264731D01*
X116017580Y-111264733D01*
X116017579Y-111264733D01*
X115876733Y-111405579D01*
X115876733Y-111405580D01*
X115876731Y-111405582D01*
X115826447Y-111474790D01*
X115759647Y-111566733D01*
X115682485Y-111718172D01*
X115634510Y-111768968D01*
X115566689Y-111785763D01*
X115500554Y-111763225D01*
X115461515Y-111718172D01*
X115384486Y-111566996D01*
X115384353Y-111566734D01*
X115267269Y-111405582D01*
X115126418Y-111264731D01*
X114965266Y-111147647D01*
X114853427Y-111090662D01*
X114787780Y-111057213D01*
X114598342Y-110995661D01*
X114450782Y-110972290D01*
X114401597Y-110964500D01*
X114202403Y-110964500D01*
X114136822Y-110974887D01*
X114005659Y-110995661D01*
X114005656Y-110995661D01*
X113816219Y-111057213D01*
X113638733Y-111147647D01*
X113600286Y-111175581D01*
X113477582Y-111264731D01*
X113477580Y-111264733D01*
X113477579Y-111264733D01*
X113336733Y-111405579D01*
X113336733Y-111405580D01*
X113336731Y-111405582D01*
X113286447Y-111474790D01*
X113219647Y-111566733D01*
X113142485Y-111718172D01*
X113094510Y-111768968D01*
X113026689Y-111785763D01*
X112960554Y-111763225D01*
X112921515Y-111718172D01*
X112844486Y-111566996D01*
X112844353Y-111566734D01*
X112727269Y-111405582D01*
X112586418Y-111264731D01*
X112425266Y-111147647D01*
X112313427Y-111090662D01*
X112247780Y-111057213D01*
X112058342Y-110995661D01*
X111910782Y-110972290D01*
X111861597Y-110964500D01*
X111662403Y-110964500D01*
X111596822Y-110974887D01*
X111465659Y-110995661D01*
X111465656Y-110995661D01*
X111276219Y-111057213D01*
X111098733Y-111147647D01*
X111060286Y-111175581D01*
X110937582Y-111264731D01*
X110937580Y-111264733D01*
X110937579Y-111264733D01*
X110796733Y-111405579D01*
X110796733Y-111405580D01*
X110796731Y-111405582D01*
X110746447Y-111474790D01*
X110679647Y-111566733D01*
X110602485Y-111718172D01*
X110554510Y-111768968D01*
X110486689Y-111785763D01*
X110420554Y-111763225D01*
X110381515Y-111718172D01*
X110304486Y-111566996D01*
X110304353Y-111566734D01*
X110187269Y-111405582D01*
X110046418Y-111264731D01*
X109885266Y-111147647D01*
X109773427Y-111090662D01*
X109707780Y-111057213D01*
X109518342Y-110995661D01*
X109370782Y-110972290D01*
X109321597Y-110964500D01*
X109122403Y-110964500D01*
X109056822Y-110974887D01*
X108925659Y-110995661D01*
X108925656Y-110995661D01*
X108736219Y-111057213D01*
X108558733Y-111147647D01*
X108520286Y-111175581D01*
X108397582Y-111264731D01*
X108397580Y-111264733D01*
X108397579Y-111264733D01*
X108256733Y-111405579D01*
X108256733Y-111405580D01*
X108256731Y-111405582D01*
X108221555Y-111453997D01*
X108139645Y-111566735D01*
X108062203Y-111718723D01*
X108014229Y-111769518D01*
X107946408Y-111786313D01*
X107880273Y-111763775D01*
X107841234Y-111718722D01*
X107763924Y-111566994D01*
X107736417Y-111529135D01*
X107736417Y-111529134D01*
X107173128Y-112092424D01*
X107157245Y-112033147D01*
X107090102Y-111916853D01*
X106995147Y-111821898D01*
X106878853Y-111754755D01*
X106819574Y-111738871D01*
X107382864Y-111175581D01*
X107382863Y-111175580D01*
X107345008Y-111148077D01*
X107167594Y-111057679D01*
X106978222Y-110996147D01*
X106781563Y-110965000D01*
X106582437Y-110965000D01*
X106385777Y-110996147D01*
X106196405Y-111057679D01*
X106018990Y-111148077D01*
X105981135Y-111175580D01*
X105981135Y-111175581D01*
X106544425Y-111738871D01*
X106485147Y-111754755D01*
X106368853Y-111821898D01*
X106273898Y-111916853D01*
X106206755Y-112033147D01*
X106190871Y-112092425D01*
X105627581Y-111529135D01*
X105627580Y-111529135D01*
X105600077Y-111566990D01*
X105509679Y-111744405D01*
X105448147Y-111933777D01*
X105417000Y-112130436D01*
X105417000Y-112329563D01*
X105448147Y-112526222D01*
X105509679Y-112715594D01*
X105600077Y-112893008D01*
X105627580Y-112930863D01*
X105627581Y-112930864D01*
X106190871Y-112367574D01*
X106206755Y-112426853D01*
X106273898Y-112543147D01*
X106368853Y-112638102D01*
X106485147Y-112705245D01*
X106544425Y-112721128D01*
X105981134Y-113284417D01*
X106018994Y-113311924D01*
X106196405Y-113402320D01*
X106385777Y-113463852D01*
X106582437Y-113495000D01*
X106781563Y-113495000D01*
X106978222Y-113463852D01*
X107167594Y-113402320D01*
X107345005Y-113311924D01*
X107382863Y-113284418D01*
X107382863Y-113284417D01*
X106819574Y-112721128D01*
X106878853Y-112705245D01*
X106995147Y-112638102D01*
X107090102Y-112543147D01*
X107157245Y-112426853D01*
X107173128Y-112367574D01*
X107736417Y-112930863D01*
X107736418Y-112930863D01*
X107763924Y-112893005D01*
X107841234Y-112741277D01*
X107889208Y-112690481D01*
X107957029Y-112673686D01*
X108023164Y-112696223D01*
X108062204Y-112741277D01*
X108139514Y-112893005D01*
X108139647Y-112893266D01*
X108256731Y-113054418D01*
X108397582Y-113195269D01*
X108558734Y-113312353D01*
X108641060Y-113354300D01*
X108736219Y-113402786D01*
X108925657Y-113464338D01*
X108925658Y-113464338D01*
X108925661Y-113464339D01*
X109122403Y-113495500D01*
X109122404Y-113495500D01*
X109321596Y-113495500D01*
X109321597Y-113495500D01*
X109518339Y-113464339D01*
X109518342Y-113464338D01*
X109518343Y-113464338D01*
X109707780Y-113402786D01*
X109707780Y-113402785D01*
X109707783Y-113402785D01*
X109885266Y-113312353D01*
X110046418Y-113195269D01*
X110187269Y-113054418D01*
X110304353Y-112893266D01*
X110381515Y-112741827D01*
X110429490Y-112691031D01*
X110497311Y-112674236D01*
X110563446Y-112696773D01*
X110602485Y-112741827D01*
X110679647Y-112893266D01*
X110796731Y-113054418D01*
X110937582Y-113195269D01*
X111098734Y-113312353D01*
X111181060Y-113354300D01*
X111276219Y-113402786D01*
X111465657Y-113464338D01*
X111465658Y-113464338D01*
X111465661Y-113464339D01*
X111662403Y-113495500D01*
X111662404Y-113495500D01*
X111861596Y-113495500D01*
X111861597Y-113495500D01*
X112058339Y-113464339D01*
X112058342Y-113464338D01*
X112058343Y-113464338D01*
X112247780Y-113402786D01*
X112247780Y-113402785D01*
X112247783Y-113402785D01*
X112425266Y-113312353D01*
X112586418Y-113195269D01*
X112727269Y-113054418D01*
X112844353Y-112893266D01*
X112921515Y-112741827D01*
X112969490Y-112691031D01*
X113037311Y-112674236D01*
X113103446Y-112696773D01*
X113142485Y-112741827D01*
X113219647Y-112893266D01*
X113336731Y-113054418D01*
X113477582Y-113195269D01*
X113638734Y-113312353D01*
X113721060Y-113354300D01*
X113816219Y-113402786D01*
X114005657Y-113464338D01*
X114005658Y-113464338D01*
X114005661Y-113464339D01*
X114202403Y-113495500D01*
X114202404Y-113495500D01*
X114401596Y-113495500D01*
X114401597Y-113495500D01*
X114598339Y-113464339D01*
X114598342Y-113464338D01*
X114598343Y-113464338D01*
X114787780Y-113402786D01*
X114787780Y-113402785D01*
X114787783Y-113402785D01*
X114965266Y-113312353D01*
X115126418Y-113195269D01*
X115267269Y-113054418D01*
X115384353Y-112893266D01*
X115461515Y-112741827D01*
X115509490Y-112691031D01*
X115577311Y-112674236D01*
X115643446Y-112696773D01*
X115682485Y-112741827D01*
X115759647Y-112893266D01*
X115876731Y-113054418D01*
X116017582Y-113195269D01*
X116178734Y-113312353D01*
X116261060Y-113354300D01*
X116356219Y-113402786D01*
X116545657Y-113464338D01*
X116545658Y-113464338D01*
X116545661Y-113464339D01*
X116742403Y-113495500D01*
X116742404Y-113495500D01*
X116941596Y-113495500D01*
X116941597Y-113495500D01*
X117138339Y-113464339D01*
X117138342Y-113464338D01*
X117138343Y-113464338D01*
X117327780Y-113402786D01*
X117327780Y-113402785D01*
X117327783Y-113402785D01*
X117505266Y-113312353D01*
X117666418Y-113195269D01*
X117807269Y-113054418D01*
X117924353Y-112893266D01*
X118001515Y-112741827D01*
X118049490Y-112691031D01*
X118117311Y-112674236D01*
X118183446Y-112696773D01*
X118222485Y-112741827D01*
X118299647Y-112893266D01*
X118416731Y-113054418D01*
X118557582Y-113195269D01*
X118680285Y-113284418D01*
X118718734Y-113312353D01*
X118720275Y-113313297D01*
X118720738Y-113313809D01*
X118722676Y-113315217D01*
X118722380Y-113315623D01*
X118767158Y-113365102D01*
X118779500Y-113419033D01*
X118779500Y-118063903D01*
X118759815Y-118130942D01*
X118743181Y-118151584D01*
X98339584Y-138555181D01*
X98278261Y-138588666D01*
X98251903Y-138591500D01*
X84907766Y-138591500D01*
X84840727Y-138571815D01*
X84838875Y-138570602D01*
X84707185Y-138482609D01*
X84707172Y-138482602D01*
X84561501Y-138422264D01*
X84561489Y-138422261D01*
X84406845Y-138391500D01*
X84406842Y-138391500D01*
X84249158Y-138391500D01*
X84249155Y-138391500D01*
X84094510Y-138422261D01*
X84094498Y-138422264D01*
X83948827Y-138482602D01*
X83948814Y-138482609D01*
X83817711Y-138570210D01*
X83817707Y-138570213D01*
X83706213Y-138681707D01*
X83706210Y-138681711D01*
X83618609Y-138812814D01*
X83618602Y-138812827D01*
X83558264Y-138958498D01*
X83558261Y-138958510D01*
X83527500Y-139113153D01*
X68580000Y-139113153D01*
X68580000Y-119811122D01*
X85071500Y-119811122D01*
X85071500Y-119964877D01*
X85101491Y-120115656D01*
X85101494Y-120115665D01*
X85160326Y-120257701D01*
X85160327Y-120257703D01*
X85245745Y-120385539D01*
X85245748Y-120385543D01*
X85354456Y-120494251D01*
X85354460Y-120494254D01*
X85482294Y-120579671D01*
X85482295Y-120579671D01*
X85482296Y-120579672D01*
X85482298Y-120579673D01*
X85576988Y-120618894D01*
X85624336Y-120638506D01*
X85624338Y-120638506D01*
X85624343Y-120638508D01*
X85775122Y-120668499D01*
X85775126Y-120668500D01*
X85775127Y-120668500D01*
X85928874Y-120668500D01*
X85928875Y-120668499D01*
X85979136Y-120658502D01*
X86079656Y-120638508D01*
X86079659Y-120638506D01*
X86079664Y-120638506D01*
X86221706Y-120579671D01*
X86349540Y-120494254D01*
X86458254Y-120385540D01*
X86543671Y-120257706D01*
X86602506Y-120115664D01*
X86632500Y-119964873D01*
X86632500Y-119811127D01*
X86632232Y-119809782D01*
X86602508Y-119660343D01*
X86602505Y-119660334D01*
X86543673Y-119518298D01*
X86543672Y-119518296D01*
X86458254Y-119390460D01*
X86458251Y-119390456D01*
X86349543Y-119281748D01*
X86349539Y-119281745D01*
X86221703Y-119196327D01*
X86221701Y-119196326D01*
X86079665Y-119137494D01*
X86079656Y-119137491D01*
X85928877Y-119107500D01*
X85928873Y-119107500D01*
X85775127Y-119107500D01*
X85775122Y-119107500D01*
X85624343Y-119137491D01*
X85624334Y-119137494D01*
X85482298Y-119196326D01*
X85482296Y-119196327D01*
X85354460Y-119281745D01*
X85354456Y-119281748D01*
X85245748Y-119390456D01*
X85245745Y-119390460D01*
X85160327Y-119518296D01*
X85160326Y-119518298D01*
X85101494Y-119660334D01*
X85101491Y-119660343D01*
X85071500Y-119811122D01*
X68580000Y-119811122D01*
X68580000Y-108551634D01*
X70360500Y-108551634D01*
X70360500Y-108784365D01*
X70360501Y-108784382D01*
X70366292Y-108828372D01*
X70390879Y-109015126D01*
X70443701Y-109212261D01*
X70451120Y-109239947D01*
X70540180Y-109454960D01*
X70540188Y-109454976D01*
X70656553Y-109656524D01*
X70656564Y-109656540D01*
X70798242Y-109841179D01*
X70798248Y-109841186D01*
X70962813Y-110005751D01*
X70962820Y-110005757D01*
X71034614Y-110060846D01*
X71147468Y-110147442D01*
X71147475Y-110147446D01*
X71349023Y-110263811D01*
X71349039Y-110263819D01*
X71564052Y-110352879D01*
X71564054Y-110352879D01*
X71564060Y-110352882D01*
X71788874Y-110413121D01*
X72019628Y-110443500D01*
X72019635Y-110443500D01*
X72252365Y-110443500D01*
X72252372Y-110443500D01*
X72483126Y-110413121D01*
X72707940Y-110352882D01*
X72816733Y-110307819D01*
X72922960Y-110263819D01*
X72922963Y-110263817D01*
X72922969Y-110263815D01*
X73124532Y-110147442D01*
X73309181Y-110005756D01*
X73473756Y-109841181D01*
X73615442Y-109656532D01*
X73731815Y-109454969D01*
X73733311Y-109451359D01*
X73820879Y-109239947D01*
X73820878Y-109239947D01*
X73820882Y-109239940D01*
X73881121Y-109015126D01*
X73911500Y-108784372D01*
X73911500Y-108595634D01*
X165360500Y-108595634D01*
X165360500Y-108828365D01*
X165360501Y-108828382D01*
X165390878Y-109059122D01*
X165451120Y-109283947D01*
X165540180Y-109498960D01*
X165540188Y-109498976D01*
X165656553Y-109700524D01*
X165656564Y-109700540D01*
X165798242Y-109885179D01*
X165798248Y-109885186D01*
X165962813Y-110049751D01*
X165962820Y-110049757D01*
X165977272Y-110060846D01*
X166147468Y-110191442D01*
X166147475Y-110191446D01*
X166349023Y-110307811D01*
X166349039Y-110307819D01*
X166564052Y-110396879D01*
X166564054Y-110396879D01*
X166564060Y-110396882D01*
X166788874Y-110457121D01*
X167019628Y-110487500D01*
X167019635Y-110487500D01*
X167252365Y-110487500D01*
X167252372Y-110487500D01*
X167483126Y-110457121D01*
X167707940Y-110396882D01*
X167794136Y-110361179D01*
X167922960Y-110307819D01*
X167922963Y-110307817D01*
X167922969Y-110307815D01*
X168124532Y-110191442D01*
X168309181Y-110049756D01*
X168473756Y-109885181D01*
X168615442Y-109700532D01*
X168731815Y-109498969D01*
X168750038Y-109454976D01*
X168820879Y-109283947D01*
X168820878Y-109283947D01*
X168820882Y-109283940D01*
X168881121Y-109059126D01*
X168911500Y-108828372D01*
X168911500Y-108595628D01*
X168881121Y-108364874D01*
X168820882Y-108140060D01*
X168802657Y-108096060D01*
X168731819Y-107925039D01*
X168731811Y-107925023D01*
X168615446Y-107723475D01*
X168615442Y-107723468D01*
X168473756Y-107538819D01*
X168473751Y-107538813D01*
X168309186Y-107374248D01*
X168309179Y-107374242D01*
X168124540Y-107232564D01*
X168124538Y-107232562D01*
X168124532Y-107232558D01*
X168124527Y-107232555D01*
X168124524Y-107232553D01*
X167922976Y-107116188D01*
X167922960Y-107116180D01*
X167707947Y-107027120D01*
X167543730Y-106983118D01*
X167483126Y-106966879D01*
X167483125Y-106966878D01*
X167483122Y-106966878D01*
X167252382Y-106936501D01*
X167252377Y-106936500D01*
X167252372Y-106936500D01*
X167019628Y-106936500D01*
X167019622Y-106936500D01*
X167019617Y-106936501D01*
X166788877Y-106966878D01*
X166564052Y-107027120D01*
X166349039Y-107116180D01*
X166349023Y-107116188D01*
X166147475Y-107232553D01*
X166147459Y-107232564D01*
X165962820Y-107374242D01*
X165962813Y-107374248D01*
X165798248Y-107538813D01*
X165798242Y-107538820D01*
X165656564Y-107723459D01*
X165656553Y-107723475D01*
X165540188Y-107925023D01*
X165540180Y-107925039D01*
X165451120Y-108140052D01*
X165390878Y-108364877D01*
X165360501Y-108595617D01*
X165360500Y-108595634D01*
X73911500Y-108595634D01*
X73911500Y-108551628D01*
X73881121Y-108320874D01*
X73820882Y-108096060D01*
X73750044Y-107925039D01*
X73731819Y-107881039D01*
X73731811Y-107881023D01*
X73615446Y-107679475D01*
X73615442Y-107679468D01*
X73507519Y-107538820D01*
X73473757Y-107494820D01*
X73473751Y-107494813D01*
X73309186Y-107330248D01*
X73309179Y-107330242D01*
X73124540Y-107188564D01*
X73124538Y-107188562D01*
X73124532Y-107188558D01*
X73124527Y-107188555D01*
X73124524Y-107188553D01*
X72922976Y-107072188D01*
X72922960Y-107072180D01*
X72707947Y-106983120D01*
X72647331Y-106966878D01*
X72483126Y-106922879D01*
X72483125Y-106922878D01*
X72483122Y-106922878D01*
X72252382Y-106892501D01*
X72252377Y-106892500D01*
X72252372Y-106892500D01*
X72019628Y-106892500D01*
X72019622Y-106892500D01*
X72019617Y-106892501D01*
X71788877Y-106922878D01*
X71564052Y-106983120D01*
X71349039Y-107072180D01*
X71349023Y-107072188D01*
X71147475Y-107188553D01*
X71147459Y-107188564D01*
X70962820Y-107330242D01*
X70962813Y-107330248D01*
X70798248Y-107494813D01*
X70798242Y-107494820D01*
X70656564Y-107679459D01*
X70656553Y-107679475D01*
X70540188Y-107881023D01*
X70540180Y-107881039D01*
X70451120Y-108096052D01*
X70390878Y-108320877D01*
X70360501Y-108551617D01*
X70360500Y-108551634D01*
X68580000Y-108551634D01*
X68580000Y-105534000D01*
X68599685Y-105466961D01*
X68652489Y-105421206D01*
X68704000Y-105410000D01*
X170056000Y-105410000D01*
X170123039Y-105429685D01*
G37*
%TD.AperFunction*%
%TD*%
M02*
